M48
; DRILL file {KiCad (5.1.4-0-10_14)} date Monday, 03 February 2020 at 03:05:28 pm
; FORMAT={-:-/ absolute / metric / decimal}
; #@! TF.CreationDate,2020-02-03T15:05:28+11:00
; #@! TF.GenerationSoftware,Kicad,Pcbnew,(5.1.4-0-10_14)
; #@! TF.FileFunction,Plated,1,2,PTH
FMAT,2
METRIC
T1C0.813
T2C0.900
T3C1.016
T4C1.100
%
G90
G05
T1
X64.389Y-24.892
X64.389Y-27.432
T2
X24.13Y-43.434
X24.13Y-58.674
X26.67Y-43.434
X26.67Y-58.674
X29.21Y-43.434
X29.21Y-58.674
X31.75Y-43.434
X31.75Y-58.674
X34.29Y-43.434
X34.29Y-58.674
X36.83Y-43.434
X36.83Y-58.674
X39.37Y-43.434
X39.37Y-58.674
X41.91Y-43.434
X41.91Y-58.674
X44.45Y-43.434
X44.45Y-58.674
X46.99Y-43.434
X46.99Y-58.674
X49.53Y-43.434
X49.53Y-58.674
X52.07Y-43.434
X52.07Y-58.674
X54.61Y-43.434
X54.61Y-58.674
X57.15Y-43.434
X57.15Y-58.674
X26.657Y-23.622
X26.657Y-38.862
X29.197Y-23.622
X29.197Y-38.862
X31.737Y-23.622
X31.737Y-38.862
X34.277Y-23.622
X34.277Y-38.862
X36.817Y-23.622
X36.817Y-38.862
X39.357Y-23.622
X39.357Y-38.862
X41.897Y-23.622
X41.897Y-38.862
X44.437Y-23.622
X44.437Y-38.862
X46.977Y-23.622
X46.977Y-38.862
X49.517Y-23.622
X49.517Y-38.862
X52.057Y-23.622
X52.057Y-38.862
X54.597Y-23.622
X54.597Y-38.862
X57.137Y-23.622
X57.137Y-38.862
X59.677Y-23.622
X59.677Y-38.862
T3
X64.516Y-31.242
X64.516Y-38.862
X67.056Y-31.242
X67.056Y-38.862
X69.596Y-31.242
X69.596Y-38.862
X72.136Y-31.242
X72.136Y-38.862
X74.676Y-31.242
X74.676Y-38.862
X77.216Y-31.242
X77.216Y-38.862
X79.756Y-31.242
X79.756Y-38.862
X82.296Y-31.242
X82.296Y-38.862
T4
X65.457Y-50.673
X82.117Y-50.673
T0
M30
