G04 #@! TF.GenerationSoftware,KiCad,Pcbnew,(5.1.4-0-10_14)*
G04 #@! TF.CreationDate,2020-02-03T15:06:25+11:00*
G04 #@! TF.ProjectId,SmartWatch+,536d6172-7457-4617-9463-682b2e6b6963,rev?*
G04 #@! TF.SameCoordinates,Original*
G04 #@! TF.FileFunction,Legend,Bot*
G04 #@! TF.FilePolarity,Positive*
%FSLAX46Y46*%
G04 Gerber Fmt 4.6, Leading zero omitted, Abs format (unit mm)*
G04 Created by KiCad (PCBNEW (5.1.4-0-10_14)) date 2020-02-03 15:06:25*
%MOMM*%
%LPD*%
G04 APERTURE LIST*
%ADD10C,0.300000*%
%ADD11C,0.250000*%
%ADD12C,0.010000*%
G04 APERTURE END LIST*
D10*
X49703571Y-47301571D02*
X48846428Y-47301571D01*
X49275000Y-48801571D02*
X49275000Y-47301571D01*
X47703571Y-48801571D02*
X47703571Y-48015857D01*
X47775000Y-47873000D01*
X47917857Y-47801571D01*
X48203571Y-47801571D01*
X48346428Y-47873000D01*
X47703571Y-48730142D02*
X47846428Y-48801571D01*
X48203571Y-48801571D01*
X48346428Y-48730142D01*
X48417857Y-48587285D01*
X48417857Y-48444428D01*
X48346428Y-48301571D01*
X48203571Y-48230142D01*
X47846428Y-48230142D01*
X47703571Y-48158714D01*
X46989285Y-47801571D02*
X46989285Y-48801571D01*
X46989285Y-47944428D02*
X46917857Y-47873000D01*
X46775000Y-47801571D01*
X46560714Y-47801571D01*
X46417857Y-47873000D01*
X46346428Y-48015857D01*
X46346428Y-48801571D01*
X44989285Y-48801571D02*
X44989285Y-47301571D01*
X44989285Y-48730142D02*
X45132142Y-48801571D01*
X45417857Y-48801571D01*
X45560714Y-48730142D01*
X45632142Y-48658714D01*
X45703571Y-48515857D01*
X45703571Y-48087285D01*
X45632142Y-47944428D01*
X45560714Y-47873000D01*
X45417857Y-47801571D01*
X45132142Y-47801571D01*
X44989285Y-47873000D01*
X44417857Y-47801571D02*
X44060714Y-48801571D01*
X43703571Y-47801571D02*
X44060714Y-48801571D01*
X44203571Y-49158714D01*
X44275000Y-49230142D01*
X44417857Y-49301571D01*
X41203571Y-48801571D02*
X42060714Y-48801571D01*
X41632142Y-48801571D02*
X41632142Y-47301571D01*
X41775000Y-47515857D01*
X41917857Y-47658714D01*
X42060714Y-47730142D01*
X40275000Y-47301571D02*
X40132142Y-47301571D01*
X39989285Y-47373000D01*
X39917857Y-47444428D01*
X39846428Y-47587285D01*
X39775000Y-47873000D01*
X39775000Y-48230142D01*
X39846428Y-48515857D01*
X39917857Y-48658714D01*
X39989285Y-48730142D01*
X40132142Y-48801571D01*
X40275000Y-48801571D01*
X40417857Y-48730142D01*
X40489285Y-48658714D01*
X40560714Y-48515857D01*
X40632142Y-48230142D01*
X40632142Y-47873000D01*
X40560714Y-47587285D01*
X40489285Y-47444428D01*
X40417857Y-47373000D01*
X40275000Y-47301571D01*
X38846428Y-47301571D02*
X38703571Y-47301571D01*
X38560714Y-47373000D01*
X38489285Y-47444428D01*
X38417857Y-47587285D01*
X38346428Y-47873000D01*
X38346428Y-48230142D01*
X38417857Y-48515857D01*
X38489285Y-48658714D01*
X38560714Y-48730142D01*
X38703571Y-48801571D01*
X38846428Y-48801571D01*
X38989285Y-48730142D01*
X39060714Y-48658714D01*
X39132142Y-48515857D01*
X39203571Y-48230142D01*
X39203571Y-47873000D01*
X39132142Y-47587285D01*
X39060714Y-47444428D01*
X38989285Y-47373000D01*
X38846428Y-47301571D01*
X37417857Y-47301571D02*
X37275000Y-47301571D01*
X37132142Y-47373000D01*
X37060714Y-47444428D01*
X36989285Y-47587285D01*
X36917857Y-47873000D01*
X36917857Y-48230142D01*
X36989285Y-48515857D01*
X37060714Y-48658714D01*
X37132142Y-48730142D01*
X37275000Y-48801571D01*
X37417857Y-48801571D01*
X37560714Y-48730142D01*
X37632142Y-48658714D01*
X37703571Y-48515857D01*
X37775000Y-48230142D01*
X37775000Y-47873000D01*
X37703571Y-47587285D01*
X37632142Y-47444428D01*
X37560714Y-47373000D01*
X37417857Y-47301571D01*
X35132142Y-48015857D02*
X34632142Y-48015857D01*
X34417857Y-48801571D02*
X35132142Y-48801571D01*
X35132142Y-47301571D01*
X34417857Y-47301571D01*
X33917857Y-47301571D02*
X32917857Y-48801571D01*
X32917857Y-47301571D02*
X33917857Y-48801571D01*
X48489285Y-51280142D02*
X48275000Y-51351571D01*
X47917857Y-51351571D01*
X47775000Y-51280142D01*
X47703571Y-51208714D01*
X47632142Y-51065857D01*
X47632142Y-50923000D01*
X47703571Y-50780142D01*
X47775000Y-50708714D01*
X47917857Y-50637285D01*
X48203571Y-50565857D01*
X48346428Y-50494428D01*
X48417857Y-50423000D01*
X48489285Y-50280142D01*
X48489285Y-50137285D01*
X48417857Y-49994428D01*
X48346428Y-49923000D01*
X48203571Y-49851571D01*
X47846428Y-49851571D01*
X47632142Y-49923000D01*
X46989285Y-51351571D02*
X46989285Y-50351571D01*
X46989285Y-50494428D02*
X46917857Y-50423000D01*
X46775000Y-50351571D01*
X46560714Y-50351571D01*
X46417857Y-50423000D01*
X46346428Y-50565857D01*
X46346428Y-51351571D01*
X46346428Y-50565857D02*
X46275000Y-50423000D01*
X46132142Y-50351571D01*
X45917857Y-50351571D01*
X45775000Y-50423000D01*
X45703571Y-50565857D01*
X45703571Y-51351571D01*
X44346428Y-51351571D02*
X44346428Y-50565857D01*
X44417857Y-50423000D01*
X44560714Y-50351571D01*
X44846428Y-50351571D01*
X44989285Y-50423000D01*
X44346428Y-51280142D02*
X44489285Y-51351571D01*
X44846428Y-51351571D01*
X44989285Y-51280142D01*
X45060714Y-51137285D01*
X45060714Y-50994428D01*
X44989285Y-50851571D01*
X44846428Y-50780142D01*
X44489285Y-50780142D01*
X44346428Y-50708714D01*
X43632142Y-51351571D02*
X43632142Y-50351571D01*
X43632142Y-50637285D02*
X43560714Y-50494428D01*
X43489285Y-50423000D01*
X43346428Y-50351571D01*
X43203571Y-50351571D01*
X42917857Y-50351571D02*
X42346428Y-50351571D01*
X42703571Y-49851571D02*
X42703571Y-51137285D01*
X42632142Y-51280142D01*
X42489285Y-51351571D01*
X42346428Y-51351571D01*
X41989285Y-49851571D02*
X41632142Y-51351571D01*
X41346428Y-50280142D01*
X41060714Y-51351571D01*
X40703571Y-49851571D01*
X39489285Y-51351571D02*
X39489285Y-50565857D01*
X39560714Y-50423000D01*
X39703571Y-50351571D01*
X39989285Y-50351571D01*
X40132142Y-50423000D01*
X39489285Y-51280142D02*
X39632142Y-51351571D01*
X39989285Y-51351571D01*
X40132142Y-51280142D01*
X40203571Y-51137285D01*
X40203571Y-50994428D01*
X40132142Y-50851571D01*
X39989285Y-50780142D01*
X39632142Y-50780142D01*
X39489285Y-50708714D01*
X38989285Y-50351571D02*
X38417857Y-50351571D01*
X38775000Y-49851571D02*
X38775000Y-51137285D01*
X38703571Y-51280142D01*
X38560714Y-51351571D01*
X38417857Y-51351571D01*
X37275000Y-51280142D02*
X37417857Y-51351571D01*
X37703571Y-51351571D01*
X37846428Y-51280142D01*
X37917857Y-51208714D01*
X37989285Y-51065857D01*
X37989285Y-50637285D01*
X37917857Y-50494428D01*
X37846428Y-50423000D01*
X37703571Y-50351571D01*
X37417857Y-50351571D01*
X37275000Y-50423000D01*
X36632142Y-51351571D02*
X36632142Y-49851571D01*
X35989285Y-51351571D02*
X35989285Y-50565857D01*
X36060714Y-50423000D01*
X36203571Y-50351571D01*
X36417857Y-50351571D01*
X36560714Y-50423000D01*
X36632142Y-50494428D01*
X35275000Y-50780142D02*
X34132142Y-50780142D01*
X34703571Y-51351571D02*
X34703571Y-50208714D01*
X45489285Y-53901571D02*
X45489285Y-52401571D01*
X45489285Y-52973000D02*
X45346428Y-52901571D01*
X45060714Y-52901571D01*
X44917857Y-52973000D01*
X44846428Y-53044428D01*
X44775000Y-53187285D01*
X44775000Y-53615857D01*
X44846428Y-53758714D01*
X44917857Y-53830142D01*
X45060714Y-53901571D01*
X45346428Y-53901571D01*
X45489285Y-53830142D01*
X44275000Y-52901571D02*
X43917857Y-53901571D01*
X43560714Y-52901571D02*
X43917857Y-53901571D01*
X44060714Y-54258714D01*
X44132142Y-54330142D01*
X44275000Y-54401571D01*
X41203571Y-53901571D02*
X41203571Y-52401571D01*
X41203571Y-53830142D02*
X41346428Y-53901571D01*
X41632142Y-53901571D01*
X41775000Y-53830142D01*
X41846428Y-53758714D01*
X41917857Y-53615857D01*
X41917857Y-53187285D01*
X41846428Y-53044428D01*
X41775000Y-52973000D01*
X41632142Y-52901571D01*
X41346428Y-52901571D01*
X41203571Y-52973000D01*
X40060714Y-52401571D02*
X40060714Y-53473000D01*
X40132142Y-53687285D01*
X40275000Y-53830142D01*
X40489285Y-53901571D01*
X40632142Y-53901571D01*
X39060714Y-52401571D02*
X38775000Y-52401571D01*
X38632142Y-52473000D01*
X38489285Y-52615857D01*
X38417857Y-52901571D01*
X38417857Y-53401571D01*
X38489285Y-53687285D01*
X38632142Y-53830142D01*
X38775000Y-53901571D01*
X39060714Y-53901571D01*
X39203571Y-53830142D01*
X39346428Y-53687285D01*
X39417857Y-53401571D01*
X39417857Y-52901571D01*
X39346428Y-52615857D01*
X39203571Y-52473000D01*
X39060714Y-52401571D01*
X37846428Y-53830142D02*
X37632142Y-53901571D01*
X37275000Y-53901571D01*
X37132142Y-53830142D01*
X37060714Y-53758714D01*
X36989285Y-53615857D01*
X36989285Y-53473000D01*
X37060714Y-53330142D01*
X37132142Y-53258714D01*
X37275000Y-53187285D01*
X37560714Y-53115857D01*
X37703571Y-53044428D01*
X37775000Y-52973000D01*
X37846428Y-52830142D01*
X37846428Y-52687285D01*
X37775000Y-52544428D01*
X37703571Y-52473000D01*
X37560714Y-52401571D01*
X37203571Y-52401571D01*
X36989285Y-52473000D01*
D11*
X22040000Y-57434000D02*
X59240000Y-57434000D01*
X59240000Y-44634000D02*
X59240000Y-57434000D01*
X22040000Y-44634000D02*
X59240000Y-44634000D01*
X22040000Y-44634000D02*
X22040000Y-50234000D01*
X22040000Y-57434000D02*
X22040000Y-51834000D01*
X22040000Y-51834000D02*
G75*
G03X22040000Y-50234000I-372J800000D01*
G01*
D12*
G36*
X77745166Y-54568915D02*
G01*
X77294761Y-54593670D01*
X76988099Y-54671806D01*
X76805435Y-54812596D01*
X76727026Y-55025313D01*
X76724409Y-55048297D01*
X76769012Y-55309397D01*
X76955713Y-55487186D01*
X77275672Y-55575112D01*
X77446505Y-55583667D01*
X77673033Y-55591035D01*
X77777492Y-55638917D01*
X77807133Y-55765976D01*
X77808666Y-55880000D01*
X77822826Y-56079095D01*
X77894646Y-56160756D01*
X78062666Y-56176334D01*
X78316666Y-56176334D01*
X78316666Y-55118000D01*
X77808666Y-55118000D01*
X77778622Y-55272998D01*
X77654353Y-55326463D01*
X77571600Y-55329667D01*
X77362859Y-55297771D01*
X77239549Y-55234683D01*
X77171086Y-55089828D01*
X77247810Y-54972226D01*
X77445579Y-54910004D01*
X77521392Y-54906334D01*
X77717850Y-54923351D01*
X77796612Y-54999082D01*
X77808666Y-55118000D01*
X78316666Y-55118000D01*
X78316666Y-54567667D01*
X77745166Y-54568915D01*
X77745166Y-54568915D01*
G37*
X77745166Y-54568915D02*
X77294761Y-54593670D01*
X76988099Y-54671806D01*
X76805435Y-54812596D01*
X76727026Y-55025313D01*
X76724409Y-55048297D01*
X76769012Y-55309397D01*
X76955713Y-55487186D01*
X77275672Y-55575112D01*
X77446505Y-55583667D01*
X77673033Y-55591035D01*
X77777492Y-55638917D01*
X77807133Y-55765976D01*
X77808666Y-55880000D01*
X77822826Y-56079095D01*
X77894646Y-56160756D01*
X78062666Y-56176334D01*
X78316666Y-56176334D01*
X78316666Y-55118000D01*
X77808666Y-55118000D01*
X77778622Y-55272998D01*
X77654353Y-55326463D01*
X77571600Y-55329667D01*
X77362859Y-55297771D01*
X77239549Y-55234683D01*
X77171086Y-55089828D01*
X77247810Y-54972226D01*
X77445579Y-54910004D01*
X77521392Y-54906334D01*
X77717850Y-54923351D01*
X77796612Y-54999082D01*
X77808666Y-55118000D01*
X78316666Y-55118000D01*
X78316666Y-54567667D01*
X77745166Y-54568915D01*
G36*
X75645761Y-54616113D02*
G01*
X75547513Y-54653623D01*
X75461292Y-54751291D01*
X75364945Y-54937876D01*
X75236322Y-55242136D01*
X75174951Y-55393167D01*
X74857556Y-56176334D01*
X75102466Y-56176334D01*
X75340750Y-56113493D01*
X75438000Y-56007000D01*
X75562400Y-55884216D01*
X75787926Y-55839105D01*
X75858607Y-55837667D01*
X76093555Y-55859900D01*
X76212296Y-55941008D01*
X76242333Y-56007000D01*
X76366663Y-56149297D01*
X76502039Y-56176334D01*
X76656283Y-56154131D01*
X76702585Y-56112834D01*
X76668095Y-56012026D01*
X76580137Y-55794646D01*
X76454343Y-55498714D01*
X76443560Y-55473995D01*
X76011958Y-55473995D01*
X76010506Y-55561436D01*
X75924852Y-55583081D01*
X75861333Y-55583667D01*
X75719218Y-55524097D01*
X75693296Y-55435500D01*
X75738931Y-55231772D01*
X75773102Y-55163202D01*
X75839767Y-55105292D01*
X75904558Y-55186087D01*
X75941139Y-55274547D01*
X76011958Y-55473995D01*
X76443560Y-55473995D01*
X76380600Y-55329667D01*
X76229334Y-54992431D01*
X76119912Y-54781374D01*
X76027619Y-54666972D01*
X75927742Y-54619701D01*
X75795566Y-54610035D01*
X75778189Y-54610000D01*
X75645761Y-54616113D01*
X75645761Y-54616113D01*
G37*
X75645761Y-54616113D02*
X75547513Y-54653623D01*
X75461292Y-54751291D01*
X75364945Y-54937876D01*
X75236322Y-55242136D01*
X75174951Y-55393167D01*
X74857556Y-56176334D01*
X75102466Y-56176334D01*
X75340750Y-56113493D01*
X75438000Y-56007000D01*
X75562400Y-55884216D01*
X75787926Y-55839105D01*
X75858607Y-55837667D01*
X76093555Y-55859900D01*
X76212296Y-55941008D01*
X76242333Y-56007000D01*
X76366663Y-56149297D01*
X76502039Y-56176334D01*
X76656283Y-56154131D01*
X76702585Y-56112834D01*
X76668095Y-56012026D01*
X76580137Y-55794646D01*
X76454343Y-55498714D01*
X76443560Y-55473995D01*
X76011958Y-55473995D01*
X76010506Y-55561436D01*
X75924852Y-55583081D01*
X75861333Y-55583667D01*
X75719218Y-55524097D01*
X75693296Y-55435500D01*
X75738931Y-55231772D01*
X75773102Y-55163202D01*
X75839767Y-55105292D01*
X75904558Y-55186087D01*
X75941139Y-55274547D01*
X76011958Y-55473995D01*
X76443560Y-55473995D01*
X76380600Y-55329667D01*
X76229334Y-54992431D01*
X76119912Y-54781374D01*
X76027619Y-54666972D01*
X75927742Y-54619701D01*
X75795566Y-54610035D01*
X75778189Y-54610000D01*
X75645761Y-54616113D01*
G36*
X74183061Y-54595414D02*
G01*
X74031116Y-54699074D01*
X73849244Y-54909276D01*
X73773044Y-55011184D01*
X73448333Y-55454702D01*
X73406000Y-55032351D01*
X73369103Y-54775996D01*
X73312009Y-54648789D01*
X73214578Y-54610548D01*
X73194333Y-54610000D01*
X73114249Y-54623640D01*
X73062416Y-54685695D01*
X73030995Y-54827864D01*
X73012147Y-55081849D01*
X73000656Y-55393167D01*
X72976312Y-56176334D01*
X73218685Y-56176334D01*
X73374509Y-56149030D01*
X73522347Y-56047036D01*
X73699525Y-55840223D01*
X73793362Y-55712493D01*
X73969781Y-55478184D01*
X74112111Y-55310814D01*
X74189166Y-55246826D01*
X74223934Y-55322341D01*
X74246998Y-55519063D01*
X74252666Y-55710667D01*
X74260016Y-55979775D01*
X74291794Y-56119965D01*
X74362593Y-56171367D01*
X74422000Y-56176334D01*
X74500702Y-56164188D01*
X74550374Y-56106810D01*
X74577627Y-55972790D01*
X74589075Y-55730716D01*
X74591333Y-55372000D01*
X74591333Y-54567667D01*
X74344544Y-54567667D01*
X74183061Y-54595414D01*
X74183061Y-54595414D01*
G37*
X74183061Y-54595414D02*
X74031116Y-54699074D01*
X73849244Y-54909276D01*
X73773044Y-55011184D01*
X73448333Y-55454702D01*
X73406000Y-55032351D01*
X73369103Y-54775996D01*
X73312009Y-54648789D01*
X73214578Y-54610548D01*
X73194333Y-54610000D01*
X73114249Y-54623640D01*
X73062416Y-54685695D01*
X73030995Y-54827864D01*
X73012147Y-55081849D01*
X73000656Y-55393167D01*
X72976312Y-56176334D01*
X73218685Y-56176334D01*
X73374509Y-56149030D01*
X73522347Y-56047036D01*
X73699525Y-55840223D01*
X73793362Y-55712493D01*
X73969781Y-55478184D01*
X74112111Y-55310814D01*
X74189166Y-55246826D01*
X74223934Y-55322341D01*
X74246998Y-55519063D01*
X74252666Y-55710667D01*
X74260016Y-55979775D01*
X74291794Y-56119965D01*
X74362593Y-56171367D01*
X74422000Y-56176334D01*
X74500702Y-56164188D01*
X74550374Y-56106810D01*
X74577627Y-55972790D01*
X74589075Y-55730716D01*
X74591333Y-55372000D01*
X74591333Y-54567667D01*
X74344544Y-54567667D01*
X74183061Y-54595414D01*
G36*
X72249609Y-54573252D02*
G01*
X72187766Y-54611155D01*
X72153790Y-54713092D01*
X72139335Y-54910784D01*
X72136053Y-55235947D01*
X72136000Y-55372000D01*
X72137470Y-55744619D01*
X72147444Y-55979623D01*
X72174270Y-56108730D01*
X72226294Y-56163660D01*
X72311863Y-56176130D01*
X72347666Y-56176334D01*
X72445724Y-56170748D01*
X72507567Y-56132846D01*
X72541543Y-56030908D01*
X72555998Y-55833217D01*
X72559280Y-55508054D01*
X72559333Y-55372000D01*
X72557863Y-54999381D01*
X72547889Y-54764377D01*
X72521063Y-54635270D01*
X72469039Y-54580340D01*
X72383470Y-54567870D01*
X72347666Y-54567667D01*
X72249609Y-54573252D01*
X72249609Y-54573252D01*
G37*
X72249609Y-54573252D02*
X72187766Y-54611155D01*
X72153790Y-54713092D01*
X72139335Y-54910784D01*
X72136053Y-55235947D01*
X72136000Y-55372000D01*
X72137470Y-55744619D01*
X72147444Y-55979623D01*
X72174270Y-56108730D01*
X72226294Y-56163660D01*
X72311863Y-56176130D01*
X72347666Y-56176334D01*
X72445724Y-56170748D01*
X72507567Y-56132846D01*
X72541543Y-56030908D01*
X72555998Y-55833217D01*
X72559280Y-55508054D01*
X72559333Y-55372000D01*
X72557863Y-54999381D01*
X72547889Y-54764377D01*
X72521063Y-54635270D01*
X72469039Y-54580340D01*
X72383470Y-54567870D01*
X72347666Y-54567667D01*
X72249609Y-54573252D01*
G36*
X70520815Y-54612873D02*
G01*
X70268665Y-54727676D01*
X70084327Y-54880851D01*
X70019333Y-55029608D01*
X70086706Y-55140149D01*
X70241961Y-55185475D01*
X70414802Y-55160813D01*
X70533310Y-55064499D01*
X70683727Y-54938595D01*
X70895967Y-54912969D01*
X71089902Y-54995574D01*
X71103066Y-55007934D01*
X71171508Y-55156401D01*
X71204201Y-55384687D01*
X71204666Y-55414334D01*
X71177991Y-55646333D01*
X71112794Y-55809610D01*
X71103066Y-55820734D01*
X70903870Y-55915738D01*
X70680138Y-55881930D01*
X70512759Y-55741762D01*
X70371254Y-55611881D01*
X70206098Y-55620467D01*
X70050370Y-55704809D01*
X70044843Y-55826097D01*
X70188502Y-56006836D01*
X70188666Y-56007000D01*
X70413733Y-56130414D01*
X70728349Y-56182896D01*
X71068325Y-56164498D01*
X71369471Y-56075271D01*
X71483081Y-56005968D01*
X71698390Y-55739378D01*
X71764436Y-55412646D01*
X71675289Y-55055795D01*
X71672109Y-55049033D01*
X71465098Y-54768002D01*
X71160486Y-54611113D01*
X70788767Y-54567667D01*
X70520815Y-54612873D01*
X70520815Y-54612873D01*
G37*
X70520815Y-54612873D02*
X70268665Y-54727676D01*
X70084327Y-54880851D01*
X70019333Y-55029608D01*
X70086706Y-55140149D01*
X70241961Y-55185475D01*
X70414802Y-55160813D01*
X70533310Y-55064499D01*
X70683727Y-54938595D01*
X70895967Y-54912969D01*
X71089902Y-54995574D01*
X71103066Y-55007934D01*
X71171508Y-55156401D01*
X71204201Y-55384687D01*
X71204666Y-55414334D01*
X71177991Y-55646333D01*
X71112794Y-55809610D01*
X71103066Y-55820734D01*
X70903870Y-55915738D01*
X70680138Y-55881930D01*
X70512759Y-55741762D01*
X70371254Y-55611881D01*
X70206098Y-55620467D01*
X70050370Y-55704809D01*
X70044843Y-55826097D01*
X70188502Y-56006836D01*
X70188666Y-56007000D01*
X70413733Y-56130414D01*
X70728349Y-56182896D01*
X71068325Y-56164498D01*
X71369471Y-56075271D01*
X71483081Y-56005968D01*
X71698390Y-55739378D01*
X71764436Y-55412646D01*
X71675289Y-55055795D01*
X71672109Y-55049033D01*
X71465098Y-54768002D01*
X71160486Y-54611113D01*
X70788767Y-54567667D01*
X70520815Y-54612873D01*
G36*
X75169215Y-52660028D02*
G01*
X74865115Y-52842546D01*
X74838820Y-52867821D01*
X74648480Y-53163243D01*
X74585574Y-53506680D01*
X74656456Y-53839714D01*
X74720829Y-53952871D01*
X74864475Y-54074184D01*
X75091303Y-54193834D01*
X75330118Y-54280850D01*
X75509727Y-54304263D01*
X75522666Y-54301665D01*
X75630556Y-54278504D01*
X75752610Y-54254293D01*
X75964400Y-54145107D01*
X76171438Y-53935550D01*
X76322700Y-53688141D01*
X76369333Y-53498633D01*
X76369143Y-53497720D01*
X75861333Y-53497720D01*
X75799864Y-53738233D01*
X75646178Y-53904938D01*
X75446358Y-53971619D01*
X75246488Y-53912063D01*
X75200933Y-53873400D01*
X75132492Y-53724932D01*
X75099798Y-53496647D01*
X75099333Y-53467000D01*
X75145671Y-53167564D01*
X75289650Y-53001859D01*
X75494288Y-52959000D01*
X75692849Y-53034903D01*
X75822334Y-53240654D01*
X75861333Y-53497720D01*
X76369143Y-53497720D01*
X76296445Y-53148700D01*
X76102663Y-52874489D01*
X75825314Y-52691384D01*
X75501723Y-52614769D01*
X75169215Y-52660028D01*
X75169215Y-52660028D01*
G37*
X75169215Y-52660028D02*
X74865115Y-52842546D01*
X74838820Y-52867821D01*
X74648480Y-53163243D01*
X74585574Y-53506680D01*
X74656456Y-53839714D01*
X74720829Y-53952871D01*
X74864475Y-54074184D01*
X75091303Y-54193834D01*
X75330118Y-54280850D01*
X75509727Y-54304263D01*
X75522666Y-54301665D01*
X75630556Y-54278504D01*
X75752610Y-54254293D01*
X75964400Y-54145107D01*
X76171438Y-53935550D01*
X76322700Y-53688141D01*
X76369333Y-53498633D01*
X76369143Y-53497720D01*
X75861333Y-53497720D01*
X75799864Y-53738233D01*
X75646178Y-53904938D01*
X75446358Y-53971619D01*
X75246488Y-53912063D01*
X75200933Y-53873400D01*
X75132492Y-53724932D01*
X75099798Y-53496647D01*
X75099333Y-53467000D01*
X75145671Y-53167564D01*
X75289650Y-53001859D01*
X75494288Y-52959000D01*
X75692849Y-53034903D01*
X75822334Y-53240654D01*
X75861333Y-53497720D01*
X76369143Y-53497720D01*
X76296445Y-53148700D01*
X76102663Y-52874489D01*
X75825314Y-52691384D01*
X75501723Y-52614769D01*
X75169215Y-52660028D01*
G36*
X77235817Y-52705207D02*
G01*
X76926295Y-52839471D01*
X76824369Y-52919600D01*
X76648053Y-53202983D01*
X76616155Y-53522297D01*
X76726055Y-53829493D01*
X76883829Y-54009807D01*
X77049902Y-54129824D01*
X77225991Y-54196391D01*
X77469760Y-54224379D01*
X77733673Y-54229000D01*
X78323021Y-54229000D01*
X78299335Y-53467000D01*
X77808666Y-53467000D01*
X77801957Y-53751877D01*
X77773824Y-53905817D01*
X77712259Y-53966958D01*
X77648713Y-53975000D01*
X77465881Y-53923553D01*
X77299463Y-53821717D01*
X77137803Y-53605962D01*
X77105975Y-53365040D01*
X77189415Y-53146266D01*
X77373559Y-52996953D01*
X77565033Y-52959000D01*
X77699900Y-52966467D01*
X77772694Y-53015472D01*
X77802556Y-53145922D01*
X77808624Y-53397721D01*
X77808666Y-53467000D01*
X78299335Y-53467000D01*
X78298677Y-53445834D01*
X78274333Y-52662667D01*
X78025312Y-52634314D01*
X77622058Y-52632094D01*
X77235817Y-52705207D01*
X77235817Y-52705207D01*
G37*
X77235817Y-52705207D02*
X76926295Y-52839471D01*
X76824369Y-52919600D01*
X76648053Y-53202983D01*
X76616155Y-53522297D01*
X76726055Y-53829493D01*
X76883829Y-54009807D01*
X77049902Y-54129824D01*
X77225991Y-54196391D01*
X77469760Y-54224379D01*
X77733673Y-54229000D01*
X78323021Y-54229000D01*
X78299335Y-53467000D01*
X77808666Y-53467000D01*
X77801957Y-53751877D01*
X77773824Y-53905817D01*
X77712259Y-53966958D01*
X77648713Y-53975000D01*
X77465881Y-53923553D01*
X77299463Y-53821717D01*
X77137803Y-53605962D01*
X77105975Y-53365040D01*
X77189415Y-53146266D01*
X77373559Y-52996953D01*
X77565033Y-52959000D01*
X77699900Y-52966467D01*
X77772694Y-53015472D01*
X77802556Y-53145922D01*
X77808624Y-53397721D01*
X77808666Y-53467000D01*
X78299335Y-53467000D01*
X78298677Y-53445834D01*
X78274333Y-52662667D01*
X78025312Y-52634314D01*
X77622058Y-52632094D01*
X77235817Y-52705207D01*
G36*
X73832555Y-52648283D02*
G01*
X73676814Y-52752989D01*
X73491082Y-52965734D01*
X73431902Y-53043667D01*
X73256936Y-53264801D01*
X73116853Y-53417995D01*
X73049261Y-53467000D01*
X73011266Y-53390826D01*
X72987155Y-53196069D01*
X72982666Y-53043667D01*
X72973751Y-52789750D01*
X72935910Y-52663112D01*
X72852500Y-52622145D01*
X72813333Y-52620334D01*
X72734631Y-52632479D01*
X72684959Y-52689857D01*
X72657706Y-52823877D01*
X72646258Y-53065951D01*
X72644000Y-53424667D01*
X72644000Y-54229000D01*
X72876833Y-54227174D01*
X73030188Y-54195323D01*
X73182407Y-54083011D01*
X73368391Y-53861206D01*
X73448333Y-53751758D01*
X73787000Y-53278168D01*
X73812392Y-53753584D01*
X73832926Y-54024261D01*
X73870632Y-54166461D01*
X73945507Y-54221018D01*
X74045225Y-54229000D01*
X74141329Y-54222944D01*
X74201941Y-54183631D01*
X74235239Y-54079346D01*
X74249405Y-53878375D01*
X74252616Y-53549003D01*
X74252666Y-53424667D01*
X74252666Y-52620334D01*
X74000308Y-52620334D01*
X73832555Y-52648283D01*
X73832555Y-52648283D01*
G37*
X73832555Y-52648283D02*
X73676814Y-52752989D01*
X73491082Y-52965734D01*
X73431902Y-53043667D01*
X73256936Y-53264801D01*
X73116853Y-53417995D01*
X73049261Y-53467000D01*
X73011266Y-53390826D01*
X72987155Y-53196069D01*
X72982666Y-53043667D01*
X72973751Y-52789750D01*
X72935910Y-52663112D01*
X72852500Y-52622145D01*
X72813333Y-52620334D01*
X72734631Y-52632479D01*
X72684959Y-52689857D01*
X72657706Y-52823877D01*
X72646258Y-53065951D01*
X72644000Y-53424667D01*
X72644000Y-54229000D01*
X72876833Y-54227174D01*
X73030188Y-54195323D01*
X73182407Y-54083011D01*
X73368391Y-53861206D01*
X73448333Y-53751758D01*
X73787000Y-53278168D01*
X73812392Y-53753584D01*
X73832926Y-54024261D01*
X73870632Y-54166461D01*
X73945507Y-54221018D01*
X74045225Y-54229000D01*
X74141329Y-54222944D01*
X74201941Y-54183631D01*
X74235239Y-54079346D01*
X74249405Y-53878375D01*
X74252616Y-53549003D01*
X74252666Y-53424667D01*
X74252666Y-52620334D01*
X74000308Y-52620334D01*
X73832555Y-52648283D01*
G36*
X70503965Y-52623163D02*
G01*
X70279002Y-52636426D01*
X70158884Y-52667285D01*
X70111379Y-52722901D01*
X70104000Y-52789667D01*
X70143916Y-52913614D01*
X70292433Y-52957253D01*
X70358000Y-52959000D01*
X70612000Y-52959000D01*
X70612000Y-54229000D01*
X71120000Y-54229000D01*
X71120000Y-52959000D01*
X71374000Y-52959000D01*
X71559920Y-52932390D01*
X71625379Y-52833378D01*
X71628000Y-52789667D01*
X71615267Y-52709215D01*
X71555584Y-52659223D01*
X71416720Y-52632530D01*
X71166447Y-52621973D01*
X70866000Y-52620334D01*
X70503965Y-52623163D01*
X70503965Y-52623163D01*
G37*
X70503965Y-52623163D02*
X70279002Y-52636426D01*
X70158884Y-52667285D01*
X70111379Y-52722901D01*
X70104000Y-52789667D01*
X70143916Y-52913614D01*
X70292433Y-52957253D01*
X70358000Y-52959000D01*
X70612000Y-52959000D01*
X70612000Y-54229000D01*
X71120000Y-54229000D01*
X71120000Y-52959000D01*
X71374000Y-52959000D01*
X71559920Y-52932390D01*
X71625379Y-52833378D01*
X71628000Y-52789667D01*
X71615267Y-52709215D01*
X71555584Y-52659223D01*
X71416720Y-52632530D01*
X71166447Y-52621973D01*
X70866000Y-52620334D01*
X70503965Y-52623163D01*
G36*
X71839954Y-52674825D02*
G01*
X71799632Y-52824566D01*
X71889374Y-53048954D01*
X71929134Y-53109495D01*
X72059257Y-53263136D01*
X72140276Y-53266025D01*
X72184537Y-53111222D01*
X72197559Y-52958561D01*
X72199471Y-52741303D01*
X72153978Y-52644512D01*
X72034266Y-52620582D01*
X72007059Y-52620334D01*
X71839954Y-52674825D01*
X71839954Y-52674825D01*
G37*
X71839954Y-52674825D02*
X71799632Y-52824566D01*
X71889374Y-53048954D01*
X71929134Y-53109495D01*
X72059257Y-53263136D01*
X72140276Y-53266025D01*
X72184537Y-53111222D01*
X72197559Y-52958561D01*
X72199471Y-52741303D01*
X72153978Y-52644512D01*
X72034266Y-52620582D01*
X72007059Y-52620334D01*
X71839954Y-52674825D01*
G36*
X72898201Y-44320516D02*
G01*
X72264591Y-44569788D01*
X71689362Y-44927322D01*
X71186712Y-45380997D01*
X70770843Y-45918694D01*
X70455955Y-46528293D01*
X70256250Y-47197673D01*
X70185926Y-47914715D01*
X70259185Y-48667298D01*
X70400333Y-49199355D01*
X70501149Y-49514058D01*
X70575898Y-49774781D01*
X70610951Y-49933313D01*
X70612000Y-49948217D01*
X70577128Y-50076498D01*
X70484608Y-50311102D01*
X70352584Y-50606926D01*
X70315666Y-50684879D01*
X70135781Y-51090133D01*
X70045049Y-51385696D01*
X70040000Y-51603635D01*
X70117163Y-51776016D01*
X70188666Y-51858334D01*
X70377063Y-51977068D01*
X70642476Y-52011936D01*
X71021918Y-51967608D01*
X71035048Y-51965178D01*
X71218168Y-51910518D01*
X71493738Y-51805407D01*
X71797048Y-51674843D01*
X72078717Y-51543579D01*
X72226519Y-51459556D01*
X72261368Y-51401344D01*
X72204180Y-51347511D01*
X72147670Y-51315574D01*
X72055699Y-51259244D01*
X71912677Y-51259244D01*
X71452838Y-51473295D01*
X71090872Y-51609869D01*
X70758476Y-51678339D01*
X70492064Y-51675996D01*
X70328054Y-51600134D01*
X70302726Y-51558808D01*
X70302239Y-51382006D01*
X70375645Y-51119517D01*
X70501972Y-50825918D01*
X70660248Y-50555788D01*
X70717654Y-50478938D01*
X70908333Y-50242543D01*
X71410505Y-50750894D01*
X71912677Y-51259244D01*
X72055699Y-51259244D01*
X72044104Y-51252143D01*
X72025666Y-51194306D01*
X72110685Y-51113140D01*
X72317489Y-50979726D01*
X72388074Y-50936230D01*
X72639386Y-50767295D01*
X72759916Y-50642739D01*
X72773065Y-50536928D01*
X72767167Y-50520958D01*
X72603270Y-50097876D01*
X72514042Y-49751665D01*
X72486096Y-49414556D01*
X72495830Y-49147636D01*
X72611073Y-48483426D01*
X72661488Y-48365851D01*
X71990640Y-48365851D01*
X71978839Y-48552760D01*
X71880409Y-48727901D01*
X71687107Y-48921211D01*
X71477728Y-48962591D01*
X71233781Y-48850718D01*
X71017736Y-48666151D01*
X70806842Y-48443712D01*
X70717237Y-48280983D01*
X70739423Y-48130116D01*
X70863902Y-47943266D01*
X70872145Y-47932752D01*
X71070013Y-47754897D01*
X71280945Y-47729817D01*
X71530955Y-47857433D01*
X71623412Y-47930466D01*
X71875983Y-48170268D01*
X71990640Y-48365851D01*
X72661488Y-48365851D01*
X72854313Y-47916161D01*
X73167801Y-47520845D01*
X72617946Y-47520845D01*
X72533924Y-47679442D01*
X72430353Y-47796400D01*
X72258347Y-47954799D01*
X72124245Y-48042036D01*
X72098993Y-48047953D01*
X71998153Y-47994697D01*
X71808428Y-47853263D01*
X71565120Y-47650588D01*
X71479833Y-47575523D01*
X71235661Y-47340542D01*
X71051100Y-47130246D01*
X70956788Y-46980714D01*
X70950666Y-46952322D01*
X71004067Y-46773742D01*
X71132645Y-46574269D01*
X71288963Y-46414591D01*
X71417551Y-46355000D01*
X71541115Y-46410355D01*
X71743742Y-46554103D01*
X71986927Y-46752771D01*
X72232166Y-46972886D01*
X72440954Y-47180975D01*
X72574786Y-47343565D01*
X72594360Y-47378029D01*
X72617946Y-47520845D01*
X73167801Y-47520845D01*
X73218555Y-47456844D01*
X73696807Y-47116479D01*
X73826397Y-47054320D01*
X74177043Y-46855906D01*
X74571290Y-46561242D01*
X74631091Y-46507854D01*
X73199351Y-46507854D01*
X73182877Y-46710131D01*
X73059285Y-46919311D01*
X72876357Y-47073887D01*
X72726153Y-47117000D01*
X72603127Y-47062473D01*
X72395132Y-46916698D01*
X72138688Y-46706383D01*
X72021245Y-46601499D01*
X71771440Y-46362218D01*
X71578589Y-46157731D01*
X71471354Y-46019358D01*
X71458666Y-45986801D01*
X71519706Y-45844959D01*
X71665924Y-45666753D01*
X71841973Y-45508390D01*
X71992501Y-45426073D01*
X72013226Y-45423667D01*
X72148759Y-45481412D01*
X72358373Y-45631560D01*
X72604182Y-45839483D01*
X72848302Y-46070551D01*
X73052846Y-46290135D01*
X73179931Y-46463605D01*
X73199351Y-46507854D01*
X74631091Y-46507854D01*
X74858268Y-46305042D01*
X75137522Y-46043660D01*
X75338727Y-45882043D01*
X75500274Y-45797008D01*
X75660551Y-45765375D01*
X75757016Y-45762334D01*
X76037254Y-45808043D01*
X76294303Y-45924975D01*
X76477862Y-46082830D01*
X76538666Y-46233145D01*
X76458638Y-46329456D01*
X76236305Y-46400691D01*
X76192143Y-46408410D01*
X75940846Y-46473228D01*
X75716090Y-46595241D01*
X75496161Y-46796181D01*
X75259345Y-47097781D01*
X74983929Y-47521772D01*
X74839034Y-47762643D01*
X74617387Y-48140986D01*
X74472709Y-48404457D01*
X74394002Y-48582873D01*
X74370268Y-48706053D01*
X74390508Y-48803813D01*
X74427659Y-48877910D01*
X74550106Y-49046333D01*
X74654819Y-49128096D01*
X74769575Y-49086563D01*
X74977839Y-48930275D01*
X75264110Y-48674055D01*
X75612887Y-48332727D01*
X76008669Y-47921116D01*
X76435956Y-47454046D01*
X76606087Y-47261997D01*
X76902970Y-46925946D01*
X77109252Y-46702331D01*
X77245240Y-46575629D01*
X77331238Y-46530317D01*
X77387553Y-46550870D01*
X77434489Y-46621766D01*
X77437125Y-46626673D01*
X77489767Y-46707092D01*
X77542831Y-46716699D01*
X77613998Y-46634965D01*
X77720949Y-46441359D01*
X77881367Y-46115353D01*
X77886300Y-46105154D01*
X78099532Y-45618075D01*
X78208435Y-45245694D01*
X78210484Y-45159123D01*
X77978000Y-45159123D01*
X77942895Y-45308160D01*
X77852733Y-45538380D01*
X77730245Y-45803839D01*
X77598162Y-46058596D01*
X77479214Y-46256710D01*
X77396132Y-46352238D01*
X77386315Y-46355000D01*
X77311000Y-46288328D01*
X77174574Y-46111559D01*
X77003435Y-45859561D01*
X76961302Y-45793619D01*
X76776542Y-45491944D01*
X76694523Y-45296514D01*
X76727939Y-45170166D01*
X76889487Y-45075736D01*
X77191861Y-44976062D01*
X77246230Y-44959551D01*
X77596939Y-44892005D01*
X77841024Y-44929420D01*
X77964987Y-45068114D01*
X77978000Y-45159123D01*
X78210484Y-45159123D01*
X78214940Y-44970869D01*
X78120982Y-44776459D01*
X78043828Y-44708801D01*
X77845099Y-44611558D01*
X77607225Y-44589338D01*
X77293469Y-44644214D01*
X76877333Y-44774660D01*
X76327000Y-44967829D01*
X75732424Y-44648447D01*
X75007302Y-44343471D01*
X74283757Y-44195238D01*
X73575989Y-44191626D01*
X72898201Y-44320516D01*
X72898201Y-44320516D01*
G37*
X72898201Y-44320516D02*
X72264591Y-44569788D01*
X71689362Y-44927322D01*
X71186712Y-45380997D01*
X70770843Y-45918694D01*
X70455955Y-46528293D01*
X70256250Y-47197673D01*
X70185926Y-47914715D01*
X70259185Y-48667298D01*
X70400333Y-49199355D01*
X70501149Y-49514058D01*
X70575898Y-49774781D01*
X70610951Y-49933313D01*
X70612000Y-49948217D01*
X70577128Y-50076498D01*
X70484608Y-50311102D01*
X70352584Y-50606926D01*
X70315666Y-50684879D01*
X70135781Y-51090133D01*
X70045049Y-51385696D01*
X70040000Y-51603635D01*
X70117163Y-51776016D01*
X70188666Y-51858334D01*
X70377063Y-51977068D01*
X70642476Y-52011936D01*
X71021918Y-51967608D01*
X71035048Y-51965178D01*
X71218168Y-51910518D01*
X71493738Y-51805407D01*
X71797048Y-51674843D01*
X72078717Y-51543579D01*
X72226519Y-51459556D01*
X72261368Y-51401344D01*
X72204180Y-51347511D01*
X72147670Y-51315574D01*
X72055699Y-51259244D01*
X71912677Y-51259244D01*
X71452838Y-51473295D01*
X71090872Y-51609869D01*
X70758476Y-51678339D01*
X70492064Y-51675996D01*
X70328054Y-51600134D01*
X70302726Y-51558808D01*
X70302239Y-51382006D01*
X70375645Y-51119517D01*
X70501972Y-50825918D01*
X70660248Y-50555788D01*
X70717654Y-50478938D01*
X70908333Y-50242543D01*
X71410505Y-50750894D01*
X71912677Y-51259244D01*
X72055699Y-51259244D01*
X72044104Y-51252143D01*
X72025666Y-51194306D01*
X72110685Y-51113140D01*
X72317489Y-50979726D01*
X72388074Y-50936230D01*
X72639386Y-50767295D01*
X72759916Y-50642739D01*
X72773065Y-50536928D01*
X72767167Y-50520958D01*
X72603270Y-50097876D01*
X72514042Y-49751665D01*
X72486096Y-49414556D01*
X72495830Y-49147636D01*
X72611073Y-48483426D01*
X72661488Y-48365851D01*
X71990640Y-48365851D01*
X71978839Y-48552760D01*
X71880409Y-48727901D01*
X71687107Y-48921211D01*
X71477728Y-48962591D01*
X71233781Y-48850718D01*
X71017736Y-48666151D01*
X70806842Y-48443712D01*
X70717237Y-48280983D01*
X70739423Y-48130116D01*
X70863902Y-47943266D01*
X70872145Y-47932752D01*
X71070013Y-47754897D01*
X71280945Y-47729817D01*
X71530955Y-47857433D01*
X71623412Y-47930466D01*
X71875983Y-48170268D01*
X71990640Y-48365851D01*
X72661488Y-48365851D01*
X72854313Y-47916161D01*
X73167801Y-47520845D01*
X72617946Y-47520845D01*
X72533924Y-47679442D01*
X72430353Y-47796400D01*
X72258347Y-47954799D01*
X72124245Y-48042036D01*
X72098993Y-48047953D01*
X71998153Y-47994697D01*
X71808428Y-47853263D01*
X71565120Y-47650588D01*
X71479833Y-47575523D01*
X71235661Y-47340542D01*
X71051100Y-47130246D01*
X70956788Y-46980714D01*
X70950666Y-46952322D01*
X71004067Y-46773742D01*
X71132645Y-46574269D01*
X71288963Y-46414591D01*
X71417551Y-46355000D01*
X71541115Y-46410355D01*
X71743742Y-46554103D01*
X71986927Y-46752771D01*
X72232166Y-46972886D01*
X72440954Y-47180975D01*
X72574786Y-47343565D01*
X72594360Y-47378029D01*
X72617946Y-47520845D01*
X73167801Y-47520845D01*
X73218555Y-47456844D01*
X73696807Y-47116479D01*
X73826397Y-47054320D01*
X74177043Y-46855906D01*
X74571290Y-46561242D01*
X74631091Y-46507854D01*
X73199351Y-46507854D01*
X73182877Y-46710131D01*
X73059285Y-46919311D01*
X72876357Y-47073887D01*
X72726153Y-47117000D01*
X72603127Y-47062473D01*
X72395132Y-46916698D01*
X72138688Y-46706383D01*
X72021245Y-46601499D01*
X71771440Y-46362218D01*
X71578589Y-46157731D01*
X71471354Y-46019358D01*
X71458666Y-45986801D01*
X71519706Y-45844959D01*
X71665924Y-45666753D01*
X71841973Y-45508390D01*
X71992501Y-45426073D01*
X72013226Y-45423667D01*
X72148759Y-45481412D01*
X72358373Y-45631560D01*
X72604182Y-45839483D01*
X72848302Y-46070551D01*
X73052846Y-46290135D01*
X73179931Y-46463605D01*
X73199351Y-46507854D01*
X74631091Y-46507854D01*
X74858268Y-46305042D01*
X75137522Y-46043660D01*
X75338727Y-45882043D01*
X75500274Y-45797008D01*
X75660551Y-45765375D01*
X75757016Y-45762334D01*
X76037254Y-45808043D01*
X76294303Y-45924975D01*
X76477862Y-46082830D01*
X76538666Y-46233145D01*
X76458638Y-46329456D01*
X76236305Y-46400691D01*
X76192143Y-46408410D01*
X75940846Y-46473228D01*
X75716090Y-46595241D01*
X75496161Y-46796181D01*
X75259345Y-47097781D01*
X74983929Y-47521772D01*
X74839034Y-47762643D01*
X74617387Y-48140986D01*
X74472709Y-48404457D01*
X74394002Y-48582873D01*
X74370268Y-48706053D01*
X74390508Y-48803813D01*
X74427659Y-48877910D01*
X74550106Y-49046333D01*
X74654819Y-49128096D01*
X74769575Y-49086563D01*
X74977839Y-48930275D01*
X75264110Y-48674055D01*
X75612887Y-48332727D01*
X76008669Y-47921116D01*
X76435956Y-47454046D01*
X76606087Y-47261997D01*
X76902970Y-46925946D01*
X77109252Y-46702331D01*
X77245240Y-46575629D01*
X77331238Y-46530317D01*
X77387553Y-46550870D01*
X77434489Y-46621766D01*
X77437125Y-46626673D01*
X77489767Y-46707092D01*
X77542831Y-46716699D01*
X77613998Y-46634965D01*
X77720949Y-46441359D01*
X77881367Y-46115353D01*
X77886300Y-46105154D01*
X78099532Y-45618075D01*
X78208435Y-45245694D01*
X78210484Y-45159123D01*
X77978000Y-45159123D01*
X77942895Y-45308160D01*
X77852733Y-45538380D01*
X77730245Y-45803839D01*
X77598162Y-46058596D01*
X77479214Y-46256710D01*
X77396132Y-46352238D01*
X77386315Y-46355000D01*
X77311000Y-46288328D01*
X77174574Y-46111559D01*
X77003435Y-45859561D01*
X76961302Y-45793619D01*
X76776542Y-45491944D01*
X76694523Y-45296514D01*
X76727939Y-45170166D01*
X76889487Y-45075736D01*
X77191861Y-44976062D01*
X77246230Y-44959551D01*
X77596939Y-44892005D01*
X77841024Y-44929420D01*
X77964987Y-45068114D01*
X77978000Y-45159123D01*
X78210484Y-45159123D01*
X78214940Y-44970869D01*
X78120982Y-44776459D01*
X78043828Y-44708801D01*
X77845099Y-44611558D01*
X77607225Y-44589338D01*
X77293469Y-44644214D01*
X76877333Y-44774660D01*
X76327000Y-44967829D01*
X75732424Y-44648447D01*
X75007302Y-44343471D01*
X74283757Y-44195238D01*
X73575989Y-44191626D01*
X72898201Y-44320516D01*
G36*
X72728532Y-51204106D02*
G01*
X72388253Y-51407024D01*
X72621960Y-51514662D01*
X72836234Y-51581765D01*
X73140356Y-51640508D01*
X73363666Y-51667834D01*
X73871666Y-51713366D01*
X73702333Y-51522712D01*
X73504922Y-51330945D01*
X73300905Y-51166623D01*
X73068810Y-51001188D01*
X72728532Y-51204106D01*
X72728532Y-51204106D01*
G37*
X72728532Y-51204106D02*
X72388253Y-51407024D01*
X72621960Y-51514662D01*
X72836234Y-51581765D01*
X73140356Y-51640508D01*
X73363666Y-51667834D01*
X73871666Y-51713366D01*
X73702333Y-51522712D01*
X73504922Y-51330945D01*
X73300905Y-51166623D01*
X73068810Y-51001188D01*
X72728532Y-51204106D01*
G36*
X77439952Y-46996912D02*
G01*
X77292241Y-47127838D01*
X77150911Y-47287753D01*
X76977477Y-47488964D01*
X76716688Y-47775860D01*
X76400495Y-48113958D01*
X76060846Y-48468775D01*
X75971214Y-48560970D01*
X75663859Y-48881295D01*
X75404000Y-49162226D01*
X75212575Y-49380327D01*
X75110526Y-49512162D01*
X75099333Y-49536756D01*
X75156028Y-49627287D01*
X75309054Y-49806528D01*
X75532825Y-50045676D01*
X75719539Y-50234971D01*
X76339744Y-50851037D01*
X76687191Y-50474102D01*
X77147711Y-49855326D01*
X77455031Y-49164422D01*
X77609143Y-48401411D01*
X77622149Y-47739695D01*
X77597984Y-47408098D01*
X77566103Y-47143470D01*
X77532254Y-46989887D01*
X77521934Y-46971378D01*
X77439952Y-46996912D01*
X77439952Y-46996912D01*
G37*
X77439952Y-46996912D02*
X77292241Y-47127838D01*
X77150911Y-47287753D01*
X76977477Y-47488964D01*
X76716688Y-47775860D01*
X76400495Y-48113958D01*
X76060846Y-48468775D01*
X75971214Y-48560970D01*
X75663859Y-48881295D01*
X75404000Y-49162226D01*
X75212575Y-49380327D01*
X75110526Y-49512162D01*
X75099333Y-49536756D01*
X75156028Y-49627287D01*
X75309054Y-49806528D01*
X75532825Y-50045676D01*
X75719539Y-50234971D01*
X76339744Y-50851037D01*
X76687191Y-50474102D01*
X77147711Y-49855326D01*
X77455031Y-49164422D01*
X77609143Y-48401411D01*
X77622149Y-47739695D01*
X77597984Y-47408098D01*
X77566103Y-47143470D01*
X77532254Y-46989887D01*
X77521934Y-46971378D01*
X77439952Y-46996912D01*
M02*
