G04 #@! TF.GenerationSoftware,KiCad,Pcbnew,(5.1.4-0-10_14)*
G04 #@! TF.CreationDate,2020-02-03T15:06:25+11:00*
G04 #@! TF.ProjectId,SmartWatch+,536d6172-7457-4617-9463-682b2e6b6963,rev?*
G04 #@! TF.SameCoordinates,Original*
G04 #@! TF.FileFunction,Legend,Top*
G04 #@! TF.FilePolarity,Positive*
%FSLAX46Y46*%
G04 Gerber Fmt 4.6, Leading zero omitted, Abs format (unit mm)*
G04 Created by KiCad (PCBNEW (5.1.4-0-10_14)) date 2020-02-03 15:06:25*
%MOMM*%
%LPD*%
G04 APERTURE LIST*
%ADD10C,0.300000*%
%ADD11C,0.250000*%
%ADD12C,0.152400*%
%ADD13C,0.150000*%
G04 APERTURE END LIST*
D10*
X33719666Y-32369142D02*
X34005380Y-32464380D01*
X34100619Y-32559619D01*
X34195857Y-32750095D01*
X34195857Y-33035809D01*
X34100619Y-33226285D01*
X34005380Y-33321523D01*
X33814904Y-33416761D01*
X33053000Y-33416761D01*
X33053000Y-31416761D01*
X33719666Y-31416761D01*
X33910142Y-31512000D01*
X34005380Y-31607238D01*
X34100619Y-31797714D01*
X34100619Y-31988190D01*
X34005380Y-32178666D01*
X33910142Y-32273904D01*
X33719666Y-32369142D01*
X33053000Y-32369142D01*
X35053000Y-33416761D02*
X35053000Y-31416761D01*
X36386333Y-31416761D02*
X36767285Y-31416761D01*
X36957761Y-31512000D01*
X37148238Y-31702476D01*
X37243476Y-32083428D01*
X37243476Y-32750095D01*
X37148238Y-33131047D01*
X36957761Y-33321523D01*
X36767285Y-33416761D01*
X36386333Y-33416761D01*
X36195857Y-33321523D01*
X36005380Y-33131047D01*
X35910142Y-32750095D01*
X35910142Y-32083428D01*
X36005380Y-31702476D01*
X36195857Y-31512000D01*
X36386333Y-31416761D01*
X38005380Y-33321523D02*
X38291095Y-33416761D01*
X38767285Y-33416761D01*
X38957761Y-33321523D01*
X39053000Y-33226285D01*
X39148238Y-33035809D01*
X39148238Y-32845333D01*
X39053000Y-32654857D01*
X38957761Y-32559619D01*
X38767285Y-32464380D01*
X38386333Y-32369142D01*
X38195857Y-32273904D01*
X38100619Y-32178666D01*
X38005380Y-31988190D01*
X38005380Y-31797714D01*
X38100619Y-31607238D01*
X38195857Y-31512000D01*
X38386333Y-31416761D01*
X38862523Y-31416761D01*
X39148238Y-31512000D01*
X48767285Y-33416761D02*
X48100619Y-32464380D01*
X47624428Y-33416761D02*
X47624428Y-31416761D01*
X48386333Y-31416761D01*
X48576809Y-31512000D01*
X48672047Y-31607238D01*
X48767285Y-31797714D01*
X48767285Y-32083428D01*
X48672047Y-32273904D01*
X48576809Y-32369142D01*
X48386333Y-32464380D01*
X47624428Y-32464380D01*
X50005380Y-31416761D02*
X50386333Y-31416761D01*
X50576809Y-31512000D01*
X50767285Y-31702476D01*
X50862523Y-32083428D01*
X50862523Y-32750095D01*
X50767285Y-33131047D01*
X50576809Y-33321523D01*
X50386333Y-33416761D01*
X50005380Y-33416761D01*
X49814904Y-33321523D01*
X49624428Y-33131047D01*
X49529190Y-32750095D01*
X49529190Y-32083428D01*
X49624428Y-31702476D01*
X49814904Y-31512000D01*
X50005380Y-31416761D01*
X51719666Y-33416761D02*
X51719666Y-31416761D01*
X52386333Y-32845333D01*
X53053000Y-31416761D01*
X53053000Y-33416761D01*
D11*
X24567300Y-24862000D02*
X61767300Y-24862000D01*
X61767300Y-37662000D02*
X61767300Y-24862000D01*
X24567300Y-37662000D02*
X61767300Y-37662000D01*
X24567300Y-37662000D02*
X24567300Y-32062000D01*
X24567300Y-24862000D02*
X24567300Y-30462000D01*
X24567300Y-30462000D02*
G75*
G02X24567300Y-32062000I-372J-800000D01*
G01*
D12*
X83312000Y-32385000D02*
X63500000Y-32385000D01*
X63436500Y-32385000D02*
X63436500Y-34417000D01*
X63500000Y-37719000D02*
X83312000Y-37719000D01*
X83375500Y-37719000D02*
X83375500Y-32385000D01*
X63500000Y-35687000D02*
G75*
G03X63500000Y-34417000I0J635000D01*
G01*
X63436500Y-35687000D02*
X63436500Y-37719000D01*
D11*
X66421000Y-27051000D02*
X66421000Y-25273000D01*
X66421000Y-27178000D02*
X66421000Y-27051000D01*
X66421000Y-25146000D02*
X71882000Y-25146000D01*
X66421000Y-25146000D02*
X66421000Y-25273000D01*
X66040000Y-25273000D02*
X66421000Y-25273000D01*
X66421000Y-27178000D02*
X71882000Y-27178000D01*
X66040000Y-27051000D02*
X66421000Y-27051000D01*
X72136000Y-25400000D02*
X72136000Y-26924000D01*
X71881999Y-25146000D02*
G75*
G02X72136000Y-25400000I163J-253838D01*
G01*
X72136000Y-26923999D02*
G75*
G02X71882000Y-27178000I-253838J-163D01*
G01*
X66040000Y-25273000D02*
X66040000Y-27051000D01*
X67697000Y-46572000D02*
G75*
G02X67697000Y-54774000I8581062J-4101000D01*
G01*
X62357000Y-53674000D02*
X67657000Y-54774000D01*
X62357000Y-47672000D02*
X67657000Y-46572000D01*
X62357000Y-47672000D02*
X62357000Y-53674000D01*
D13*
X68667857Y-35758380D02*
X68667857Y-34758380D01*
X68905952Y-34758380D01*
X69048809Y-34806000D01*
X69144047Y-34901238D01*
X69191666Y-34996476D01*
X69239285Y-35186952D01*
X69239285Y-35329809D01*
X69191666Y-35520285D01*
X69144047Y-35615523D01*
X69048809Y-35710761D01*
X68905952Y-35758380D01*
X68667857Y-35758380D01*
X69620238Y-35710761D02*
X69763095Y-35758380D01*
X70001190Y-35758380D01*
X70096428Y-35710761D01*
X70144047Y-35663142D01*
X70191666Y-35567904D01*
X70191666Y-35472666D01*
X70144047Y-35377428D01*
X70096428Y-35329809D01*
X70001190Y-35282190D01*
X69810714Y-35234571D01*
X69715476Y-35186952D01*
X69667857Y-35139333D01*
X69620238Y-35044095D01*
X69620238Y-34948857D01*
X69667857Y-34853619D01*
X69715476Y-34806000D01*
X69810714Y-34758380D01*
X70048809Y-34758380D01*
X70191666Y-34806000D01*
X71144047Y-35758380D02*
X70572619Y-35758380D01*
X70858333Y-35758380D02*
X70858333Y-34758380D01*
X70763095Y-34901238D01*
X70667857Y-34996476D01*
X70572619Y-35044095D01*
X71477380Y-34758380D02*
X72096428Y-34758380D01*
X71763095Y-35139333D01*
X71905952Y-35139333D01*
X72001190Y-35186952D01*
X72048809Y-35234571D01*
X72096428Y-35329809D01*
X72096428Y-35567904D01*
X72048809Y-35663142D01*
X72001190Y-35710761D01*
X71905952Y-35758380D01*
X71620238Y-35758380D01*
X71525000Y-35710761D01*
X71477380Y-35663142D01*
X73048809Y-35758380D02*
X72477380Y-35758380D01*
X72763095Y-35758380D02*
X72763095Y-34758380D01*
X72667857Y-34901238D01*
X72572619Y-34996476D01*
X72477380Y-35044095D01*
X73953571Y-34758380D02*
X73477380Y-34758380D01*
X73429761Y-35234571D01*
X73477380Y-35186952D01*
X73572619Y-35139333D01*
X73810714Y-35139333D01*
X73905952Y-35186952D01*
X73953571Y-35234571D01*
X74001190Y-35329809D01*
X74001190Y-35567904D01*
X73953571Y-35663142D01*
X73905952Y-35710761D01*
X73810714Y-35758380D01*
X73572619Y-35758380D01*
X73477380Y-35710761D01*
X73429761Y-35663142D01*
X74429761Y-35377428D02*
X75191666Y-35377428D01*
X76144047Y-34758380D02*
X75667857Y-34758380D01*
X75620238Y-35234571D01*
X75667857Y-35186952D01*
X75763095Y-35139333D01*
X76001190Y-35139333D01*
X76096428Y-35186952D01*
X76144047Y-35234571D01*
X76191666Y-35329809D01*
X76191666Y-35567904D01*
X76144047Y-35663142D01*
X76096428Y-35710761D01*
X76001190Y-35758380D01*
X75763095Y-35758380D01*
X75667857Y-35710761D01*
X75620238Y-35663142D01*
X76620238Y-35377428D02*
X77382142Y-35377428D01*
X77001190Y-35758380D02*
X77001190Y-34996476D01*
X62109047Y-58238571D02*
X62048571Y-58299047D01*
X61867142Y-58359523D01*
X61746190Y-58359523D01*
X61564761Y-58299047D01*
X61443809Y-58178095D01*
X61383333Y-58057142D01*
X61322857Y-57815238D01*
X61322857Y-57633809D01*
X61383333Y-57391904D01*
X61443809Y-57270952D01*
X61564761Y-57150000D01*
X61746190Y-57089523D01*
X61867142Y-57089523D01*
X62048571Y-57150000D01*
X62109047Y-57210476D01*
X63379047Y-58359523D02*
X62955714Y-57754761D01*
X62653333Y-58359523D02*
X62653333Y-57089523D01*
X63137142Y-57089523D01*
X63258095Y-57150000D01*
X63318571Y-57210476D01*
X63379047Y-57331428D01*
X63379047Y-57512857D01*
X63318571Y-57633809D01*
X63258095Y-57694285D01*
X63137142Y-57754761D01*
X62653333Y-57754761D01*
X64588571Y-58359523D02*
X63862857Y-58359523D01*
X64225714Y-58359523D02*
X64225714Y-57089523D01*
X64104761Y-57270952D01*
X63983809Y-57391904D01*
X63862857Y-57452380D01*
X65677142Y-57089523D02*
X65435238Y-57089523D01*
X65314285Y-57150000D01*
X65253809Y-57210476D01*
X65132857Y-57391904D01*
X65072380Y-57633809D01*
X65072380Y-58117619D01*
X65132857Y-58238571D01*
X65193333Y-58299047D01*
X65314285Y-58359523D01*
X65556190Y-58359523D01*
X65677142Y-58299047D01*
X65737619Y-58238571D01*
X65798095Y-58117619D01*
X65798095Y-57815238D01*
X65737619Y-57694285D01*
X65677142Y-57633809D01*
X65556190Y-57573333D01*
X65314285Y-57573333D01*
X65193333Y-57633809D01*
X65132857Y-57694285D01*
X65072380Y-57815238D01*
X66221428Y-57089523D02*
X67007619Y-57089523D01*
X66584285Y-57573333D01*
X66765714Y-57573333D01*
X66886666Y-57633809D01*
X66947142Y-57694285D01*
X67007619Y-57815238D01*
X67007619Y-58117619D01*
X66947142Y-58238571D01*
X66886666Y-58299047D01*
X66765714Y-58359523D01*
X66402857Y-58359523D01*
X66281904Y-58299047D01*
X66221428Y-58238571D01*
X67491428Y-57210476D02*
X67551904Y-57150000D01*
X67672857Y-57089523D01*
X67975238Y-57089523D01*
X68096190Y-57150000D01*
X68156666Y-57210476D01*
X68217142Y-57331428D01*
X68217142Y-57452380D01*
X68156666Y-57633809D01*
X67430952Y-58359523D01*
X68217142Y-58359523D01*
M02*
