G04 #@! TF.GenerationSoftware,KiCad,Pcbnew,(5.1.4-0-10_14)*
G04 #@! TF.CreationDate,2020-02-03T15:06:25+11:00*
G04 #@! TF.ProjectId,SmartWatch+,536d6172-7457-4617-9463-682b2e6b6963,rev?*
G04 #@! TF.SameCoordinates,Original*
G04 #@! TF.FileFunction,Copper,L2,Bot*
G04 #@! TF.FilePolarity,Positive*
%FSLAX46Y46*%
G04 Gerber Fmt 4.6, Leading zero omitted, Abs format (unit mm)*
G04 Created by KiCad (PCBNEW (5.1.4-0-10_14)) date 2020-02-03 15:06:25*
%MOMM*%
%LPD*%
G04 APERTURE LIST*
%ADD10R,1.500000X1.500000*%
%ADD11C,1.500000*%
%ADD12R,1.524000X1.524000*%
%ADD13C,1.524000*%
%ADD14C,1.200000*%
%ADD15C,1.800000*%
%ADD16R,1.800000X1.800000*%
%ADD17C,0.250000*%
%ADD18C,0.254000*%
G04 APERTURE END LIST*
D10*
X24130000Y-43434000D03*
D11*
X26670000Y-43434000D03*
X29210000Y-43434000D03*
X31750000Y-43434000D03*
X34290000Y-43434000D03*
X36830000Y-43434000D03*
X39370000Y-43434000D03*
X41910000Y-43434000D03*
X44450000Y-43434000D03*
X46990000Y-43434000D03*
X49530000Y-43434000D03*
X52070000Y-43434000D03*
X54610000Y-43434000D03*
X57150000Y-43434000D03*
X57150000Y-58674000D03*
X54610000Y-58674000D03*
X52070000Y-58674000D03*
X49530000Y-58674000D03*
X46990000Y-58674000D03*
X44450000Y-58674000D03*
X41910000Y-58674000D03*
X39370000Y-58674000D03*
X36830000Y-58674000D03*
X34290000Y-58674000D03*
X31750000Y-58674000D03*
X29210000Y-58674000D03*
X26670000Y-58674000D03*
X24130000Y-58674000D03*
D10*
X26657300Y-38862000D03*
D11*
X29197300Y-38862000D03*
X31737300Y-38862000D03*
X34277300Y-38862000D03*
X36817300Y-38862000D03*
X39357300Y-38862000D03*
X41897300Y-38862000D03*
X44437300Y-38862000D03*
X46977300Y-38862000D03*
X49517300Y-38862000D03*
X52057300Y-38862000D03*
X54597300Y-38862000D03*
X57137300Y-38862000D03*
X59677300Y-38862000D03*
X59677300Y-23622000D03*
X57137300Y-23622000D03*
X54597300Y-23622000D03*
X52057300Y-23622000D03*
X49517300Y-23622000D03*
X46977300Y-23622000D03*
X44437300Y-23622000D03*
X41897300Y-23622000D03*
X39357300Y-23622000D03*
X36817300Y-23622000D03*
X34277300Y-23622000D03*
X31737300Y-23622000D03*
X29197300Y-23622000D03*
X26657300Y-23622000D03*
D12*
X64516000Y-38862000D03*
D13*
X67056000Y-38862000D03*
X69596000Y-38862000D03*
X72136000Y-38862000D03*
X74676000Y-38862000D03*
X77216000Y-38862000D03*
X79756000Y-38862000D03*
X82296000Y-38862000D03*
X82296000Y-31242000D03*
X79756000Y-31242000D03*
X77216000Y-31242000D03*
X74676000Y-31242000D03*
X72136000Y-31242000D03*
X69596000Y-31242000D03*
X67056000Y-31242000D03*
X64516000Y-31242000D03*
D14*
X64389000Y-27432000D03*
X64389000Y-24892000D03*
D15*
X82117000Y-50673000D03*
D16*
X65457000Y-50673000D03*
D17*
X62357000Y-30480000D02*
X62357000Y-35691000D01*
X64516000Y-37850000D02*
X64516000Y-38862000D01*
X62357000Y-35691000D02*
X64516000Y-37850000D01*
X64389000Y-28448000D02*
X62357000Y-30480000D01*
X64389000Y-27715408D02*
X64389000Y-28448000D01*
X64247296Y-27573704D02*
X64389000Y-27715408D01*
X67056000Y-38862000D02*
X65968999Y-37774999D01*
X62865000Y-34671000D02*
X67056000Y-38862000D01*
X65405000Y-28068410D02*
X62865000Y-30608410D01*
X65405000Y-26162000D02*
X65405000Y-28068410D01*
X64389000Y-25146000D02*
X65405000Y-26162000D01*
X62865000Y-30608410D02*
X62865000Y-34671000D01*
X64389000Y-24892000D02*
X64389000Y-25146000D01*
X69596000Y-33782000D02*
X74676000Y-38862000D01*
X69596000Y-31242000D02*
X69596000Y-33782000D01*
X72136000Y-40640000D02*
X72136000Y-38862000D01*
X65457000Y-47319000D02*
X72136000Y-40640000D01*
X65457000Y-50673000D02*
X65457000Y-47319000D01*
X68508999Y-29789001D02*
X67056000Y-31242000D01*
X69215000Y-29083000D02*
X68508999Y-29789001D01*
X80137000Y-29083000D02*
X69215000Y-29083000D01*
X82296000Y-31242000D02*
X80137000Y-29083000D01*
X57899999Y-57924001D02*
X57150000Y-58674000D01*
X58420000Y-57404000D02*
X57899999Y-57924001D01*
X58420000Y-24879300D02*
X58420000Y-57404000D01*
X59677300Y-23622000D02*
X58420000Y-24879300D01*
X55359999Y-57924001D02*
X54610000Y-58674000D01*
X55880000Y-57404000D02*
X55359999Y-57924001D01*
X55880000Y-24879300D02*
X55880000Y-57404000D01*
X57137300Y-23622000D02*
X55880000Y-24879300D01*
X52819999Y-57924001D02*
X52070000Y-58674000D01*
X53340000Y-57404000D02*
X52819999Y-57924001D01*
X53340000Y-24879300D02*
X53340000Y-57404000D01*
X54597300Y-23622000D02*
X53340000Y-24879300D01*
X50279999Y-57924001D02*
X49530000Y-58674000D01*
X50800000Y-24879300D02*
X50800000Y-57404000D01*
X50800000Y-57404000D02*
X50279999Y-57924001D01*
X52057300Y-23622000D02*
X50800000Y-24879300D01*
X47739999Y-57924001D02*
X46990000Y-58674000D01*
X48260000Y-57404000D02*
X47739999Y-57924001D01*
X48260000Y-24879300D02*
X48260000Y-57404000D01*
X49517300Y-23622000D02*
X48260000Y-24879300D01*
X45199999Y-57924001D02*
X44450000Y-58674000D01*
X45720000Y-57404000D02*
X45199999Y-57924001D01*
X45720000Y-24879300D02*
X45720000Y-57404000D01*
X46977300Y-23622000D02*
X45720000Y-24879300D01*
X43180000Y-57404000D02*
X42659999Y-57924001D01*
X42659999Y-57924001D02*
X41910000Y-58674000D01*
X43180000Y-24879300D02*
X43180000Y-57404000D01*
X44437300Y-23622000D02*
X43180000Y-24879300D01*
X40119999Y-57924001D02*
X39370000Y-58674000D01*
X40640000Y-57404000D02*
X40119999Y-57924001D01*
X40640000Y-24879300D02*
X40640000Y-57404000D01*
X41897300Y-23622000D02*
X40640000Y-24879300D01*
X37579999Y-57924001D02*
X36830000Y-58674000D01*
X38100000Y-57404000D02*
X37579999Y-57924001D01*
X38100000Y-24879300D02*
X38100000Y-57404000D01*
X39357300Y-23622000D02*
X38100000Y-24879300D01*
X35039999Y-57924001D02*
X34290000Y-58674000D01*
X35560000Y-57404000D02*
X35039999Y-57924001D01*
X35560000Y-24879300D02*
X35560000Y-57404000D01*
X36817300Y-23622000D02*
X35560000Y-24879300D01*
X33020000Y-24879300D02*
X33020000Y-57404000D01*
X32499999Y-57924001D02*
X31750000Y-58674000D01*
X33020000Y-57404000D02*
X32499999Y-57924001D01*
X34277300Y-23622000D02*
X33020000Y-24879300D01*
X29959999Y-57924001D02*
X29210000Y-58674000D01*
X30480000Y-24879300D02*
X30480000Y-57404000D01*
X30480000Y-57404000D02*
X29959999Y-57924001D01*
X31737300Y-23622000D02*
X30480000Y-24879300D01*
X27419999Y-57924001D02*
X26670000Y-58674000D01*
X27940000Y-57404000D02*
X27419999Y-57924001D01*
X27940000Y-24879300D02*
X27940000Y-57404000D01*
X29197300Y-23622000D02*
X27940000Y-24879300D01*
X24879999Y-57924001D02*
X24130000Y-58674000D01*
X25400000Y-25939960D02*
X25400000Y-57404000D01*
X26657300Y-24682660D02*
X25400000Y-25939960D01*
X25400000Y-57404000D02*
X24879999Y-57924001D01*
X26657300Y-23622000D02*
X26657300Y-24682660D01*
D18*
G36*
X25581501Y-22739114D02*
G01*
X25429929Y-22965957D01*
X25325525Y-23218011D01*
X25272300Y-23485589D01*
X25272300Y-23758411D01*
X25325525Y-24025989D01*
X25429929Y-24278043D01*
X25581501Y-24504886D01*
X25670887Y-24594272D01*
X24889003Y-25376156D01*
X24859999Y-25399959D01*
X24821938Y-25446337D01*
X24765026Y-25515684D01*
X24758964Y-25527026D01*
X24694454Y-25647714D01*
X24650997Y-25790975D01*
X24640000Y-25902628D01*
X24640000Y-25902638D01*
X24636324Y-25939960D01*
X24640000Y-25977282D01*
X24640001Y-42045928D01*
X23380000Y-42045928D01*
X23255518Y-42058188D01*
X23135820Y-42094498D01*
X23025506Y-42153463D01*
X22928815Y-42232815D01*
X22849463Y-42329506D01*
X22790498Y-42439820D01*
X22754188Y-42559518D01*
X22741928Y-42684000D01*
X22741928Y-44184000D01*
X22754188Y-44308482D01*
X22790498Y-44428180D01*
X22849463Y-44538494D01*
X22928815Y-44635185D01*
X23025506Y-44714537D01*
X23135820Y-44773502D01*
X23255518Y-44809812D01*
X23380000Y-44822072D01*
X24640001Y-44822072D01*
X24640001Y-57089197D01*
X24411365Y-57317833D01*
X24266411Y-57289000D01*
X23993589Y-57289000D01*
X23726011Y-57342225D01*
X23473957Y-57446629D01*
X23247114Y-57598201D01*
X23054201Y-57791114D01*
X22902629Y-58017957D01*
X22798225Y-58270011D01*
X22745000Y-58537589D01*
X22745000Y-58810411D01*
X22798225Y-59077989D01*
X22902629Y-59330043D01*
X23054201Y-59556886D01*
X23247114Y-59749799D01*
X23473957Y-59901371D01*
X23726011Y-60005775D01*
X23993589Y-60059000D01*
X24266411Y-60059000D01*
X24533989Y-60005775D01*
X24786043Y-59901371D01*
X25012886Y-59749799D01*
X25205799Y-59556886D01*
X25357371Y-59330043D01*
X25400000Y-59227127D01*
X25442629Y-59330043D01*
X25594201Y-59556886D01*
X25787114Y-59749799D01*
X26013957Y-59901371D01*
X26266011Y-60005775D01*
X26533589Y-60059000D01*
X26806411Y-60059000D01*
X27073989Y-60005775D01*
X27326043Y-59901371D01*
X27552886Y-59749799D01*
X27745799Y-59556886D01*
X27897371Y-59330043D01*
X27940000Y-59227127D01*
X27982629Y-59330043D01*
X28134201Y-59556886D01*
X28327114Y-59749799D01*
X28553957Y-59901371D01*
X28806011Y-60005775D01*
X29073589Y-60059000D01*
X29346411Y-60059000D01*
X29613989Y-60005775D01*
X29866043Y-59901371D01*
X30092886Y-59749799D01*
X30285799Y-59556886D01*
X30437371Y-59330043D01*
X30480000Y-59227127D01*
X30522629Y-59330043D01*
X30674201Y-59556886D01*
X30867114Y-59749799D01*
X31093957Y-59901371D01*
X31346011Y-60005775D01*
X31613589Y-60059000D01*
X31886411Y-60059000D01*
X32153989Y-60005775D01*
X32406043Y-59901371D01*
X32632886Y-59749799D01*
X32825799Y-59556886D01*
X32977371Y-59330043D01*
X33020000Y-59227127D01*
X33062629Y-59330043D01*
X33214201Y-59556886D01*
X33407114Y-59749799D01*
X33633957Y-59901371D01*
X33886011Y-60005775D01*
X34153589Y-60059000D01*
X34426411Y-60059000D01*
X34693989Y-60005775D01*
X34946043Y-59901371D01*
X35172886Y-59749799D01*
X35365799Y-59556886D01*
X35517371Y-59330043D01*
X35560000Y-59227127D01*
X35602629Y-59330043D01*
X35754201Y-59556886D01*
X35947114Y-59749799D01*
X36173957Y-59901371D01*
X36426011Y-60005775D01*
X36693589Y-60059000D01*
X36966411Y-60059000D01*
X37233989Y-60005775D01*
X37486043Y-59901371D01*
X37712886Y-59749799D01*
X37905799Y-59556886D01*
X38057371Y-59330043D01*
X38100000Y-59227127D01*
X38142629Y-59330043D01*
X38294201Y-59556886D01*
X38487114Y-59749799D01*
X38713957Y-59901371D01*
X38966011Y-60005775D01*
X39233589Y-60059000D01*
X39506411Y-60059000D01*
X39773989Y-60005775D01*
X40026043Y-59901371D01*
X40252886Y-59749799D01*
X40445799Y-59556886D01*
X40597371Y-59330043D01*
X40640000Y-59227127D01*
X40682629Y-59330043D01*
X40834201Y-59556886D01*
X41027114Y-59749799D01*
X41253957Y-59901371D01*
X41506011Y-60005775D01*
X41773589Y-60059000D01*
X42046411Y-60059000D01*
X42313989Y-60005775D01*
X42566043Y-59901371D01*
X42792886Y-59749799D01*
X42985799Y-59556886D01*
X43137371Y-59330043D01*
X43180000Y-59227127D01*
X43222629Y-59330043D01*
X43374201Y-59556886D01*
X43567114Y-59749799D01*
X43793957Y-59901371D01*
X44046011Y-60005775D01*
X44313589Y-60059000D01*
X44586411Y-60059000D01*
X44853989Y-60005775D01*
X45106043Y-59901371D01*
X45332886Y-59749799D01*
X45525799Y-59556886D01*
X45677371Y-59330043D01*
X45720000Y-59227127D01*
X45762629Y-59330043D01*
X45914201Y-59556886D01*
X46107114Y-59749799D01*
X46333957Y-59901371D01*
X46586011Y-60005775D01*
X46853589Y-60059000D01*
X47126411Y-60059000D01*
X47393989Y-60005775D01*
X47646043Y-59901371D01*
X47872886Y-59749799D01*
X48065799Y-59556886D01*
X48217371Y-59330043D01*
X48260000Y-59227127D01*
X48302629Y-59330043D01*
X48454201Y-59556886D01*
X48647114Y-59749799D01*
X48873957Y-59901371D01*
X49126011Y-60005775D01*
X49393589Y-60059000D01*
X49666411Y-60059000D01*
X49933989Y-60005775D01*
X50186043Y-59901371D01*
X50412886Y-59749799D01*
X50605799Y-59556886D01*
X50757371Y-59330043D01*
X50800000Y-59227127D01*
X50842629Y-59330043D01*
X50994201Y-59556886D01*
X51187114Y-59749799D01*
X51413957Y-59901371D01*
X51666011Y-60005775D01*
X51933589Y-60059000D01*
X52206411Y-60059000D01*
X52473989Y-60005775D01*
X52726043Y-59901371D01*
X52952886Y-59749799D01*
X53145799Y-59556886D01*
X53297371Y-59330043D01*
X53340000Y-59227127D01*
X53382629Y-59330043D01*
X53534201Y-59556886D01*
X53727114Y-59749799D01*
X53953957Y-59901371D01*
X54206011Y-60005775D01*
X54473589Y-60059000D01*
X54746411Y-60059000D01*
X55013989Y-60005775D01*
X55266043Y-59901371D01*
X55492886Y-59749799D01*
X55685799Y-59556886D01*
X55837371Y-59330043D01*
X55880000Y-59227127D01*
X55922629Y-59330043D01*
X56074201Y-59556886D01*
X56267114Y-59749799D01*
X56493957Y-59901371D01*
X56746011Y-60005775D01*
X57013589Y-60059000D01*
X57286411Y-60059000D01*
X57553989Y-60005775D01*
X57806043Y-59901371D01*
X58032886Y-59749799D01*
X58225799Y-59556886D01*
X58377371Y-59330043D01*
X58481775Y-59077989D01*
X58535000Y-58810411D01*
X58535000Y-58537589D01*
X58506167Y-58392635D01*
X58931007Y-57967795D01*
X58960001Y-57944001D01*
X58983795Y-57915008D01*
X58983799Y-57915004D01*
X59054973Y-57828277D01*
X59054974Y-57828276D01*
X59125546Y-57696247D01*
X59169003Y-57552986D01*
X59180000Y-57441333D01*
X59180000Y-57441324D01*
X59183676Y-57404001D01*
X59180000Y-57366678D01*
X59180000Y-40158548D01*
X59212416Y-40173760D01*
X59477260Y-40239250D01*
X59749792Y-40251812D01*
X60019538Y-40210965D01*
X60276132Y-40118277D01*
X60389163Y-40057860D01*
X60454688Y-39818993D01*
X59677300Y-39041605D01*
X59663158Y-39055748D01*
X59483553Y-38876143D01*
X59497695Y-38862000D01*
X59856905Y-38862000D01*
X60634293Y-39639388D01*
X60873160Y-39573863D01*
X60989060Y-39326884D01*
X61054550Y-39062040D01*
X61067112Y-38789508D01*
X61026265Y-38519762D01*
X60933577Y-38263168D01*
X60873160Y-38150137D01*
X60634293Y-38084612D01*
X59856905Y-38862000D01*
X59497695Y-38862000D01*
X59483553Y-38847858D01*
X59663158Y-38668253D01*
X59677300Y-38682395D01*
X60454688Y-37905007D01*
X60389163Y-37666140D01*
X60142184Y-37550240D01*
X59877340Y-37484750D01*
X59604808Y-37472188D01*
X59335062Y-37513035D01*
X59180000Y-37569047D01*
X59180000Y-30480000D01*
X61593324Y-30480000D01*
X61597000Y-30517323D01*
X61597001Y-35653668D01*
X61593324Y-35691000D01*
X61607998Y-35839985D01*
X61651454Y-35983246D01*
X61722026Y-36115276D01*
X61793201Y-36202002D01*
X61817000Y-36231001D01*
X61845998Y-36254799D01*
X63274507Y-37683309D01*
X63223463Y-37745506D01*
X63164498Y-37855820D01*
X63128188Y-37975518D01*
X63115928Y-38100000D01*
X63115928Y-39624000D01*
X63128188Y-39748482D01*
X63164498Y-39868180D01*
X63223463Y-39978494D01*
X63302815Y-40075185D01*
X63399506Y-40154537D01*
X63509820Y-40213502D01*
X63629518Y-40249812D01*
X63754000Y-40262072D01*
X65278000Y-40262072D01*
X65402482Y-40249812D01*
X65522180Y-40213502D01*
X65632494Y-40154537D01*
X65729185Y-40075185D01*
X65808537Y-39978494D01*
X65867502Y-39868180D01*
X65903812Y-39748482D01*
X65912080Y-39664535D01*
X65970880Y-39752535D01*
X66165465Y-39947120D01*
X66394273Y-40100005D01*
X66648510Y-40205314D01*
X66918408Y-40259000D01*
X67193592Y-40259000D01*
X67463490Y-40205314D01*
X67717727Y-40100005D01*
X67946535Y-39947120D01*
X68141120Y-39752535D01*
X68294005Y-39523727D01*
X68326000Y-39446485D01*
X68357995Y-39523727D01*
X68510880Y-39752535D01*
X68705465Y-39947120D01*
X68934273Y-40100005D01*
X69188510Y-40205314D01*
X69458408Y-40259000D01*
X69733592Y-40259000D01*
X70003490Y-40205314D01*
X70257727Y-40100005D01*
X70486535Y-39947120D01*
X70681120Y-39752535D01*
X70834005Y-39523727D01*
X70866000Y-39446485D01*
X70897995Y-39523727D01*
X71050880Y-39752535D01*
X71245465Y-39947120D01*
X71376000Y-40034341D01*
X71376000Y-40325197D01*
X64945998Y-46755201D01*
X64917000Y-46778999D01*
X64893202Y-46807997D01*
X64893201Y-46807998D01*
X64822026Y-46894724D01*
X64751454Y-47026754D01*
X64707998Y-47170015D01*
X64693324Y-47319000D01*
X64697001Y-47356332D01*
X64697000Y-49134928D01*
X64557000Y-49134928D01*
X64432518Y-49147188D01*
X64312820Y-49183498D01*
X64202506Y-49242463D01*
X64105815Y-49321815D01*
X64026463Y-49418506D01*
X63967498Y-49528820D01*
X63931188Y-49648518D01*
X63918928Y-49773000D01*
X63918928Y-51573000D01*
X63931188Y-51697482D01*
X63967498Y-51817180D01*
X64026463Y-51927494D01*
X64105815Y-52024185D01*
X64202506Y-52103537D01*
X64312820Y-52162502D01*
X64432518Y-52198812D01*
X64557000Y-52211072D01*
X66357000Y-52211072D01*
X66481482Y-52198812D01*
X66601180Y-52162502D01*
X66711494Y-52103537D01*
X66808185Y-52024185D01*
X66887537Y-51927494D01*
X66946502Y-51817180D01*
X66982812Y-51697482D01*
X66995072Y-51573000D01*
X66995072Y-49773000D01*
X66982812Y-49648518D01*
X66946502Y-49528820D01*
X66887537Y-49418506D01*
X66808185Y-49321815D01*
X66711494Y-49242463D01*
X66601180Y-49183498D01*
X66481482Y-49147188D01*
X66357000Y-49134928D01*
X66217000Y-49134928D01*
X66217000Y-47633801D01*
X72647009Y-41203794D01*
X72676001Y-41180001D01*
X72699795Y-41151008D01*
X72699799Y-41151004D01*
X72770973Y-41064277D01*
X72770974Y-41064276D01*
X72841546Y-40932247D01*
X72885003Y-40788986D01*
X72896000Y-40677333D01*
X72896000Y-40677324D01*
X72899676Y-40640001D01*
X72896000Y-40602678D01*
X72896000Y-40034341D01*
X73026535Y-39947120D01*
X73146090Y-39827565D01*
X73890040Y-39827565D01*
X73957020Y-40067656D01*
X74206048Y-40184756D01*
X74473135Y-40251023D01*
X74748017Y-40263910D01*
X75020133Y-40222922D01*
X75279023Y-40129636D01*
X75394980Y-40067656D01*
X75461960Y-39827565D01*
X74676000Y-39041605D01*
X73890040Y-39827565D01*
X73146090Y-39827565D01*
X73221120Y-39752535D01*
X73374005Y-39523727D01*
X73403692Y-39452057D01*
X73408364Y-39465023D01*
X73470344Y-39580980D01*
X73710435Y-39647960D01*
X74496395Y-38862000D01*
X74855605Y-38862000D01*
X75641565Y-39647960D01*
X75881656Y-39580980D01*
X75945485Y-39445240D01*
X75977995Y-39523727D01*
X76130880Y-39752535D01*
X76325465Y-39947120D01*
X76554273Y-40100005D01*
X76808510Y-40205314D01*
X77078408Y-40259000D01*
X77353592Y-40259000D01*
X77623490Y-40205314D01*
X77877727Y-40100005D01*
X78106535Y-39947120D01*
X78301120Y-39752535D01*
X78454005Y-39523727D01*
X78486000Y-39446485D01*
X78517995Y-39523727D01*
X78670880Y-39752535D01*
X78865465Y-39947120D01*
X79094273Y-40100005D01*
X79348510Y-40205314D01*
X79618408Y-40259000D01*
X79893592Y-40259000D01*
X80163490Y-40205314D01*
X80417727Y-40100005D01*
X80646535Y-39947120D01*
X80766090Y-39827565D01*
X81510040Y-39827565D01*
X81577020Y-40067656D01*
X81826048Y-40184756D01*
X82093135Y-40251023D01*
X82368017Y-40263910D01*
X82640133Y-40222922D01*
X82899023Y-40129636D01*
X83014980Y-40067656D01*
X83081960Y-39827565D01*
X82296000Y-39041605D01*
X81510040Y-39827565D01*
X80766090Y-39827565D01*
X80841120Y-39752535D01*
X80994005Y-39523727D01*
X81023692Y-39452057D01*
X81028364Y-39465023D01*
X81090344Y-39580980D01*
X81330435Y-39647960D01*
X82116395Y-38862000D01*
X82475605Y-38862000D01*
X83261565Y-39647960D01*
X83501656Y-39580980D01*
X83618756Y-39331952D01*
X83685023Y-39064865D01*
X83697910Y-38789983D01*
X83656922Y-38517867D01*
X83563636Y-38258977D01*
X83501656Y-38143020D01*
X83261565Y-38076040D01*
X82475605Y-38862000D01*
X82116395Y-38862000D01*
X81330435Y-38076040D01*
X81090344Y-38143020D01*
X81026515Y-38278760D01*
X80994005Y-38200273D01*
X80841120Y-37971465D01*
X80766090Y-37896435D01*
X81510040Y-37896435D01*
X82296000Y-38682395D01*
X83081960Y-37896435D01*
X83014980Y-37656344D01*
X82765952Y-37539244D01*
X82498865Y-37472977D01*
X82223983Y-37460090D01*
X81951867Y-37501078D01*
X81692977Y-37594364D01*
X81577020Y-37656344D01*
X81510040Y-37896435D01*
X80766090Y-37896435D01*
X80646535Y-37776880D01*
X80417727Y-37623995D01*
X80163490Y-37518686D01*
X79893592Y-37465000D01*
X79618408Y-37465000D01*
X79348510Y-37518686D01*
X79094273Y-37623995D01*
X78865465Y-37776880D01*
X78670880Y-37971465D01*
X78517995Y-38200273D01*
X78486000Y-38277515D01*
X78454005Y-38200273D01*
X78301120Y-37971465D01*
X78106535Y-37776880D01*
X77877727Y-37623995D01*
X77623490Y-37518686D01*
X77353592Y-37465000D01*
X77078408Y-37465000D01*
X76808510Y-37518686D01*
X76554273Y-37623995D01*
X76325465Y-37776880D01*
X76130880Y-37971465D01*
X75977995Y-38200273D01*
X75948308Y-38271943D01*
X75943636Y-38258977D01*
X75881656Y-38143020D01*
X75641565Y-38076040D01*
X74855605Y-38862000D01*
X74496395Y-38862000D01*
X73710435Y-38076040D01*
X73470344Y-38143020D01*
X73406515Y-38278760D01*
X73374005Y-38200273D01*
X73221120Y-37971465D01*
X73146090Y-37896435D01*
X73890040Y-37896435D01*
X74676000Y-38682395D01*
X75461960Y-37896435D01*
X75394980Y-37656344D01*
X75145952Y-37539244D01*
X74878865Y-37472977D01*
X74603983Y-37460090D01*
X74331867Y-37501078D01*
X74072977Y-37594364D01*
X73957020Y-37656344D01*
X73890040Y-37896435D01*
X73146090Y-37896435D01*
X73026535Y-37776880D01*
X72797727Y-37623995D01*
X72543490Y-37518686D01*
X72273592Y-37465000D01*
X71998408Y-37465000D01*
X71728510Y-37518686D01*
X71474273Y-37623995D01*
X71245465Y-37776880D01*
X71050880Y-37971465D01*
X70897995Y-38200273D01*
X70866000Y-38277515D01*
X70834005Y-38200273D01*
X70681120Y-37971465D01*
X70486535Y-37776880D01*
X70257727Y-37623995D01*
X70003490Y-37518686D01*
X69733592Y-37465000D01*
X69458408Y-37465000D01*
X69188510Y-37518686D01*
X68934273Y-37623995D01*
X68705465Y-37776880D01*
X68510880Y-37971465D01*
X68357995Y-38200273D01*
X68326000Y-38277515D01*
X68294005Y-38200273D01*
X68141120Y-37971465D01*
X67946535Y-37776880D01*
X67717727Y-37623995D01*
X67463490Y-37518686D01*
X67193592Y-37465000D01*
X66918408Y-37465000D01*
X66764430Y-37495628D01*
X63625000Y-34356199D01*
X63625000Y-32326655D01*
X63625465Y-32327120D01*
X63854273Y-32480005D01*
X64108510Y-32585314D01*
X64378408Y-32639000D01*
X64653592Y-32639000D01*
X64923490Y-32585314D01*
X65177727Y-32480005D01*
X65406535Y-32327120D01*
X65601120Y-32132535D01*
X65754005Y-31903727D01*
X65786000Y-31826485D01*
X65817995Y-31903727D01*
X65970880Y-32132535D01*
X66165465Y-32327120D01*
X66394273Y-32480005D01*
X66648510Y-32585314D01*
X66918408Y-32639000D01*
X67193592Y-32639000D01*
X67463490Y-32585314D01*
X67717727Y-32480005D01*
X67946535Y-32327120D01*
X68066090Y-32207565D01*
X68810040Y-32207565D01*
X68877020Y-32447656D01*
X69126048Y-32564756D01*
X69393135Y-32631023D01*
X69668017Y-32643910D01*
X69940133Y-32602922D01*
X70199023Y-32509636D01*
X70314980Y-32447656D01*
X70381960Y-32207565D01*
X69596000Y-31421605D01*
X68810040Y-32207565D01*
X68066090Y-32207565D01*
X68141120Y-32132535D01*
X68294005Y-31903727D01*
X68323692Y-31832057D01*
X68328364Y-31845023D01*
X68390344Y-31960980D01*
X68630435Y-32027960D01*
X69416395Y-31242000D01*
X69402253Y-31227858D01*
X69581858Y-31048253D01*
X69596000Y-31062395D01*
X70381960Y-30276435D01*
X70314980Y-30036344D01*
X70065952Y-29919244D01*
X69798865Y-29852977D01*
X69586054Y-29843000D01*
X79822199Y-29843000D01*
X79824199Y-29845000D01*
X79618408Y-29845000D01*
X79348510Y-29898686D01*
X79094273Y-30003995D01*
X78865465Y-30156880D01*
X78670880Y-30351465D01*
X78517995Y-30580273D01*
X78486000Y-30657515D01*
X78454005Y-30580273D01*
X78301120Y-30351465D01*
X78106535Y-30156880D01*
X77877727Y-30003995D01*
X77623490Y-29898686D01*
X77353592Y-29845000D01*
X77078408Y-29845000D01*
X76808510Y-29898686D01*
X76554273Y-30003995D01*
X76325465Y-30156880D01*
X76130880Y-30351465D01*
X75977995Y-30580273D01*
X75946000Y-30657515D01*
X75914005Y-30580273D01*
X75761120Y-30351465D01*
X75566535Y-30156880D01*
X75337727Y-30003995D01*
X75083490Y-29898686D01*
X74813592Y-29845000D01*
X74538408Y-29845000D01*
X74268510Y-29898686D01*
X74014273Y-30003995D01*
X73785465Y-30156880D01*
X73590880Y-30351465D01*
X73437995Y-30580273D01*
X73406000Y-30657515D01*
X73374005Y-30580273D01*
X73221120Y-30351465D01*
X73026535Y-30156880D01*
X72797727Y-30003995D01*
X72543490Y-29898686D01*
X72273592Y-29845000D01*
X71998408Y-29845000D01*
X71728510Y-29898686D01*
X71474273Y-30003995D01*
X71245465Y-30156880D01*
X71050880Y-30351465D01*
X70897995Y-30580273D01*
X70868308Y-30651943D01*
X70863636Y-30638977D01*
X70801656Y-30523020D01*
X70561565Y-30456040D01*
X69775605Y-31242000D01*
X70561565Y-32027960D01*
X70801656Y-31960980D01*
X70865485Y-31825240D01*
X70897995Y-31903727D01*
X71050880Y-32132535D01*
X71245465Y-32327120D01*
X71474273Y-32480005D01*
X71728510Y-32585314D01*
X71998408Y-32639000D01*
X72273592Y-32639000D01*
X72543490Y-32585314D01*
X72797727Y-32480005D01*
X73026535Y-32327120D01*
X73221120Y-32132535D01*
X73374005Y-31903727D01*
X73406000Y-31826485D01*
X73437995Y-31903727D01*
X73590880Y-32132535D01*
X73785465Y-32327120D01*
X74014273Y-32480005D01*
X74268510Y-32585314D01*
X74538408Y-32639000D01*
X74813592Y-32639000D01*
X75083490Y-32585314D01*
X75337727Y-32480005D01*
X75566535Y-32327120D01*
X75761120Y-32132535D01*
X75914005Y-31903727D01*
X75946000Y-31826485D01*
X75977995Y-31903727D01*
X76130880Y-32132535D01*
X76325465Y-32327120D01*
X76554273Y-32480005D01*
X76808510Y-32585314D01*
X77078408Y-32639000D01*
X77353592Y-32639000D01*
X77623490Y-32585314D01*
X77877727Y-32480005D01*
X78106535Y-32327120D01*
X78301120Y-32132535D01*
X78454005Y-31903727D01*
X78486000Y-31826485D01*
X78517995Y-31903727D01*
X78670880Y-32132535D01*
X78865465Y-32327120D01*
X79094273Y-32480005D01*
X79348510Y-32585314D01*
X79618408Y-32639000D01*
X79893592Y-32639000D01*
X80163490Y-32585314D01*
X80417727Y-32480005D01*
X80646535Y-32327120D01*
X80841120Y-32132535D01*
X80994005Y-31903727D01*
X81026000Y-31826485D01*
X81057995Y-31903727D01*
X81210880Y-32132535D01*
X81405465Y-32327120D01*
X81634273Y-32480005D01*
X81888510Y-32585314D01*
X82158408Y-32639000D01*
X82433592Y-32639000D01*
X82703490Y-32585314D01*
X82957727Y-32480005D01*
X83186535Y-32327120D01*
X83381120Y-32132535D01*
X83534005Y-31903727D01*
X83639314Y-31649490D01*
X83693000Y-31379592D01*
X83693000Y-31104408D01*
X83639314Y-30834510D01*
X83534005Y-30580273D01*
X83381120Y-30351465D01*
X83186535Y-30156880D01*
X82957727Y-30003995D01*
X82703490Y-29898686D01*
X82433592Y-29845000D01*
X82158408Y-29845000D01*
X82004430Y-29875628D01*
X80700804Y-28572003D01*
X80677001Y-28542999D01*
X80561276Y-28448026D01*
X80429247Y-28377454D01*
X80285986Y-28333997D01*
X80174333Y-28323000D01*
X80174322Y-28323000D01*
X80137000Y-28319324D01*
X80099678Y-28323000D01*
X69252322Y-28323000D01*
X69214999Y-28319324D01*
X69177676Y-28323000D01*
X69177667Y-28323000D01*
X69066014Y-28333997D01*
X68922753Y-28377454D01*
X68790724Y-28448026D01*
X68674999Y-28542999D01*
X68651201Y-28571998D01*
X67998001Y-29225198D01*
X67997996Y-29225202D01*
X67347570Y-29875628D01*
X67193592Y-29845000D01*
X66918408Y-29845000D01*
X66648510Y-29898686D01*
X66394273Y-30003995D01*
X66165465Y-30156880D01*
X65970880Y-30351465D01*
X65817995Y-30580273D01*
X65786000Y-30657515D01*
X65754005Y-30580273D01*
X65601120Y-30351465D01*
X65406535Y-30156880D01*
X65177727Y-30003995D01*
X64923490Y-29898686D01*
X64694980Y-29853232D01*
X65916008Y-28632205D01*
X65945001Y-28608411D01*
X65968795Y-28579418D01*
X65968799Y-28579414D01*
X66039973Y-28492687D01*
X66043904Y-28485333D01*
X66110546Y-28360657D01*
X66154003Y-28217396D01*
X66165000Y-28105743D01*
X66165000Y-28105734D01*
X66168676Y-28068411D01*
X66165000Y-28031088D01*
X66165000Y-26199322D01*
X66168676Y-26162000D01*
X66165000Y-26124677D01*
X66165000Y-26124667D01*
X66154003Y-26013014D01*
X66110546Y-25869753D01*
X66039975Y-25737725D01*
X66039974Y-25737723D01*
X65968799Y-25650997D01*
X65945001Y-25621999D01*
X65916004Y-25598202D01*
X65574636Y-25256834D01*
X65576540Y-25252236D01*
X65624000Y-25013637D01*
X65624000Y-24770363D01*
X65576540Y-24531764D01*
X65483443Y-24307008D01*
X65348287Y-24104733D01*
X65176267Y-23932713D01*
X64973992Y-23797557D01*
X64749236Y-23704460D01*
X64510637Y-23657000D01*
X64267363Y-23657000D01*
X64028764Y-23704460D01*
X63804008Y-23797557D01*
X63601733Y-23932713D01*
X63429713Y-24104733D01*
X63294557Y-24307008D01*
X63201460Y-24531764D01*
X63154000Y-24770363D01*
X63154000Y-25013637D01*
X63201460Y-25252236D01*
X63294557Y-25476992D01*
X63429713Y-25679267D01*
X63601733Y-25851287D01*
X63804008Y-25986443D01*
X64028764Y-26079540D01*
X64267363Y-26127000D01*
X64295199Y-26127000D01*
X64365198Y-26197000D01*
X64267363Y-26197000D01*
X64028764Y-26244460D01*
X63804008Y-26337557D01*
X63601733Y-26472713D01*
X63429713Y-26644733D01*
X63294557Y-26847008D01*
X63201460Y-27071764D01*
X63154000Y-27310363D01*
X63154000Y-27553637D01*
X63201460Y-27792236D01*
X63294557Y-28016992D01*
X63429713Y-28219267D01*
X63486322Y-28275876D01*
X61846003Y-29916196D01*
X61816999Y-29939999D01*
X61788797Y-29974364D01*
X61722026Y-30055724D01*
X61667957Y-30156880D01*
X61651454Y-30187754D01*
X61607997Y-30331015D01*
X61597000Y-30442668D01*
X61597000Y-30442678D01*
X61593324Y-30480000D01*
X59180000Y-30480000D01*
X59180000Y-25194101D01*
X59395935Y-24978167D01*
X59540889Y-25007000D01*
X59813711Y-25007000D01*
X60081289Y-24953775D01*
X60333343Y-24849371D01*
X60560186Y-24697799D01*
X60753099Y-24504886D01*
X60904671Y-24278043D01*
X61009075Y-24025989D01*
X61062300Y-23758411D01*
X61062300Y-23485589D01*
X61009075Y-23218011D01*
X60904671Y-22965957D01*
X60753099Y-22739114D01*
X60644985Y-22631000D01*
X85573000Y-22631000D01*
X85573001Y-60300000D01*
X22377000Y-60300000D01*
X22377000Y-22631000D01*
X25689615Y-22631000D01*
X25581501Y-22739114D01*
X25581501Y-22739114D01*
G37*
X25581501Y-22739114D02*
X25429929Y-22965957D01*
X25325525Y-23218011D01*
X25272300Y-23485589D01*
X25272300Y-23758411D01*
X25325525Y-24025989D01*
X25429929Y-24278043D01*
X25581501Y-24504886D01*
X25670887Y-24594272D01*
X24889003Y-25376156D01*
X24859999Y-25399959D01*
X24821938Y-25446337D01*
X24765026Y-25515684D01*
X24758964Y-25527026D01*
X24694454Y-25647714D01*
X24650997Y-25790975D01*
X24640000Y-25902628D01*
X24640000Y-25902638D01*
X24636324Y-25939960D01*
X24640000Y-25977282D01*
X24640001Y-42045928D01*
X23380000Y-42045928D01*
X23255518Y-42058188D01*
X23135820Y-42094498D01*
X23025506Y-42153463D01*
X22928815Y-42232815D01*
X22849463Y-42329506D01*
X22790498Y-42439820D01*
X22754188Y-42559518D01*
X22741928Y-42684000D01*
X22741928Y-44184000D01*
X22754188Y-44308482D01*
X22790498Y-44428180D01*
X22849463Y-44538494D01*
X22928815Y-44635185D01*
X23025506Y-44714537D01*
X23135820Y-44773502D01*
X23255518Y-44809812D01*
X23380000Y-44822072D01*
X24640001Y-44822072D01*
X24640001Y-57089197D01*
X24411365Y-57317833D01*
X24266411Y-57289000D01*
X23993589Y-57289000D01*
X23726011Y-57342225D01*
X23473957Y-57446629D01*
X23247114Y-57598201D01*
X23054201Y-57791114D01*
X22902629Y-58017957D01*
X22798225Y-58270011D01*
X22745000Y-58537589D01*
X22745000Y-58810411D01*
X22798225Y-59077989D01*
X22902629Y-59330043D01*
X23054201Y-59556886D01*
X23247114Y-59749799D01*
X23473957Y-59901371D01*
X23726011Y-60005775D01*
X23993589Y-60059000D01*
X24266411Y-60059000D01*
X24533989Y-60005775D01*
X24786043Y-59901371D01*
X25012886Y-59749799D01*
X25205799Y-59556886D01*
X25357371Y-59330043D01*
X25400000Y-59227127D01*
X25442629Y-59330043D01*
X25594201Y-59556886D01*
X25787114Y-59749799D01*
X26013957Y-59901371D01*
X26266011Y-60005775D01*
X26533589Y-60059000D01*
X26806411Y-60059000D01*
X27073989Y-60005775D01*
X27326043Y-59901371D01*
X27552886Y-59749799D01*
X27745799Y-59556886D01*
X27897371Y-59330043D01*
X27940000Y-59227127D01*
X27982629Y-59330043D01*
X28134201Y-59556886D01*
X28327114Y-59749799D01*
X28553957Y-59901371D01*
X28806011Y-60005775D01*
X29073589Y-60059000D01*
X29346411Y-60059000D01*
X29613989Y-60005775D01*
X29866043Y-59901371D01*
X30092886Y-59749799D01*
X30285799Y-59556886D01*
X30437371Y-59330043D01*
X30480000Y-59227127D01*
X30522629Y-59330043D01*
X30674201Y-59556886D01*
X30867114Y-59749799D01*
X31093957Y-59901371D01*
X31346011Y-60005775D01*
X31613589Y-60059000D01*
X31886411Y-60059000D01*
X32153989Y-60005775D01*
X32406043Y-59901371D01*
X32632886Y-59749799D01*
X32825799Y-59556886D01*
X32977371Y-59330043D01*
X33020000Y-59227127D01*
X33062629Y-59330043D01*
X33214201Y-59556886D01*
X33407114Y-59749799D01*
X33633957Y-59901371D01*
X33886011Y-60005775D01*
X34153589Y-60059000D01*
X34426411Y-60059000D01*
X34693989Y-60005775D01*
X34946043Y-59901371D01*
X35172886Y-59749799D01*
X35365799Y-59556886D01*
X35517371Y-59330043D01*
X35560000Y-59227127D01*
X35602629Y-59330043D01*
X35754201Y-59556886D01*
X35947114Y-59749799D01*
X36173957Y-59901371D01*
X36426011Y-60005775D01*
X36693589Y-60059000D01*
X36966411Y-60059000D01*
X37233989Y-60005775D01*
X37486043Y-59901371D01*
X37712886Y-59749799D01*
X37905799Y-59556886D01*
X38057371Y-59330043D01*
X38100000Y-59227127D01*
X38142629Y-59330043D01*
X38294201Y-59556886D01*
X38487114Y-59749799D01*
X38713957Y-59901371D01*
X38966011Y-60005775D01*
X39233589Y-60059000D01*
X39506411Y-60059000D01*
X39773989Y-60005775D01*
X40026043Y-59901371D01*
X40252886Y-59749799D01*
X40445799Y-59556886D01*
X40597371Y-59330043D01*
X40640000Y-59227127D01*
X40682629Y-59330043D01*
X40834201Y-59556886D01*
X41027114Y-59749799D01*
X41253957Y-59901371D01*
X41506011Y-60005775D01*
X41773589Y-60059000D01*
X42046411Y-60059000D01*
X42313989Y-60005775D01*
X42566043Y-59901371D01*
X42792886Y-59749799D01*
X42985799Y-59556886D01*
X43137371Y-59330043D01*
X43180000Y-59227127D01*
X43222629Y-59330043D01*
X43374201Y-59556886D01*
X43567114Y-59749799D01*
X43793957Y-59901371D01*
X44046011Y-60005775D01*
X44313589Y-60059000D01*
X44586411Y-60059000D01*
X44853989Y-60005775D01*
X45106043Y-59901371D01*
X45332886Y-59749799D01*
X45525799Y-59556886D01*
X45677371Y-59330043D01*
X45720000Y-59227127D01*
X45762629Y-59330043D01*
X45914201Y-59556886D01*
X46107114Y-59749799D01*
X46333957Y-59901371D01*
X46586011Y-60005775D01*
X46853589Y-60059000D01*
X47126411Y-60059000D01*
X47393989Y-60005775D01*
X47646043Y-59901371D01*
X47872886Y-59749799D01*
X48065799Y-59556886D01*
X48217371Y-59330043D01*
X48260000Y-59227127D01*
X48302629Y-59330043D01*
X48454201Y-59556886D01*
X48647114Y-59749799D01*
X48873957Y-59901371D01*
X49126011Y-60005775D01*
X49393589Y-60059000D01*
X49666411Y-60059000D01*
X49933989Y-60005775D01*
X50186043Y-59901371D01*
X50412886Y-59749799D01*
X50605799Y-59556886D01*
X50757371Y-59330043D01*
X50800000Y-59227127D01*
X50842629Y-59330043D01*
X50994201Y-59556886D01*
X51187114Y-59749799D01*
X51413957Y-59901371D01*
X51666011Y-60005775D01*
X51933589Y-60059000D01*
X52206411Y-60059000D01*
X52473989Y-60005775D01*
X52726043Y-59901371D01*
X52952886Y-59749799D01*
X53145799Y-59556886D01*
X53297371Y-59330043D01*
X53340000Y-59227127D01*
X53382629Y-59330043D01*
X53534201Y-59556886D01*
X53727114Y-59749799D01*
X53953957Y-59901371D01*
X54206011Y-60005775D01*
X54473589Y-60059000D01*
X54746411Y-60059000D01*
X55013989Y-60005775D01*
X55266043Y-59901371D01*
X55492886Y-59749799D01*
X55685799Y-59556886D01*
X55837371Y-59330043D01*
X55880000Y-59227127D01*
X55922629Y-59330043D01*
X56074201Y-59556886D01*
X56267114Y-59749799D01*
X56493957Y-59901371D01*
X56746011Y-60005775D01*
X57013589Y-60059000D01*
X57286411Y-60059000D01*
X57553989Y-60005775D01*
X57806043Y-59901371D01*
X58032886Y-59749799D01*
X58225799Y-59556886D01*
X58377371Y-59330043D01*
X58481775Y-59077989D01*
X58535000Y-58810411D01*
X58535000Y-58537589D01*
X58506167Y-58392635D01*
X58931007Y-57967795D01*
X58960001Y-57944001D01*
X58983795Y-57915008D01*
X58983799Y-57915004D01*
X59054973Y-57828277D01*
X59054974Y-57828276D01*
X59125546Y-57696247D01*
X59169003Y-57552986D01*
X59180000Y-57441333D01*
X59180000Y-57441324D01*
X59183676Y-57404001D01*
X59180000Y-57366678D01*
X59180000Y-40158548D01*
X59212416Y-40173760D01*
X59477260Y-40239250D01*
X59749792Y-40251812D01*
X60019538Y-40210965D01*
X60276132Y-40118277D01*
X60389163Y-40057860D01*
X60454688Y-39818993D01*
X59677300Y-39041605D01*
X59663158Y-39055748D01*
X59483553Y-38876143D01*
X59497695Y-38862000D01*
X59856905Y-38862000D01*
X60634293Y-39639388D01*
X60873160Y-39573863D01*
X60989060Y-39326884D01*
X61054550Y-39062040D01*
X61067112Y-38789508D01*
X61026265Y-38519762D01*
X60933577Y-38263168D01*
X60873160Y-38150137D01*
X60634293Y-38084612D01*
X59856905Y-38862000D01*
X59497695Y-38862000D01*
X59483553Y-38847858D01*
X59663158Y-38668253D01*
X59677300Y-38682395D01*
X60454688Y-37905007D01*
X60389163Y-37666140D01*
X60142184Y-37550240D01*
X59877340Y-37484750D01*
X59604808Y-37472188D01*
X59335062Y-37513035D01*
X59180000Y-37569047D01*
X59180000Y-30480000D01*
X61593324Y-30480000D01*
X61597000Y-30517323D01*
X61597001Y-35653668D01*
X61593324Y-35691000D01*
X61607998Y-35839985D01*
X61651454Y-35983246D01*
X61722026Y-36115276D01*
X61793201Y-36202002D01*
X61817000Y-36231001D01*
X61845998Y-36254799D01*
X63274507Y-37683309D01*
X63223463Y-37745506D01*
X63164498Y-37855820D01*
X63128188Y-37975518D01*
X63115928Y-38100000D01*
X63115928Y-39624000D01*
X63128188Y-39748482D01*
X63164498Y-39868180D01*
X63223463Y-39978494D01*
X63302815Y-40075185D01*
X63399506Y-40154537D01*
X63509820Y-40213502D01*
X63629518Y-40249812D01*
X63754000Y-40262072D01*
X65278000Y-40262072D01*
X65402482Y-40249812D01*
X65522180Y-40213502D01*
X65632494Y-40154537D01*
X65729185Y-40075185D01*
X65808537Y-39978494D01*
X65867502Y-39868180D01*
X65903812Y-39748482D01*
X65912080Y-39664535D01*
X65970880Y-39752535D01*
X66165465Y-39947120D01*
X66394273Y-40100005D01*
X66648510Y-40205314D01*
X66918408Y-40259000D01*
X67193592Y-40259000D01*
X67463490Y-40205314D01*
X67717727Y-40100005D01*
X67946535Y-39947120D01*
X68141120Y-39752535D01*
X68294005Y-39523727D01*
X68326000Y-39446485D01*
X68357995Y-39523727D01*
X68510880Y-39752535D01*
X68705465Y-39947120D01*
X68934273Y-40100005D01*
X69188510Y-40205314D01*
X69458408Y-40259000D01*
X69733592Y-40259000D01*
X70003490Y-40205314D01*
X70257727Y-40100005D01*
X70486535Y-39947120D01*
X70681120Y-39752535D01*
X70834005Y-39523727D01*
X70866000Y-39446485D01*
X70897995Y-39523727D01*
X71050880Y-39752535D01*
X71245465Y-39947120D01*
X71376000Y-40034341D01*
X71376000Y-40325197D01*
X64945998Y-46755201D01*
X64917000Y-46778999D01*
X64893202Y-46807997D01*
X64893201Y-46807998D01*
X64822026Y-46894724D01*
X64751454Y-47026754D01*
X64707998Y-47170015D01*
X64693324Y-47319000D01*
X64697001Y-47356332D01*
X64697000Y-49134928D01*
X64557000Y-49134928D01*
X64432518Y-49147188D01*
X64312820Y-49183498D01*
X64202506Y-49242463D01*
X64105815Y-49321815D01*
X64026463Y-49418506D01*
X63967498Y-49528820D01*
X63931188Y-49648518D01*
X63918928Y-49773000D01*
X63918928Y-51573000D01*
X63931188Y-51697482D01*
X63967498Y-51817180D01*
X64026463Y-51927494D01*
X64105815Y-52024185D01*
X64202506Y-52103537D01*
X64312820Y-52162502D01*
X64432518Y-52198812D01*
X64557000Y-52211072D01*
X66357000Y-52211072D01*
X66481482Y-52198812D01*
X66601180Y-52162502D01*
X66711494Y-52103537D01*
X66808185Y-52024185D01*
X66887537Y-51927494D01*
X66946502Y-51817180D01*
X66982812Y-51697482D01*
X66995072Y-51573000D01*
X66995072Y-49773000D01*
X66982812Y-49648518D01*
X66946502Y-49528820D01*
X66887537Y-49418506D01*
X66808185Y-49321815D01*
X66711494Y-49242463D01*
X66601180Y-49183498D01*
X66481482Y-49147188D01*
X66357000Y-49134928D01*
X66217000Y-49134928D01*
X66217000Y-47633801D01*
X72647009Y-41203794D01*
X72676001Y-41180001D01*
X72699795Y-41151008D01*
X72699799Y-41151004D01*
X72770973Y-41064277D01*
X72770974Y-41064276D01*
X72841546Y-40932247D01*
X72885003Y-40788986D01*
X72896000Y-40677333D01*
X72896000Y-40677324D01*
X72899676Y-40640001D01*
X72896000Y-40602678D01*
X72896000Y-40034341D01*
X73026535Y-39947120D01*
X73146090Y-39827565D01*
X73890040Y-39827565D01*
X73957020Y-40067656D01*
X74206048Y-40184756D01*
X74473135Y-40251023D01*
X74748017Y-40263910D01*
X75020133Y-40222922D01*
X75279023Y-40129636D01*
X75394980Y-40067656D01*
X75461960Y-39827565D01*
X74676000Y-39041605D01*
X73890040Y-39827565D01*
X73146090Y-39827565D01*
X73221120Y-39752535D01*
X73374005Y-39523727D01*
X73403692Y-39452057D01*
X73408364Y-39465023D01*
X73470344Y-39580980D01*
X73710435Y-39647960D01*
X74496395Y-38862000D01*
X74855605Y-38862000D01*
X75641565Y-39647960D01*
X75881656Y-39580980D01*
X75945485Y-39445240D01*
X75977995Y-39523727D01*
X76130880Y-39752535D01*
X76325465Y-39947120D01*
X76554273Y-40100005D01*
X76808510Y-40205314D01*
X77078408Y-40259000D01*
X77353592Y-40259000D01*
X77623490Y-40205314D01*
X77877727Y-40100005D01*
X78106535Y-39947120D01*
X78301120Y-39752535D01*
X78454005Y-39523727D01*
X78486000Y-39446485D01*
X78517995Y-39523727D01*
X78670880Y-39752535D01*
X78865465Y-39947120D01*
X79094273Y-40100005D01*
X79348510Y-40205314D01*
X79618408Y-40259000D01*
X79893592Y-40259000D01*
X80163490Y-40205314D01*
X80417727Y-40100005D01*
X80646535Y-39947120D01*
X80766090Y-39827565D01*
X81510040Y-39827565D01*
X81577020Y-40067656D01*
X81826048Y-40184756D01*
X82093135Y-40251023D01*
X82368017Y-40263910D01*
X82640133Y-40222922D01*
X82899023Y-40129636D01*
X83014980Y-40067656D01*
X83081960Y-39827565D01*
X82296000Y-39041605D01*
X81510040Y-39827565D01*
X80766090Y-39827565D01*
X80841120Y-39752535D01*
X80994005Y-39523727D01*
X81023692Y-39452057D01*
X81028364Y-39465023D01*
X81090344Y-39580980D01*
X81330435Y-39647960D01*
X82116395Y-38862000D01*
X82475605Y-38862000D01*
X83261565Y-39647960D01*
X83501656Y-39580980D01*
X83618756Y-39331952D01*
X83685023Y-39064865D01*
X83697910Y-38789983D01*
X83656922Y-38517867D01*
X83563636Y-38258977D01*
X83501656Y-38143020D01*
X83261565Y-38076040D01*
X82475605Y-38862000D01*
X82116395Y-38862000D01*
X81330435Y-38076040D01*
X81090344Y-38143020D01*
X81026515Y-38278760D01*
X80994005Y-38200273D01*
X80841120Y-37971465D01*
X80766090Y-37896435D01*
X81510040Y-37896435D01*
X82296000Y-38682395D01*
X83081960Y-37896435D01*
X83014980Y-37656344D01*
X82765952Y-37539244D01*
X82498865Y-37472977D01*
X82223983Y-37460090D01*
X81951867Y-37501078D01*
X81692977Y-37594364D01*
X81577020Y-37656344D01*
X81510040Y-37896435D01*
X80766090Y-37896435D01*
X80646535Y-37776880D01*
X80417727Y-37623995D01*
X80163490Y-37518686D01*
X79893592Y-37465000D01*
X79618408Y-37465000D01*
X79348510Y-37518686D01*
X79094273Y-37623995D01*
X78865465Y-37776880D01*
X78670880Y-37971465D01*
X78517995Y-38200273D01*
X78486000Y-38277515D01*
X78454005Y-38200273D01*
X78301120Y-37971465D01*
X78106535Y-37776880D01*
X77877727Y-37623995D01*
X77623490Y-37518686D01*
X77353592Y-37465000D01*
X77078408Y-37465000D01*
X76808510Y-37518686D01*
X76554273Y-37623995D01*
X76325465Y-37776880D01*
X76130880Y-37971465D01*
X75977995Y-38200273D01*
X75948308Y-38271943D01*
X75943636Y-38258977D01*
X75881656Y-38143020D01*
X75641565Y-38076040D01*
X74855605Y-38862000D01*
X74496395Y-38862000D01*
X73710435Y-38076040D01*
X73470344Y-38143020D01*
X73406515Y-38278760D01*
X73374005Y-38200273D01*
X73221120Y-37971465D01*
X73146090Y-37896435D01*
X73890040Y-37896435D01*
X74676000Y-38682395D01*
X75461960Y-37896435D01*
X75394980Y-37656344D01*
X75145952Y-37539244D01*
X74878865Y-37472977D01*
X74603983Y-37460090D01*
X74331867Y-37501078D01*
X74072977Y-37594364D01*
X73957020Y-37656344D01*
X73890040Y-37896435D01*
X73146090Y-37896435D01*
X73026535Y-37776880D01*
X72797727Y-37623995D01*
X72543490Y-37518686D01*
X72273592Y-37465000D01*
X71998408Y-37465000D01*
X71728510Y-37518686D01*
X71474273Y-37623995D01*
X71245465Y-37776880D01*
X71050880Y-37971465D01*
X70897995Y-38200273D01*
X70866000Y-38277515D01*
X70834005Y-38200273D01*
X70681120Y-37971465D01*
X70486535Y-37776880D01*
X70257727Y-37623995D01*
X70003490Y-37518686D01*
X69733592Y-37465000D01*
X69458408Y-37465000D01*
X69188510Y-37518686D01*
X68934273Y-37623995D01*
X68705465Y-37776880D01*
X68510880Y-37971465D01*
X68357995Y-38200273D01*
X68326000Y-38277515D01*
X68294005Y-38200273D01*
X68141120Y-37971465D01*
X67946535Y-37776880D01*
X67717727Y-37623995D01*
X67463490Y-37518686D01*
X67193592Y-37465000D01*
X66918408Y-37465000D01*
X66764430Y-37495628D01*
X63625000Y-34356199D01*
X63625000Y-32326655D01*
X63625465Y-32327120D01*
X63854273Y-32480005D01*
X64108510Y-32585314D01*
X64378408Y-32639000D01*
X64653592Y-32639000D01*
X64923490Y-32585314D01*
X65177727Y-32480005D01*
X65406535Y-32327120D01*
X65601120Y-32132535D01*
X65754005Y-31903727D01*
X65786000Y-31826485D01*
X65817995Y-31903727D01*
X65970880Y-32132535D01*
X66165465Y-32327120D01*
X66394273Y-32480005D01*
X66648510Y-32585314D01*
X66918408Y-32639000D01*
X67193592Y-32639000D01*
X67463490Y-32585314D01*
X67717727Y-32480005D01*
X67946535Y-32327120D01*
X68066090Y-32207565D01*
X68810040Y-32207565D01*
X68877020Y-32447656D01*
X69126048Y-32564756D01*
X69393135Y-32631023D01*
X69668017Y-32643910D01*
X69940133Y-32602922D01*
X70199023Y-32509636D01*
X70314980Y-32447656D01*
X70381960Y-32207565D01*
X69596000Y-31421605D01*
X68810040Y-32207565D01*
X68066090Y-32207565D01*
X68141120Y-32132535D01*
X68294005Y-31903727D01*
X68323692Y-31832057D01*
X68328364Y-31845023D01*
X68390344Y-31960980D01*
X68630435Y-32027960D01*
X69416395Y-31242000D01*
X69402253Y-31227858D01*
X69581858Y-31048253D01*
X69596000Y-31062395D01*
X70381960Y-30276435D01*
X70314980Y-30036344D01*
X70065952Y-29919244D01*
X69798865Y-29852977D01*
X69586054Y-29843000D01*
X79822199Y-29843000D01*
X79824199Y-29845000D01*
X79618408Y-29845000D01*
X79348510Y-29898686D01*
X79094273Y-30003995D01*
X78865465Y-30156880D01*
X78670880Y-30351465D01*
X78517995Y-30580273D01*
X78486000Y-30657515D01*
X78454005Y-30580273D01*
X78301120Y-30351465D01*
X78106535Y-30156880D01*
X77877727Y-30003995D01*
X77623490Y-29898686D01*
X77353592Y-29845000D01*
X77078408Y-29845000D01*
X76808510Y-29898686D01*
X76554273Y-30003995D01*
X76325465Y-30156880D01*
X76130880Y-30351465D01*
X75977995Y-30580273D01*
X75946000Y-30657515D01*
X75914005Y-30580273D01*
X75761120Y-30351465D01*
X75566535Y-30156880D01*
X75337727Y-30003995D01*
X75083490Y-29898686D01*
X74813592Y-29845000D01*
X74538408Y-29845000D01*
X74268510Y-29898686D01*
X74014273Y-30003995D01*
X73785465Y-30156880D01*
X73590880Y-30351465D01*
X73437995Y-30580273D01*
X73406000Y-30657515D01*
X73374005Y-30580273D01*
X73221120Y-30351465D01*
X73026535Y-30156880D01*
X72797727Y-30003995D01*
X72543490Y-29898686D01*
X72273592Y-29845000D01*
X71998408Y-29845000D01*
X71728510Y-29898686D01*
X71474273Y-30003995D01*
X71245465Y-30156880D01*
X71050880Y-30351465D01*
X70897995Y-30580273D01*
X70868308Y-30651943D01*
X70863636Y-30638977D01*
X70801656Y-30523020D01*
X70561565Y-30456040D01*
X69775605Y-31242000D01*
X70561565Y-32027960D01*
X70801656Y-31960980D01*
X70865485Y-31825240D01*
X70897995Y-31903727D01*
X71050880Y-32132535D01*
X71245465Y-32327120D01*
X71474273Y-32480005D01*
X71728510Y-32585314D01*
X71998408Y-32639000D01*
X72273592Y-32639000D01*
X72543490Y-32585314D01*
X72797727Y-32480005D01*
X73026535Y-32327120D01*
X73221120Y-32132535D01*
X73374005Y-31903727D01*
X73406000Y-31826485D01*
X73437995Y-31903727D01*
X73590880Y-32132535D01*
X73785465Y-32327120D01*
X74014273Y-32480005D01*
X74268510Y-32585314D01*
X74538408Y-32639000D01*
X74813592Y-32639000D01*
X75083490Y-32585314D01*
X75337727Y-32480005D01*
X75566535Y-32327120D01*
X75761120Y-32132535D01*
X75914005Y-31903727D01*
X75946000Y-31826485D01*
X75977995Y-31903727D01*
X76130880Y-32132535D01*
X76325465Y-32327120D01*
X76554273Y-32480005D01*
X76808510Y-32585314D01*
X77078408Y-32639000D01*
X77353592Y-32639000D01*
X77623490Y-32585314D01*
X77877727Y-32480005D01*
X78106535Y-32327120D01*
X78301120Y-32132535D01*
X78454005Y-31903727D01*
X78486000Y-31826485D01*
X78517995Y-31903727D01*
X78670880Y-32132535D01*
X78865465Y-32327120D01*
X79094273Y-32480005D01*
X79348510Y-32585314D01*
X79618408Y-32639000D01*
X79893592Y-32639000D01*
X80163490Y-32585314D01*
X80417727Y-32480005D01*
X80646535Y-32327120D01*
X80841120Y-32132535D01*
X80994005Y-31903727D01*
X81026000Y-31826485D01*
X81057995Y-31903727D01*
X81210880Y-32132535D01*
X81405465Y-32327120D01*
X81634273Y-32480005D01*
X81888510Y-32585314D01*
X82158408Y-32639000D01*
X82433592Y-32639000D01*
X82703490Y-32585314D01*
X82957727Y-32480005D01*
X83186535Y-32327120D01*
X83381120Y-32132535D01*
X83534005Y-31903727D01*
X83639314Y-31649490D01*
X83693000Y-31379592D01*
X83693000Y-31104408D01*
X83639314Y-30834510D01*
X83534005Y-30580273D01*
X83381120Y-30351465D01*
X83186535Y-30156880D01*
X82957727Y-30003995D01*
X82703490Y-29898686D01*
X82433592Y-29845000D01*
X82158408Y-29845000D01*
X82004430Y-29875628D01*
X80700804Y-28572003D01*
X80677001Y-28542999D01*
X80561276Y-28448026D01*
X80429247Y-28377454D01*
X80285986Y-28333997D01*
X80174333Y-28323000D01*
X80174322Y-28323000D01*
X80137000Y-28319324D01*
X80099678Y-28323000D01*
X69252322Y-28323000D01*
X69214999Y-28319324D01*
X69177676Y-28323000D01*
X69177667Y-28323000D01*
X69066014Y-28333997D01*
X68922753Y-28377454D01*
X68790724Y-28448026D01*
X68674999Y-28542999D01*
X68651201Y-28571998D01*
X67998001Y-29225198D01*
X67997996Y-29225202D01*
X67347570Y-29875628D01*
X67193592Y-29845000D01*
X66918408Y-29845000D01*
X66648510Y-29898686D01*
X66394273Y-30003995D01*
X66165465Y-30156880D01*
X65970880Y-30351465D01*
X65817995Y-30580273D01*
X65786000Y-30657515D01*
X65754005Y-30580273D01*
X65601120Y-30351465D01*
X65406535Y-30156880D01*
X65177727Y-30003995D01*
X64923490Y-29898686D01*
X64694980Y-29853232D01*
X65916008Y-28632205D01*
X65945001Y-28608411D01*
X65968795Y-28579418D01*
X65968799Y-28579414D01*
X66039973Y-28492687D01*
X66043904Y-28485333D01*
X66110546Y-28360657D01*
X66154003Y-28217396D01*
X66165000Y-28105743D01*
X66165000Y-28105734D01*
X66168676Y-28068411D01*
X66165000Y-28031088D01*
X66165000Y-26199322D01*
X66168676Y-26162000D01*
X66165000Y-26124677D01*
X66165000Y-26124667D01*
X66154003Y-26013014D01*
X66110546Y-25869753D01*
X66039975Y-25737725D01*
X66039974Y-25737723D01*
X65968799Y-25650997D01*
X65945001Y-25621999D01*
X65916004Y-25598202D01*
X65574636Y-25256834D01*
X65576540Y-25252236D01*
X65624000Y-25013637D01*
X65624000Y-24770363D01*
X65576540Y-24531764D01*
X65483443Y-24307008D01*
X65348287Y-24104733D01*
X65176267Y-23932713D01*
X64973992Y-23797557D01*
X64749236Y-23704460D01*
X64510637Y-23657000D01*
X64267363Y-23657000D01*
X64028764Y-23704460D01*
X63804008Y-23797557D01*
X63601733Y-23932713D01*
X63429713Y-24104733D01*
X63294557Y-24307008D01*
X63201460Y-24531764D01*
X63154000Y-24770363D01*
X63154000Y-25013637D01*
X63201460Y-25252236D01*
X63294557Y-25476992D01*
X63429713Y-25679267D01*
X63601733Y-25851287D01*
X63804008Y-25986443D01*
X64028764Y-26079540D01*
X64267363Y-26127000D01*
X64295199Y-26127000D01*
X64365198Y-26197000D01*
X64267363Y-26197000D01*
X64028764Y-26244460D01*
X63804008Y-26337557D01*
X63601733Y-26472713D01*
X63429713Y-26644733D01*
X63294557Y-26847008D01*
X63201460Y-27071764D01*
X63154000Y-27310363D01*
X63154000Y-27553637D01*
X63201460Y-27792236D01*
X63294557Y-28016992D01*
X63429713Y-28219267D01*
X63486322Y-28275876D01*
X61846003Y-29916196D01*
X61816999Y-29939999D01*
X61788797Y-29974364D01*
X61722026Y-30055724D01*
X61667957Y-30156880D01*
X61651454Y-30187754D01*
X61607997Y-30331015D01*
X61597000Y-30442668D01*
X61597000Y-30442678D01*
X61593324Y-30480000D01*
X59180000Y-30480000D01*
X59180000Y-25194101D01*
X59395935Y-24978167D01*
X59540889Y-25007000D01*
X59813711Y-25007000D01*
X60081289Y-24953775D01*
X60333343Y-24849371D01*
X60560186Y-24697799D01*
X60753099Y-24504886D01*
X60904671Y-24278043D01*
X61009075Y-24025989D01*
X61062300Y-23758411D01*
X61062300Y-23485589D01*
X61009075Y-23218011D01*
X60904671Y-22965957D01*
X60753099Y-22739114D01*
X60644985Y-22631000D01*
X85573000Y-22631000D01*
X85573001Y-60300000D01*
X22377000Y-60300000D01*
X22377000Y-22631000D01*
X25689615Y-22631000D01*
X25581501Y-22739114D01*
G36*
X57343748Y-43419858D02*
G01*
X57329605Y-43434000D01*
X57343748Y-43448143D01*
X57164143Y-43627748D01*
X57150000Y-43613605D01*
X57135858Y-43627748D01*
X56956253Y-43448143D01*
X56970395Y-43434000D01*
X56956253Y-43419858D01*
X57135858Y-43240253D01*
X57150000Y-43254395D01*
X57164143Y-43240253D01*
X57343748Y-43419858D01*
X57343748Y-43419858D01*
G37*
X57343748Y-43419858D02*
X57329605Y-43434000D01*
X57343748Y-43448143D01*
X57164143Y-43627748D01*
X57150000Y-43613605D01*
X57135858Y-43627748D01*
X56956253Y-43448143D01*
X56970395Y-43434000D01*
X56956253Y-43419858D01*
X57135858Y-43240253D01*
X57150000Y-43254395D01*
X57164143Y-43240253D01*
X57343748Y-43419858D01*
M02*
