G04 #@! TF.GenerationSoftware,KiCad,Pcbnew,(5.1.4-0-10_14)*
G04 #@! TF.CreationDate,2020-02-03T15:06:25+11:00*
G04 #@! TF.ProjectId,SmartWatch+,536d6172-7457-4617-9463-682b2e6b6963,rev?*
G04 #@! TF.SameCoordinates,Original*
G04 #@! TF.FileFunction,Soldermask,Top*
G04 #@! TF.FilePolarity,Negative*
%FSLAX46Y46*%
G04 Gerber Fmt 4.6, Leading zero omitted, Abs format (unit mm)*
G04 Created by KiCad (PCBNEW (5.1.4-0-10_14)) date 2020-02-03 15:06:25*
%MOMM*%
%LPD*%
G04 APERTURE LIST*
%ADD10C,0.100000*%
G04 APERTURE END LIST*
D10*
G36*
X57383642Y-57903781D02*
G01*
X57529414Y-57964162D01*
X57529416Y-57964163D01*
X57660608Y-58051822D01*
X57772178Y-58163392D01*
X57859837Y-58294584D01*
X57859838Y-58294586D01*
X57920219Y-58440358D01*
X57951000Y-58595107D01*
X57951000Y-58752893D01*
X57920219Y-58907642D01*
X57859838Y-59053414D01*
X57859837Y-59053416D01*
X57772178Y-59184608D01*
X57660608Y-59296178D01*
X57529416Y-59383837D01*
X57529415Y-59383838D01*
X57529414Y-59383838D01*
X57383642Y-59444219D01*
X57228893Y-59475000D01*
X57071107Y-59475000D01*
X56916358Y-59444219D01*
X56770586Y-59383838D01*
X56770585Y-59383838D01*
X56770584Y-59383837D01*
X56639392Y-59296178D01*
X56527822Y-59184608D01*
X56440163Y-59053416D01*
X56440162Y-59053414D01*
X56379781Y-58907642D01*
X56349000Y-58752893D01*
X56349000Y-58595107D01*
X56379781Y-58440358D01*
X56440162Y-58294586D01*
X56440163Y-58294584D01*
X56527822Y-58163392D01*
X56639392Y-58051822D01*
X56770584Y-57964163D01*
X56770586Y-57964162D01*
X56916358Y-57903781D01*
X57071107Y-57873000D01*
X57228893Y-57873000D01*
X57383642Y-57903781D01*
X57383642Y-57903781D01*
G37*
G36*
X54843642Y-57903781D02*
G01*
X54989414Y-57964162D01*
X54989416Y-57964163D01*
X55120608Y-58051822D01*
X55232178Y-58163392D01*
X55319837Y-58294584D01*
X55319838Y-58294586D01*
X55380219Y-58440358D01*
X55411000Y-58595107D01*
X55411000Y-58752893D01*
X55380219Y-58907642D01*
X55319838Y-59053414D01*
X55319837Y-59053416D01*
X55232178Y-59184608D01*
X55120608Y-59296178D01*
X54989416Y-59383837D01*
X54989415Y-59383838D01*
X54989414Y-59383838D01*
X54843642Y-59444219D01*
X54688893Y-59475000D01*
X54531107Y-59475000D01*
X54376358Y-59444219D01*
X54230586Y-59383838D01*
X54230585Y-59383838D01*
X54230584Y-59383837D01*
X54099392Y-59296178D01*
X53987822Y-59184608D01*
X53900163Y-59053416D01*
X53900162Y-59053414D01*
X53839781Y-58907642D01*
X53809000Y-58752893D01*
X53809000Y-58595107D01*
X53839781Y-58440358D01*
X53900162Y-58294586D01*
X53900163Y-58294584D01*
X53987822Y-58163392D01*
X54099392Y-58051822D01*
X54230584Y-57964163D01*
X54230586Y-57964162D01*
X54376358Y-57903781D01*
X54531107Y-57873000D01*
X54688893Y-57873000D01*
X54843642Y-57903781D01*
X54843642Y-57903781D01*
G37*
G36*
X52303642Y-57903781D02*
G01*
X52449414Y-57964162D01*
X52449416Y-57964163D01*
X52580608Y-58051822D01*
X52692178Y-58163392D01*
X52779837Y-58294584D01*
X52779838Y-58294586D01*
X52840219Y-58440358D01*
X52871000Y-58595107D01*
X52871000Y-58752893D01*
X52840219Y-58907642D01*
X52779838Y-59053414D01*
X52779837Y-59053416D01*
X52692178Y-59184608D01*
X52580608Y-59296178D01*
X52449416Y-59383837D01*
X52449415Y-59383838D01*
X52449414Y-59383838D01*
X52303642Y-59444219D01*
X52148893Y-59475000D01*
X51991107Y-59475000D01*
X51836358Y-59444219D01*
X51690586Y-59383838D01*
X51690585Y-59383838D01*
X51690584Y-59383837D01*
X51559392Y-59296178D01*
X51447822Y-59184608D01*
X51360163Y-59053416D01*
X51360162Y-59053414D01*
X51299781Y-58907642D01*
X51269000Y-58752893D01*
X51269000Y-58595107D01*
X51299781Y-58440358D01*
X51360162Y-58294586D01*
X51360163Y-58294584D01*
X51447822Y-58163392D01*
X51559392Y-58051822D01*
X51690584Y-57964163D01*
X51690586Y-57964162D01*
X51836358Y-57903781D01*
X51991107Y-57873000D01*
X52148893Y-57873000D01*
X52303642Y-57903781D01*
X52303642Y-57903781D01*
G37*
G36*
X49763642Y-57903781D02*
G01*
X49909414Y-57964162D01*
X49909416Y-57964163D01*
X50040608Y-58051822D01*
X50152178Y-58163392D01*
X50239837Y-58294584D01*
X50239838Y-58294586D01*
X50300219Y-58440358D01*
X50331000Y-58595107D01*
X50331000Y-58752893D01*
X50300219Y-58907642D01*
X50239838Y-59053414D01*
X50239837Y-59053416D01*
X50152178Y-59184608D01*
X50040608Y-59296178D01*
X49909416Y-59383837D01*
X49909415Y-59383838D01*
X49909414Y-59383838D01*
X49763642Y-59444219D01*
X49608893Y-59475000D01*
X49451107Y-59475000D01*
X49296358Y-59444219D01*
X49150586Y-59383838D01*
X49150585Y-59383838D01*
X49150584Y-59383837D01*
X49019392Y-59296178D01*
X48907822Y-59184608D01*
X48820163Y-59053416D01*
X48820162Y-59053414D01*
X48759781Y-58907642D01*
X48729000Y-58752893D01*
X48729000Y-58595107D01*
X48759781Y-58440358D01*
X48820162Y-58294586D01*
X48820163Y-58294584D01*
X48907822Y-58163392D01*
X49019392Y-58051822D01*
X49150584Y-57964163D01*
X49150586Y-57964162D01*
X49296358Y-57903781D01*
X49451107Y-57873000D01*
X49608893Y-57873000D01*
X49763642Y-57903781D01*
X49763642Y-57903781D01*
G37*
G36*
X47223642Y-57903781D02*
G01*
X47369414Y-57964162D01*
X47369416Y-57964163D01*
X47500608Y-58051822D01*
X47612178Y-58163392D01*
X47699837Y-58294584D01*
X47699838Y-58294586D01*
X47760219Y-58440358D01*
X47791000Y-58595107D01*
X47791000Y-58752893D01*
X47760219Y-58907642D01*
X47699838Y-59053414D01*
X47699837Y-59053416D01*
X47612178Y-59184608D01*
X47500608Y-59296178D01*
X47369416Y-59383837D01*
X47369415Y-59383838D01*
X47369414Y-59383838D01*
X47223642Y-59444219D01*
X47068893Y-59475000D01*
X46911107Y-59475000D01*
X46756358Y-59444219D01*
X46610586Y-59383838D01*
X46610585Y-59383838D01*
X46610584Y-59383837D01*
X46479392Y-59296178D01*
X46367822Y-59184608D01*
X46280163Y-59053416D01*
X46280162Y-59053414D01*
X46219781Y-58907642D01*
X46189000Y-58752893D01*
X46189000Y-58595107D01*
X46219781Y-58440358D01*
X46280162Y-58294586D01*
X46280163Y-58294584D01*
X46367822Y-58163392D01*
X46479392Y-58051822D01*
X46610584Y-57964163D01*
X46610586Y-57964162D01*
X46756358Y-57903781D01*
X46911107Y-57873000D01*
X47068893Y-57873000D01*
X47223642Y-57903781D01*
X47223642Y-57903781D01*
G37*
G36*
X44683642Y-57903781D02*
G01*
X44829414Y-57964162D01*
X44829416Y-57964163D01*
X44960608Y-58051822D01*
X45072178Y-58163392D01*
X45159837Y-58294584D01*
X45159838Y-58294586D01*
X45220219Y-58440358D01*
X45251000Y-58595107D01*
X45251000Y-58752893D01*
X45220219Y-58907642D01*
X45159838Y-59053414D01*
X45159837Y-59053416D01*
X45072178Y-59184608D01*
X44960608Y-59296178D01*
X44829416Y-59383837D01*
X44829415Y-59383838D01*
X44829414Y-59383838D01*
X44683642Y-59444219D01*
X44528893Y-59475000D01*
X44371107Y-59475000D01*
X44216358Y-59444219D01*
X44070586Y-59383838D01*
X44070585Y-59383838D01*
X44070584Y-59383837D01*
X43939392Y-59296178D01*
X43827822Y-59184608D01*
X43740163Y-59053416D01*
X43740162Y-59053414D01*
X43679781Y-58907642D01*
X43649000Y-58752893D01*
X43649000Y-58595107D01*
X43679781Y-58440358D01*
X43740162Y-58294586D01*
X43740163Y-58294584D01*
X43827822Y-58163392D01*
X43939392Y-58051822D01*
X44070584Y-57964163D01*
X44070586Y-57964162D01*
X44216358Y-57903781D01*
X44371107Y-57873000D01*
X44528893Y-57873000D01*
X44683642Y-57903781D01*
X44683642Y-57903781D01*
G37*
G36*
X42143642Y-57903781D02*
G01*
X42289414Y-57964162D01*
X42289416Y-57964163D01*
X42420608Y-58051822D01*
X42532178Y-58163392D01*
X42619837Y-58294584D01*
X42619838Y-58294586D01*
X42680219Y-58440358D01*
X42711000Y-58595107D01*
X42711000Y-58752893D01*
X42680219Y-58907642D01*
X42619838Y-59053414D01*
X42619837Y-59053416D01*
X42532178Y-59184608D01*
X42420608Y-59296178D01*
X42289416Y-59383837D01*
X42289415Y-59383838D01*
X42289414Y-59383838D01*
X42143642Y-59444219D01*
X41988893Y-59475000D01*
X41831107Y-59475000D01*
X41676358Y-59444219D01*
X41530586Y-59383838D01*
X41530585Y-59383838D01*
X41530584Y-59383837D01*
X41399392Y-59296178D01*
X41287822Y-59184608D01*
X41200163Y-59053416D01*
X41200162Y-59053414D01*
X41139781Y-58907642D01*
X41109000Y-58752893D01*
X41109000Y-58595107D01*
X41139781Y-58440358D01*
X41200162Y-58294586D01*
X41200163Y-58294584D01*
X41287822Y-58163392D01*
X41399392Y-58051822D01*
X41530584Y-57964163D01*
X41530586Y-57964162D01*
X41676358Y-57903781D01*
X41831107Y-57873000D01*
X41988893Y-57873000D01*
X42143642Y-57903781D01*
X42143642Y-57903781D01*
G37*
G36*
X39603642Y-57903781D02*
G01*
X39749414Y-57964162D01*
X39749416Y-57964163D01*
X39880608Y-58051822D01*
X39992178Y-58163392D01*
X40079837Y-58294584D01*
X40079838Y-58294586D01*
X40140219Y-58440358D01*
X40171000Y-58595107D01*
X40171000Y-58752893D01*
X40140219Y-58907642D01*
X40079838Y-59053414D01*
X40079837Y-59053416D01*
X39992178Y-59184608D01*
X39880608Y-59296178D01*
X39749416Y-59383837D01*
X39749415Y-59383838D01*
X39749414Y-59383838D01*
X39603642Y-59444219D01*
X39448893Y-59475000D01*
X39291107Y-59475000D01*
X39136358Y-59444219D01*
X38990586Y-59383838D01*
X38990585Y-59383838D01*
X38990584Y-59383837D01*
X38859392Y-59296178D01*
X38747822Y-59184608D01*
X38660163Y-59053416D01*
X38660162Y-59053414D01*
X38599781Y-58907642D01*
X38569000Y-58752893D01*
X38569000Y-58595107D01*
X38599781Y-58440358D01*
X38660162Y-58294586D01*
X38660163Y-58294584D01*
X38747822Y-58163392D01*
X38859392Y-58051822D01*
X38990584Y-57964163D01*
X38990586Y-57964162D01*
X39136358Y-57903781D01*
X39291107Y-57873000D01*
X39448893Y-57873000D01*
X39603642Y-57903781D01*
X39603642Y-57903781D01*
G37*
G36*
X37063642Y-57903781D02*
G01*
X37209414Y-57964162D01*
X37209416Y-57964163D01*
X37340608Y-58051822D01*
X37452178Y-58163392D01*
X37539837Y-58294584D01*
X37539838Y-58294586D01*
X37600219Y-58440358D01*
X37631000Y-58595107D01*
X37631000Y-58752893D01*
X37600219Y-58907642D01*
X37539838Y-59053414D01*
X37539837Y-59053416D01*
X37452178Y-59184608D01*
X37340608Y-59296178D01*
X37209416Y-59383837D01*
X37209415Y-59383838D01*
X37209414Y-59383838D01*
X37063642Y-59444219D01*
X36908893Y-59475000D01*
X36751107Y-59475000D01*
X36596358Y-59444219D01*
X36450586Y-59383838D01*
X36450585Y-59383838D01*
X36450584Y-59383837D01*
X36319392Y-59296178D01*
X36207822Y-59184608D01*
X36120163Y-59053416D01*
X36120162Y-59053414D01*
X36059781Y-58907642D01*
X36029000Y-58752893D01*
X36029000Y-58595107D01*
X36059781Y-58440358D01*
X36120162Y-58294586D01*
X36120163Y-58294584D01*
X36207822Y-58163392D01*
X36319392Y-58051822D01*
X36450584Y-57964163D01*
X36450586Y-57964162D01*
X36596358Y-57903781D01*
X36751107Y-57873000D01*
X36908893Y-57873000D01*
X37063642Y-57903781D01*
X37063642Y-57903781D01*
G37*
G36*
X34523642Y-57903781D02*
G01*
X34669414Y-57964162D01*
X34669416Y-57964163D01*
X34800608Y-58051822D01*
X34912178Y-58163392D01*
X34999837Y-58294584D01*
X34999838Y-58294586D01*
X35060219Y-58440358D01*
X35091000Y-58595107D01*
X35091000Y-58752893D01*
X35060219Y-58907642D01*
X34999838Y-59053414D01*
X34999837Y-59053416D01*
X34912178Y-59184608D01*
X34800608Y-59296178D01*
X34669416Y-59383837D01*
X34669415Y-59383838D01*
X34669414Y-59383838D01*
X34523642Y-59444219D01*
X34368893Y-59475000D01*
X34211107Y-59475000D01*
X34056358Y-59444219D01*
X33910586Y-59383838D01*
X33910585Y-59383838D01*
X33910584Y-59383837D01*
X33779392Y-59296178D01*
X33667822Y-59184608D01*
X33580163Y-59053416D01*
X33580162Y-59053414D01*
X33519781Y-58907642D01*
X33489000Y-58752893D01*
X33489000Y-58595107D01*
X33519781Y-58440358D01*
X33580162Y-58294586D01*
X33580163Y-58294584D01*
X33667822Y-58163392D01*
X33779392Y-58051822D01*
X33910584Y-57964163D01*
X33910586Y-57964162D01*
X34056358Y-57903781D01*
X34211107Y-57873000D01*
X34368893Y-57873000D01*
X34523642Y-57903781D01*
X34523642Y-57903781D01*
G37*
G36*
X31983642Y-57903781D02*
G01*
X32129414Y-57964162D01*
X32129416Y-57964163D01*
X32260608Y-58051822D01*
X32372178Y-58163392D01*
X32459837Y-58294584D01*
X32459838Y-58294586D01*
X32520219Y-58440358D01*
X32551000Y-58595107D01*
X32551000Y-58752893D01*
X32520219Y-58907642D01*
X32459838Y-59053414D01*
X32459837Y-59053416D01*
X32372178Y-59184608D01*
X32260608Y-59296178D01*
X32129416Y-59383837D01*
X32129415Y-59383838D01*
X32129414Y-59383838D01*
X31983642Y-59444219D01*
X31828893Y-59475000D01*
X31671107Y-59475000D01*
X31516358Y-59444219D01*
X31370586Y-59383838D01*
X31370585Y-59383838D01*
X31370584Y-59383837D01*
X31239392Y-59296178D01*
X31127822Y-59184608D01*
X31040163Y-59053416D01*
X31040162Y-59053414D01*
X30979781Y-58907642D01*
X30949000Y-58752893D01*
X30949000Y-58595107D01*
X30979781Y-58440358D01*
X31040162Y-58294586D01*
X31040163Y-58294584D01*
X31127822Y-58163392D01*
X31239392Y-58051822D01*
X31370584Y-57964163D01*
X31370586Y-57964162D01*
X31516358Y-57903781D01*
X31671107Y-57873000D01*
X31828893Y-57873000D01*
X31983642Y-57903781D01*
X31983642Y-57903781D01*
G37*
G36*
X29443642Y-57903781D02*
G01*
X29589414Y-57964162D01*
X29589416Y-57964163D01*
X29720608Y-58051822D01*
X29832178Y-58163392D01*
X29919837Y-58294584D01*
X29919838Y-58294586D01*
X29980219Y-58440358D01*
X30011000Y-58595107D01*
X30011000Y-58752893D01*
X29980219Y-58907642D01*
X29919838Y-59053414D01*
X29919837Y-59053416D01*
X29832178Y-59184608D01*
X29720608Y-59296178D01*
X29589416Y-59383837D01*
X29589415Y-59383838D01*
X29589414Y-59383838D01*
X29443642Y-59444219D01*
X29288893Y-59475000D01*
X29131107Y-59475000D01*
X28976358Y-59444219D01*
X28830586Y-59383838D01*
X28830585Y-59383838D01*
X28830584Y-59383837D01*
X28699392Y-59296178D01*
X28587822Y-59184608D01*
X28500163Y-59053416D01*
X28500162Y-59053414D01*
X28439781Y-58907642D01*
X28409000Y-58752893D01*
X28409000Y-58595107D01*
X28439781Y-58440358D01*
X28500162Y-58294586D01*
X28500163Y-58294584D01*
X28587822Y-58163392D01*
X28699392Y-58051822D01*
X28830584Y-57964163D01*
X28830586Y-57964162D01*
X28976358Y-57903781D01*
X29131107Y-57873000D01*
X29288893Y-57873000D01*
X29443642Y-57903781D01*
X29443642Y-57903781D01*
G37*
G36*
X26903642Y-57903781D02*
G01*
X27049414Y-57964162D01*
X27049416Y-57964163D01*
X27180608Y-58051822D01*
X27292178Y-58163392D01*
X27379837Y-58294584D01*
X27379838Y-58294586D01*
X27440219Y-58440358D01*
X27471000Y-58595107D01*
X27471000Y-58752893D01*
X27440219Y-58907642D01*
X27379838Y-59053414D01*
X27379837Y-59053416D01*
X27292178Y-59184608D01*
X27180608Y-59296178D01*
X27049416Y-59383837D01*
X27049415Y-59383838D01*
X27049414Y-59383838D01*
X26903642Y-59444219D01*
X26748893Y-59475000D01*
X26591107Y-59475000D01*
X26436358Y-59444219D01*
X26290586Y-59383838D01*
X26290585Y-59383838D01*
X26290584Y-59383837D01*
X26159392Y-59296178D01*
X26047822Y-59184608D01*
X25960163Y-59053416D01*
X25960162Y-59053414D01*
X25899781Y-58907642D01*
X25869000Y-58752893D01*
X25869000Y-58595107D01*
X25899781Y-58440358D01*
X25960162Y-58294586D01*
X25960163Y-58294584D01*
X26047822Y-58163392D01*
X26159392Y-58051822D01*
X26290584Y-57964163D01*
X26290586Y-57964162D01*
X26436358Y-57903781D01*
X26591107Y-57873000D01*
X26748893Y-57873000D01*
X26903642Y-57903781D01*
X26903642Y-57903781D01*
G37*
G36*
X24363642Y-57903781D02*
G01*
X24509414Y-57964162D01*
X24509416Y-57964163D01*
X24640608Y-58051822D01*
X24752178Y-58163392D01*
X24839837Y-58294584D01*
X24839838Y-58294586D01*
X24900219Y-58440358D01*
X24931000Y-58595107D01*
X24931000Y-58752893D01*
X24900219Y-58907642D01*
X24839838Y-59053414D01*
X24839837Y-59053416D01*
X24752178Y-59184608D01*
X24640608Y-59296178D01*
X24509416Y-59383837D01*
X24509415Y-59383838D01*
X24509414Y-59383838D01*
X24363642Y-59444219D01*
X24208893Y-59475000D01*
X24051107Y-59475000D01*
X23896358Y-59444219D01*
X23750586Y-59383838D01*
X23750585Y-59383838D01*
X23750584Y-59383837D01*
X23619392Y-59296178D01*
X23507822Y-59184608D01*
X23420163Y-59053416D01*
X23420162Y-59053414D01*
X23359781Y-58907642D01*
X23329000Y-58752893D01*
X23329000Y-58595107D01*
X23359781Y-58440358D01*
X23420162Y-58294586D01*
X23420163Y-58294584D01*
X23507822Y-58163392D01*
X23619392Y-58051822D01*
X23750584Y-57964163D01*
X23750586Y-57964162D01*
X23896358Y-57903781D01*
X24051107Y-57873000D01*
X24208893Y-57873000D01*
X24363642Y-57903781D01*
X24363642Y-57903781D01*
G37*
G36*
X66408000Y-51624000D02*
G01*
X64506000Y-51624000D01*
X64506000Y-49722000D01*
X66408000Y-49722000D01*
X66408000Y-51624000D01*
X66408000Y-51624000D01*
G37*
G36*
X82394395Y-49758546D02*
G01*
X82567466Y-49830234D01*
X82567467Y-49830235D01*
X82723227Y-49934310D01*
X82855690Y-50066773D01*
X82855691Y-50066775D01*
X82959766Y-50222534D01*
X83031454Y-50395605D01*
X83068000Y-50579333D01*
X83068000Y-50766667D01*
X83031454Y-50950395D01*
X82959766Y-51123466D01*
X82959765Y-51123467D01*
X82855690Y-51279227D01*
X82723227Y-51411690D01*
X82644818Y-51464081D01*
X82567466Y-51515766D01*
X82394395Y-51587454D01*
X82210667Y-51624000D01*
X82023333Y-51624000D01*
X81839605Y-51587454D01*
X81666534Y-51515766D01*
X81589182Y-51464081D01*
X81510773Y-51411690D01*
X81378310Y-51279227D01*
X81274235Y-51123467D01*
X81274234Y-51123466D01*
X81202546Y-50950395D01*
X81166000Y-50766667D01*
X81166000Y-50579333D01*
X81202546Y-50395605D01*
X81274234Y-50222534D01*
X81378309Y-50066775D01*
X81378310Y-50066773D01*
X81510773Y-49934310D01*
X81666533Y-49830235D01*
X81666534Y-49830234D01*
X81839605Y-49758546D01*
X82023333Y-49722000D01*
X82210667Y-49722000D01*
X82394395Y-49758546D01*
X82394395Y-49758546D01*
G37*
G36*
X29443642Y-42663781D02*
G01*
X29589414Y-42724162D01*
X29589416Y-42724163D01*
X29720608Y-42811822D01*
X29832178Y-42923392D01*
X29919837Y-43054584D01*
X29919838Y-43054586D01*
X29980219Y-43200358D01*
X30011000Y-43355107D01*
X30011000Y-43512893D01*
X29980219Y-43667642D01*
X29919838Y-43813414D01*
X29919837Y-43813416D01*
X29832178Y-43944608D01*
X29720608Y-44056178D01*
X29589416Y-44143837D01*
X29589415Y-44143838D01*
X29589414Y-44143838D01*
X29443642Y-44204219D01*
X29288893Y-44235000D01*
X29131107Y-44235000D01*
X28976358Y-44204219D01*
X28830586Y-44143838D01*
X28830585Y-44143838D01*
X28830584Y-44143837D01*
X28699392Y-44056178D01*
X28587822Y-43944608D01*
X28500163Y-43813416D01*
X28500162Y-43813414D01*
X28439781Y-43667642D01*
X28409000Y-43512893D01*
X28409000Y-43355107D01*
X28439781Y-43200358D01*
X28500162Y-43054586D01*
X28500163Y-43054584D01*
X28587822Y-42923392D01*
X28699392Y-42811822D01*
X28830584Y-42724163D01*
X28830586Y-42724162D01*
X28976358Y-42663781D01*
X29131107Y-42633000D01*
X29288893Y-42633000D01*
X29443642Y-42663781D01*
X29443642Y-42663781D01*
G37*
G36*
X34523642Y-42663781D02*
G01*
X34669414Y-42724162D01*
X34669416Y-42724163D01*
X34800608Y-42811822D01*
X34912178Y-42923392D01*
X34999837Y-43054584D01*
X34999838Y-43054586D01*
X35060219Y-43200358D01*
X35091000Y-43355107D01*
X35091000Y-43512893D01*
X35060219Y-43667642D01*
X34999838Y-43813414D01*
X34999837Y-43813416D01*
X34912178Y-43944608D01*
X34800608Y-44056178D01*
X34669416Y-44143837D01*
X34669415Y-44143838D01*
X34669414Y-44143838D01*
X34523642Y-44204219D01*
X34368893Y-44235000D01*
X34211107Y-44235000D01*
X34056358Y-44204219D01*
X33910586Y-44143838D01*
X33910585Y-44143838D01*
X33910584Y-44143837D01*
X33779392Y-44056178D01*
X33667822Y-43944608D01*
X33580163Y-43813416D01*
X33580162Y-43813414D01*
X33519781Y-43667642D01*
X33489000Y-43512893D01*
X33489000Y-43355107D01*
X33519781Y-43200358D01*
X33580162Y-43054586D01*
X33580163Y-43054584D01*
X33667822Y-42923392D01*
X33779392Y-42811822D01*
X33910584Y-42724163D01*
X33910586Y-42724162D01*
X34056358Y-42663781D01*
X34211107Y-42633000D01*
X34368893Y-42633000D01*
X34523642Y-42663781D01*
X34523642Y-42663781D01*
G37*
G36*
X24931000Y-44235000D02*
G01*
X23329000Y-44235000D01*
X23329000Y-42633000D01*
X24931000Y-42633000D01*
X24931000Y-44235000D01*
X24931000Y-44235000D01*
G37*
G36*
X57383642Y-42663781D02*
G01*
X57529414Y-42724162D01*
X57529416Y-42724163D01*
X57660608Y-42811822D01*
X57772178Y-42923392D01*
X57859837Y-43054584D01*
X57859838Y-43054586D01*
X57920219Y-43200358D01*
X57951000Y-43355107D01*
X57951000Y-43512893D01*
X57920219Y-43667642D01*
X57859838Y-43813414D01*
X57859837Y-43813416D01*
X57772178Y-43944608D01*
X57660608Y-44056178D01*
X57529416Y-44143837D01*
X57529415Y-44143838D01*
X57529414Y-44143838D01*
X57383642Y-44204219D01*
X57228893Y-44235000D01*
X57071107Y-44235000D01*
X56916358Y-44204219D01*
X56770586Y-44143838D01*
X56770585Y-44143838D01*
X56770584Y-44143837D01*
X56639392Y-44056178D01*
X56527822Y-43944608D01*
X56440163Y-43813416D01*
X56440162Y-43813414D01*
X56379781Y-43667642D01*
X56349000Y-43512893D01*
X56349000Y-43355107D01*
X56379781Y-43200358D01*
X56440162Y-43054586D01*
X56440163Y-43054584D01*
X56527822Y-42923392D01*
X56639392Y-42811822D01*
X56770584Y-42724163D01*
X56770586Y-42724162D01*
X56916358Y-42663781D01*
X57071107Y-42633000D01*
X57228893Y-42633000D01*
X57383642Y-42663781D01*
X57383642Y-42663781D01*
G37*
G36*
X54843642Y-42663781D02*
G01*
X54989414Y-42724162D01*
X54989416Y-42724163D01*
X55120608Y-42811822D01*
X55232178Y-42923392D01*
X55319837Y-43054584D01*
X55319838Y-43054586D01*
X55380219Y-43200358D01*
X55411000Y-43355107D01*
X55411000Y-43512893D01*
X55380219Y-43667642D01*
X55319838Y-43813414D01*
X55319837Y-43813416D01*
X55232178Y-43944608D01*
X55120608Y-44056178D01*
X54989416Y-44143837D01*
X54989415Y-44143838D01*
X54989414Y-44143838D01*
X54843642Y-44204219D01*
X54688893Y-44235000D01*
X54531107Y-44235000D01*
X54376358Y-44204219D01*
X54230586Y-44143838D01*
X54230585Y-44143838D01*
X54230584Y-44143837D01*
X54099392Y-44056178D01*
X53987822Y-43944608D01*
X53900163Y-43813416D01*
X53900162Y-43813414D01*
X53839781Y-43667642D01*
X53809000Y-43512893D01*
X53809000Y-43355107D01*
X53839781Y-43200358D01*
X53900162Y-43054586D01*
X53900163Y-43054584D01*
X53987822Y-42923392D01*
X54099392Y-42811822D01*
X54230584Y-42724163D01*
X54230586Y-42724162D01*
X54376358Y-42663781D01*
X54531107Y-42633000D01*
X54688893Y-42633000D01*
X54843642Y-42663781D01*
X54843642Y-42663781D01*
G37*
G36*
X52303642Y-42663781D02*
G01*
X52449414Y-42724162D01*
X52449416Y-42724163D01*
X52580608Y-42811822D01*
X52692178Y-42923392D01*
X52779837Y-43054584D01*
X52779838Y-43054586D01*
X52840219Y-43200358D01*
X52871000Y-43355107D01*
X52871000Y-43512893D01*
X52840219Y-43667642D01*
X52779838Y-43813414D01*
X52779837Y-43813416D01*
X52692178Y-43944608D01*
X52580608Y-44056178D01*
X52449416Y-44143837D01*
X52449415Y-44143838D01*
X52449414Y-44143838D01*
X52303642Y-44204219D01*
X52148893Y-44235000D01*
X51991107Y-44235000D01*
X51836358Y-44204219D01*
X51690586Y-44143838D01*
X51690585Y-44143838D01*
X51690584Y-44143837D01*
X51559392Y-44056178D01*
X51447822Y-43944608D01*
X51360163Y-43813416D01*
X51360162Y-43813414D01*
X51299781Y-43667642D01*
X51269000Y-43512893D01*
X51269000Y-43355107D01*
X51299781Y-43200358D01*
X51360162Y-43054586D01*
X51360163Y-43054584D01*
X51447822Y-42923392D01*
X51559392Y-42811822D01*
X51690584Y-42724163D01*
X51690586Y-42724162D01*
X51836358Y-42663781D01*
X51991107Y-42633000D01*
X52148893Y-42633000D01*
X52303642Y-42663781D01*
X52303642Y-42663781D01*
G37*
G36*
X49763642Y-42663781D02*
G01*
X49909414Y-42724162D01*
X49909416Y-42724163D01*
X50040608Y-42811822D01*
X50152178Y-42923392D01*
X50239837Y-43054584D01*
X50239838Y-43054586D01*
X50300219Y-43200358D01*
X50331000Y-43355107D01*
X50331000Y-43512893D01*
X50300219Y-43667642D01*
X50239838Y-43813414D01*
X50239837Y-43813416D01*
X50152178Y-43944608D01*
X50040608Y-44056178D01*
X49909416Y-44143837D01*
X49909415Y-44143838D01*
X49909414Y-44143838D01*
X49763642Y-44204219D01*
X49608893Y-44235000D01*
X49451107Y-44235000D01*
X49296358Y-44204219D01*
X49150586Y-44143838D01*
X49150585Y-44143838D01*
X49150584Y-44143837D01*
X49019392Y-44056178D01*
X48907822Y-43944608D01*
X48820163Y-43813416D01*
X48820162Y-43813414D01*
X48759781Y-43667642D01*
X48729000Y-43512893D01*
X48729000Y-43355107D01*
X48759781Y-43200358D01*
X48820162Y-43054586D01*
X48820163Y-43054584D01*
X48907822Y-42923392D01*
X49019392Y-42811822D01*
X49150584Y-42724163D01*
X49150586Y-42724162D01*
X49296358Y-42663781D01*
X49451107Y-42633000D01*
X49608893Y-42633000D01*
X49763642Y-42663781D01*
X49763642Y-42663781D01*
G37*
G36*
X47223642Y-42663781D02*
G01*
X47369414Y-42724162D01*
X47369416Y-42724163D01*
X47500608Y-42811822D01*
X47612178Y-42923392D01*
X47699837Y-43054584D01*
X47699838Y-43054586D01*
X47760219Y-43200358D01*
X47791000Y-43355107D01*
X47791000Y-43512893D01*
X47760219Y-43667642D01*
X47699838Y-43813414D01*
X47699837Y-43813416D01*
X47612178Y-43944608D01*
X47500608Y-44056178D01*
X47369416Y-44143837D01*
X47369415Y-44143838D01*
X47369414Y-44143838D01*
X47223642Y-44204219D01*
X47068893Y-44235000D01*
X46911107Y-44235000D01*
X46756358Y-44204219D01*
X46610586Y-44143838D01*
X46610585Y-44143838D01*
X46610584Y-44143837D01*
X46479392Y-44056178D01*
X46367822Y-43944608D01*
X46280163Y-43813416D01*
X46280162Y-43813414D01*
X46219781Y-43667642D01*
X46189000Y-43512893D01*
X46189000Y-43355107D01*
X46219781Y-43200358D01*
X46280162Y-43054586D01*
X46280163Y-43054584D01*
X46367822Y-42923392D01*
X46479392Y-42811822D01*
X46610584Y-42724163D01*
X46610586Y-42724162D01*
X46756358Y-42663781D01*
X46911107Y-42633000D01*
X47068893Y-42633000D01*
X47223642Y-42663781D01*
X47223642Y-42663781D01*
G37*
G36*
X44683642Y-42663781D02*
G01*
X44829414Y-42724162D01*
X44829416Y-42724163D01*
X44960608Y-42811822D01*
X45072178Y-42923392D01*
X45159837Y-43054584D01*
X45159838Y-43054586D01*
X45220219Y-43200358D01*
X45251000Y-43355107D01*
X45251000Y-43512893D01*
X45220219Y-43667642D01*
X45159838Y-43813414D01*
X45159837Y-43813416D01*
X45072178Y-43944608D01*
X44960608Y-44056178D01*
X44829416Y-44143837D01*
X44829415Y-44143838D01*
X44829414Y-44143838D01*
X44683642Y-44204219D01*
X44528893Y-44235000D01*
X44371107Y-44235000D01*
X44216358Y-44204219D01*
X44070586Y-44143838D01*
X44070585Y-44143838D01*
X44070584Y-44143837D01*
X43939392Y-44056178D01*
X43827822Y-43944608D01*
X43740163Y-43813416D01*
X43740162Y-43813414D01*
X43679781Y-43667642D01*
X43649000Y-43512893D01*
X43649000Y-43355107D01*
X43679781Y-43200358D01*
X43740162Y-43054586D01*
X43740163Y-43054584D01*
X43827822Y-42923392D01*
X43939392Y-42811822D01*
X44070584Y-42724163D01*
X44070586Y-42724162D01*
X44216358Y-42663781D01*
X44371107Y-42633000D01*
X44528893Y-42633000D01*
X44683642Y-42663781D01*
X44683642Y-42663781D01*
G37*
G36*
X42143642Y-42663781D02*
G01*
X42289414Y-42724162D01*
X42289416Y-42724163D01*
X42420608Y-42811822D01*
X42532178Y-42923392D01*
X42619837Y-43054584D01*
X42619838Y-43054586D01*
X42680219Y-43200358D01*
X42711000Y-43355107D01*
X42711000Y-43512893D01*
X42680219Y-43667642D01*
X42619838Y-43813414D01*
X42619837Y-43813416D01*
X42532178Y-43944608D01*
X42420608Y-44056178D01*
X42289416Y-44143837D01*
X42289415Y-44143838D01*
X42289414Y-44143838D01*
X42143642Y-44204219D01*
X41988893Y-44235000D01*
X41831107Y-44235000D01*
X41676358Y-44204219D01*
X41530586Y-44143838D01*
X41530585Y-44143838D01*
X41530584Y-44143837D01*
X41399392Y-44056178D01*
X41287822Y-43944608D01*
X41200163Y-43813416D01*
X41200162Y-43813414D01*
X41139781Y-43667642D01*
X41109000Y-43512893D01*
X41109000Y-43355107D01*
X41139781Y-43200358D01*
X41200162Y-43054586D01*
X41200163Y-43054584D01*
X41287822Y-42923392D01*
X41399392Y-42811822D01*
X41530584Y-42724163D01*
X41530586Y-42724162D01*
X41676358Y-42663781D01*
X41831107Y-42633000D01*
X41988893Y-42633000D01*
X42143642Y-42663781D01*
X42143642Y-42663781D01*
G37*
G36*
X39603642Y-42663781D02*
G01*
X39749414Y-42724162D01*
X39749416Y-42724163D01*
X39880608Y-42811822D01*
X39992178Y-42923392D01*
X40079837Y-43054584D01*
X40079838Y-43054586D01*
X40140219Y-43200358D01*
X40171000Y-43355107D01*
X40171000Y-43512893D01*
X40140219Y-43667642D01*
X40079838Y-43813414D01*
X40079837Y-43813416D01*
X39992178Y-43944608D01*
X39880608Y-44056178D01*
X39749416Y-44143837D01*
X39749415Y-44143838D01*
X39749414Y-44143838D01*
X39603642Y-44204219D01*
X39448893Y-44235000D01*
X39291107Y-44235000D01*
X39136358Y-44204219D01*
X38990586Y-44143838D01*
X38990585Y-44143838D01*
X38990584Y-44143837D01*
X38859392Y-44056178D01*
X38747822Y-43944608D01*
X38660163Y-43813416D01*
X38660162Y-43813414D01*
X38599781Y-43667642D01*
X38569000Y-43512893D01*
X38569000Y-43355107D01*
X38599781Y-43200358D01*
X38660162Y-43054586D01*
X38660163Y-43054584D01*
X38747822Y-42923392D01*
X38859392Y-42811822D01*
X38990584Y-42724163D01*
X38990586Y-42724162D01*
X39136358Y-42663781D01*
X39291107Y-42633000D01*
X39448893Y-42633000D01*
X39603642Y-42663781D01*
X39603642Y-42663781D01*
G37*
G36*
X37063642Y-42663781D02*
G01*
X37209414Y-42724162D01*
X37209416Y-42724163D01*
X37340608Y-42811822D01*
X37452178Y-42923392D01*
X37539837Y-43054584D01*
X37539838Y-43054586D01*
X37600219Y-43200358D01*
X37631000Y-43355107D01*
X37631000Y-43512893D01*
X37600219Y-43667642D01*
X37539838Y-43813414D01*
X37539837Y-43813416D01*
X37452178Y-43944608D01*
X37340608Y-44056178D01*
X37209416Y-44143837D01*
X37209415Y-44143838D01*
X37209414Y-44143838D01*
X37063642Y-44204219D01*
X36908893Y-44235000D01*
X36751107Y-44235000D01*
X36596358Y-44204219D01*
X36450586Y-44143838D01*
X36450585Y-44143838D01*
X36450584Y-44143837D01*
X36319392Y-44056178D01*
X36207822Y-43944608D01*
X36120163Y-43813416D01*
X36120162Y-43813414D01*
X36059781Y-43667642D01*
X36029000Y-43512893D01*
X36029000Y-43355107D01*
X36059781Y-43200358D01*
X36120162Y-43054586D01*
X36120163Y-43054584D01*
X36207822Y-42923392D01*
X36319392Y-42811822D01*
X36450584Y-42724163D01*
X36450586Y-42724162D01*
X36596358Y-42663781D01*
X36751107Y-42633000D01*
X36908893Y-42633000D01*
X37063642Y-42663781D01*
X37063642Y-42663781D01*
G37*
G36*
X31983642Y-42663781D02*
G01*
X32129414Y-42724162D01*
X32129416Y-42724163D01*
X32260608Y-42811822D01*
X32372178Y-42923392D01*
X32459837Y-43054584D01*
X32459838Y-43054586D01*
X32520219Y-43200358D01*
X32551000Y-43355107D01*
X32551000Y-43512893D01*
X32520219Y-43667642D01*
X32459838Y-43813414D01*
X32459837Y-43813416D01*
X32372178Y-43944608D01*
X32260608Y-44056178D01*
X32129416Y-44143837D01*
X32129415Y-44143838D01*
X32129414Y-44143838D01*
X31983642Y-44204219D01*
X31828893Y-44235000D01*
X31671107Y-44235000D01*
X31516358Y-44204219D01*
X31370586Y-44143838D01*
X31370585Y-44143838D01*
X31370584Y-44143837D01*
X31239392Y-44056178D01*
X31127822Y-43944608D01*
X31040163Y-43813416D01*
X31040162Y-43813414D01*
X30979781Y-43667642D01*
X30949000Y-43512893D01*
X30949000Y-43355107D01*
X30979781Y-43200358D01*
X31040162Y-43054586D01*
X31040163Y-43054584D01*
X31127822Y-42923392D01*
X31239392Y-42811822D01*
X31370584Y-42724163D01*
X31370586Y-42724162D01*
X31516358Y-42663781D01*
X31671107Y-42633000D01*
X31828893Y-42633000D01*
X31983642Y-42663781D01*
X31983642Y-42663781D01*
G37*
G36*
X26903642Y-42663781D02*
G01*
X27049414Y-42724162D01*
X27049416Y-42724163D01*
X27180608Y-42811822D01*
X27292178Y-42923392D01*
X27379837Y-43054584D01*
X27379838Y-43054586D01*
X27440219Y-43200358D01*
X27471000Y-43355107D01*
X27471000Y-43512893D01*
X27440219Y-43667642D01*
X27379838Y-43813414D01*
X27379837Y-43813416D01*
X27292178Y-43944608D01*
X27180608Y-44056178D01*
X27049416Y-44143837D01*
X27049415Y-44143838D01*
X27049414Y-44143838D01*
X26903642Y-44204219D01*
X26748893Y-44235000D01*
X26591107Y-44235000D01*
X26436358Y-44204219D01*
X26290586Y-44143838D01*
X26290585Y-44143838D01*
X26290584Y-44143837D01*
X26159392Y-44056178D01*
X26047822Y-43944608D01*
X25960163Y-43813416D01*
X25960162Y-43813414D01*
X25899781Y-43667642D01*
X25869000Y-43512893D01*
X25869000Y-43355107D01*
X25899781Y-43200358D01*
X25960162Y-43054586D01*
X25960163Y-43054584D01*
X26047822Y-42923392D01*
X26159392Y-42811822D01*
X26290584Y-42724163D01*
X26290586Y-42724162D01*
X26436358Y-42663781D01*
X26591107Y-42633000D01*
X26748893Y-42633000D01*
X26903642Y-42663781D01*
X26903642Y-42663781D01*
G37*
G36*
X74913142Y-38080242D02*
G01*
X75061101Y-38141529D01*
X75194255Y-38230499D01*
X75307501Y-38343745D01*
X75396471Y-38476899D01*
X75457758Y-38624858D01*
X75489000Y-38781925D01*
X75489000Y-38942075D01*
X75457758Y-39099142D01*
X75396471Y-39247101D01*
X75307501Y-39380255D01*
X75194255Y-39493501D01*
X75061101Y-39582471D01*
X74913142Y-39643758D01*
X74756075Y-39675000D01*
X74595925Y-39675000D01*
X74438858Y-39643758D01*
X74290899Y-39582471D01*
X74157745Y-39493501D01*
X74044499Y-39380255D01*
X73955529Y-39247101D01*
X73894242Y-39099142D01*
X73863000Y-38942075D01*
X73863000Y-38781925D01*
X73894242Y-38624858D01*
X73955529Y-38476899D01*
X74044499Y-38343745D01*
X74157745Y-38230499D01*
X74290899Y-38141529D01*
X74438858Y-38080242D01*
X74595925Y-38049000D01*
X74756075Y-38049000D01*
X74913142Y-38080242D01*
X74913142Y-38080242D01*
G37*
G36*
X72373142Y-38080242D02*
G01*
X72521101Y-38141529D01*
X72654255Y-38230499D01*
X72767501Y-38343745D01*
X72856471Y-38476899D01*
X72917758Y-38624858D01*
X72949000Y-38781925D01*
X72949000Y-38942075D01*
X72917758Y-39099142D01*
X72856471Y-39247101D01*
X72767501Y-39380255D01*
X72654255Y-39493501D01*
X72521101Y-39582471D01*
X72373142Y-39643758D01*
X72216075Y-39675000D01*
X72055925Y-39675000D01*
X71898858Y-39643758D01*
X71750899Y-39582471D01*
X71617745Y-39493501D01*
X71504499Y-39380255D01*
X71415529Y-39247101D01*
X71354242Y-39099142D01*
X71323000Y-38942075D01*
X71323000Y-38781925D01*
X71354242Y-38624858D01*
X71415529Y-38476899D01*
X71504499Y-38343745D01*
X71617745Y-38230499D01*
X71750899Y-38141529D01*
X71898858Y-38080242D01*
X72055925Y-38049000D01*
X72216075Y-38049000D01*
X72373142Y-38080242D01*
X72373142Y-38080242D01*
G37*
G36*
X82533142Y-38080242D02*
G01*
X82681101Y-38141529D01*
X82814255Y-38230499D01*
X82927501Y-38343745D01*
X83016471Y-38476899D01*
X83077758Y-38624858D01*
X83109000Y-38781925D01*
X83109000Y-38942075D01*
X83077758Y-39099142D01*
X83016471Y-39247101D01*
X82927501Y-39380255D01*
X82814255Y-39493501D01*
X82681101Y-39582471D01*
X82533142Y-39643758D01*
X82376075Y-39675000D01*
X82215925Y-39675000D01*
X82058858Y-39643758D01*
X81910899Y-39582471D01*
X81777745Y-39493501D01*
X81664499Y-39380255D01*
X81575529Y-39247101D01*
X81514242Y-39099142D01*
X81483000Y-38942075D01*
X81483000Y-38781925D01*
X81514242Y-38624858D01*
X81575529Y-38476899D01*
X81664499Y-38343745D01*
X81777745Y-38230499D01*
X81910899Y-38141529D01*
X82058858Y-38080242D01*
X82215925Y-38049000D01*
X82376075Y-38049000D01*
X82533142Y-38080242D01*
X82533142Y-38080242D01*
G37*
G36*
X79993142Y-38080242D02*
G01*
X80141101Y-38141529D01*
X80274255Y-38230499D01*
X80387501Y-38343745D01*
X80476471Y-38476899D01*
X80537758Y-38624858D01*
X80569000Y-38781925D01*
X80569000Y-38942075D01*
X80537758Y-39099142D01*
X80476471Y-39247101D01*
X80387501Y-39380255D01*
X80274255Y-39493501D01*
X80141101Y-39582471D01*
X79993142Y-39643758D01*
X79836075Y-39675000D01*
X79675925Y-39675000D01*
X79518858Y-39643758D01*
X79370899Y-39582471D01*
X79237745Y-39493501D01*
X79124499Y-39380255D01*
X79035529Y-39247101D01*
X78974242Y-39099142D01*
X78943000Y-38942075D01*
X78943000Y-38781925D01*
X78974242Y-38624858D01*
X79035529Y-38476899D01*
X79124499Y-38343745D01*
X79237745Y-38230499D01*
X79370899Y-38141529D01*
X79518858Y-38080242D01*
X79675925Y-38049000D01*
X79836075Y-38049000D01*
X79993142Y-38080242D01*
X79993142Y-38080242D01*
G37*
G36*
X77453142Y-38080242D02*
G01*
X77601101Y-38141529D01*
X77734255Y-38230499D01*
X77847501Y-38343745D01*
X77936471Y-38476899D01*
X77997758Y-38624858D01*
X78029000Y-38781925D01*
X78029000Y-38942075D01*
X77997758Y-39099142D01*
X77936471Y-39247101D01*
X77847501Y-39380255D01*
X77734255Y-39493501D01*
X77601101Y-39582471D01*
X77453142Y-39643758D01*
X77296075Y-39675000D01*
X77135925Y-39675000D01*
X76978858Y-39643758D01*
X76830899Y-39582471D01*
X76697745Y-39493501D01*
X76584499Y-39380255D01*
X76495529Y-39247101D01*
X76434242Y-39099142D01*
X76403000Y-38942075D01*
X76403000Y-38781925D01*
X76434242Y-38624858D01*
X76495529Y-38476899D01*
X76584499Y-38343745D01*
X76697745Y-38230499D01*
X76830899Y-38141529D01*
X76978858Y-38080242D01*
X77135925Y-38049000D01*
X77296075Y-38049000D01*
X77453142Y-38080242D01*
X77453142Y-38080242D01*
G37*
G36*
X69833142Y-38080242D02*
G01*
X69981101Y-38141529D01*
X70114255Y-38230499D01*
X70227501Y-38343745D01*
X70316471Y-38476899D01*
X70377758Y-38624858D01*
X70409000Y-38781925D01*
X70409000Y-38942075D01*
X70377758Y-39099142D01*
X70316471Y-39247101D01*
X70227501Y-39380255D01*
X70114255Y-39493501D01*
X69981101Y-39582471D01*
X69833142Y-39643758D01*
X69676075Y-39675000D01*
X69515925Y-39675000D01*
X69358858Y-39643758D01*
X69210899Y-39582471D01*
X69077745Y-39493501D01*
X68964499Y-39380255D01*
X68875529Y-39247101D01*
X68814242Y-39099142D01*
X68783000Y-38942075D01*
X68783000Y-38781925D01*
X68814242Y-38624858D01*
X68875529Y-38476899D01*
X68964499Y-38343745D01*
X69077745Y-38230499D01*
X69210899Y-38141529D01*
X69358858Y-38080242D01*
X69515925Y-38049000D01*
X69676075Y-38049000D01*
X69833142Y-38080242D01*
X69833142Y-38080242D01*
G37*
G36*
X67293142Y-38080242D02*
G01*
X67441101Y-38141529D01*
X67574255Y-38230499D01*
X67687501Y-38343745D01*
X67776471Y-38476899D01*
X67837758Y-38624858D01*
X67869000Y-38781925D01*
X67869000Y-38942075D01*
X67837758Y-39099142D01*
X67776471Y-39247101D01*
X67687501Y-39380255D01*
X67574255Y-39493501D01*
X67441101Y-39582471D01*
X67293142Y-39643758D01*
X67136075Y-39675000D01*
X66975925Y-39675000D01*
X66818858Y-39643758D01*
X66670899Y-39582471D01*
X66537745Y-39493501D01*
X66424499Y-39380255D01*
X66335529Y-39247101D01*
X66274242Y-39099142D01*
X66243000Y-38942075D01*
X66243000Y-38781925D01*
X66274242Y-38624858D01*
X66335529Y-38476899D01*
X66424499Y-38343745D01*
X66537745Y-38230499D01*
X66670899Y-38141529D01*
X66818858Y-38080242D01*
X66975925Y-38049000D01*
X67136075Y-38049000D01*
X67293142Y-38080242D01*
X67293142Y-38080242D01*
G37*
G36*
X65329000Y-39675000D02*
G01*
X63703000Y-39675000D01*
X63703000Y-38049000D01*
X65329000Y-38049000D01*
X65329000Y-39675000D01*
X65329000Y-39675000D01*
G37*
G36*
X31970942Y-38091781D02*
G01*
X32116714Y-38152162D01*
X32116716Y-38152163D01*
X32247908Y-38239822D01*
X32359478Y-38351392D01*
X32443338Y-38476899D01*
X32447138Y-38482586D01*
X32507519Y-38628358D01*
X32538300Y-38783107D01*
X32538300Y-38940893D01*
X32507519Y-39095642D01*
X32447138Y-39241414D01*
X32447137Y-39241416D01*
X32359478Y-39372608D01*
X32247908Y-39484178D01*
X32116716Y-39571837D01*
X32116715Y-39571838D01*
X32116714Y-39571838D01*
X31970942Y-39632219D01*
X31816193Y-39663000D01*
X31658407Y-39663000D01*
X31503658Y-39632219D01*
X31357886Y-39571838D01*
X31357885Y-39571838D01*
X31357884Y-39571837D01*
X31226692Y-39484178D01*
X31115122Y-39372608D01*
X31027463Y-39241416D01*
X31027462Y-39241414D01*
X30967081Y-39095642D01*
X30936300Y-38940893D01*
X30936300Y-38783107D01*
X30967081Y-38628358D01*
X31027462Y-38482586D01*
X31031262Y-38476899D01*
X31115122Y-38351392D01*
X31226692Y-38239822D01*
X31357884Y-38152163D01*
X31357886Y-38152162D01*
X31503658Y-38091781D01*
X31658407Y-38061000D01*
X31816193Y-38061000D01*
X31970942Y-38091781D01*
X31970942Y-38091781D01*
G37*
G36*
X52290942Y-38091781D02*
G01*
X52436714Y-38152162D01*
X52436716Y-38152163D01*
X52567908Y-38239822D01*
X52679478Y-38351392D01*
X52763338Y-38476899D01*
X52767138Y-38482586D01*
X52827519Y-38628358D01*
X52858300Y-38783107D01*
X52858300Y-38940893D01*
X52827519Y-39095642D01*
X52767138Y-39241414D01*
X52767137Y-39241416D01*
X52679478Y-39372608D01*
X52567908Y-39484178D01*
X52436716Y-39571837D01*
X52436715Y-39571838D01*
X52436714Y-39571838D01*
X52290942Y-39632219D01*
X52136193Y-39663000D01*
X51978407Y-39663000D01*
X51823658Y-39632219D01*
X51677886Y-39571838D01*
X51677885Y-39571838D01*
X51677884Y-39571837D01*
X51546692Y-39484178D01*
X51435122Y-39372608D01*
X51347463Y-39241416D01*
X51347462Y-39241414D01*
X51287081Y-39095642D01*
X51256300Y-38940893D01*
X51256300Y-38783107D01*
X51287081Y-38628358D01*
X51347462Y-38482586D01*
X51351262Y-38476899D01*
X51435122Y-38351392D01*
X51546692Y-38239822D01*
X51677884Y-38152163D01*
X51677886Y-38152162D01*
X51823658Y-38091781D01*
X51978407Y-38061000D01*
X52136193Y-38061000D01*
X52290942Y-38091781D01*
X52290942Y-38091781D01*
G37*
G36*
X59910942Y-38091781D02*
G01*
X60056714Y-38152162D01*
X60056716Y-38152163D01*
X60187908Y-38239822D01*
X60299478Y-38351392D01*
X60383338Y-38476899D01*
X60387138Y-38482586D01*
X60447519Y-38628358D01*
X60478300Y-38783107D01*
X60478300Y-38940893D01*
X60447519Y-39095642D01*
X60387138Y-39241414D01*
X60387137Y-39241416D01*
X60299478Y-39372608D01*
X60187908Y-39484178D01*
X60056716Y-39571837D01*
X60056715Y-39571838D01*
X60056714Y-39571838D01*
X59910942Y-39632219D01*
X59756193Y-39663000D01*
X59598407Y-39663000D01*
X59443658Y-39632219D01*
X59297886Y-39571838D01*
X59297885Y-39571838D01*
X59297884Y-39571837D01*
X59166692Y-39484178D01*
X59055122Y-39372608D01*
X58967463Y-39241416D01*
X58967462Y-39241414D01*
X58907081Y-39095642D01*
X58876300Y-38940893D01*
X58876300Y-38783107D01*
X58907081Y-38628358D01*
X58967462Y-38482586D01*
X58971262Y-38476899D01*
X59055122Y-38351392D01*
X59166692Y-38239822D01*
X59297884Y-38152163D01*
X59297886Y-38152162D01*
X59443658Y-38091781D01*
X59598407Y-38061000D01*
X59756193Y-38061000D01*
X59910942Y-38091781D01*
X59910942Y-38091781D01*
G37*
G36*
X57370942Y-38091781D02*
G01*
X57516714Y-38152162D01*
X57516716Y-38152163D01*
X57647908Y-38239822D01*
X57759478Y-38351392D01*
X57843338Y-38476899D01*
X57847138Y-38482586D01*
X57907519Y-38628358D01*
X57938300Y-38783107D01*
X57938300Y-38940893D01*
X57907519Y-39095642D01*
X57847138Y-39241414D01*
X57847137Y-39241416D01*
X57759478Y-39372608D01*
X57647908Y-39484178D01*
X57516716Y-39571837D01*
X57516715Y-39571838D01*
X57516714Y-39571838D01*
X57370942Y-39632219D01*
X57216193Y-39663000D01*
X57058407Y-39663000D01*
X56903658Y-39632219D01*
X56757886Y-39571838D01*
X56757885Y-39571838D01*
X56757884Y-39571837D01*
X56626692Y-39484178D01*
X56515122Y-39372608D01*
X56427463Y-39241416D01*
X56427462Y-39241414D01*
X56367081Y-39095642D01*
X56336300Y-38940893D01*
X56336300Y-38783107D01*
X56367081Y-38628358D01*
X56427462Y-38482586D01*
X56431262Y-38476899D01*
X56515122Y-38351392D01*
X56626692Y-38239822D01*
X56757884Y-38152163D01*
X56757886Y-38152162D01*
X56903658Y-38091781D01*
X57058407Y-38061000D01*
X57216193Y-38061000D01*
X57370942Y-38091781D01*
X57370942Y-38091781D01*
G37*
G36*
X54830942Y-38091781D02*
G01*
X54976714Y-38152162D01*
X54976716Y-38152163D01*
X55107908Y-38239822D01*
X55219478Y-38351392D01*
X55303338Y-38476899D01*
X55307138Y-38482586D01*
X55367519Y-38628358D01*
X55398300Y-38783107D01*
X55398300Y-38940893D01*
X55367519Y-39095642D01*
X55307138Y-39241414D01*
X55307137Y-39241416D01*
X55219478Y-39372608D01*
X55107908Y-39484178D01*
X54976716Y-39571837D01*
X54976715Y-39571838D01*
X54976714Y-39571838D01*
X54830942Y-39632219D01*
X54676193Y-39663000D01*
X54518407Y-39663000D01*
X54363658Y-39632219D01*
X54217886Y-39571838D01*
X54217885Y-39571838D01*
X54217884Y-39571837D01*
X54086692Y-39484178D01*
X53975122Y-39372608D01*
X53887463Y-39241416D01*
X53887462Y-39241414D01*
X53827081Y-39095642D01*
X53796300Y-38940893D01*
X53796300Y-38783107D01*
X53827081Y-38628358D01*
X53887462Y-38482586D01*
X53891262Y-38476899D01*
X53975122Y-38351392D01*
X54086692Y-38239822D01*
X54217884Y-38152163D01*
X54217886Y-38152162D01*
X54363658Y-38091781D01*
X54518407Y-38061000D01*
X54676193Y-38061000D01*
X54830942Y-38091781D01*
X54830942Y-38091781D01*
G37*
G36*
X49750942Y-38091781D02*
G01*
X49896714Y-38152162D01*
X49896716Y-38152163D01*
X50027908Y-38239822D01*
X50139478Y-38351392D01*
X50223338Y-38476899D01*
X50227138Y-38482586D01*
X50287519Y-38628358D01*
X50318300Y-38783107D01*
X50318300Y-38940893D01*
X50287519Y-39095642D01*
X50227138Y-39241414D01*
X50227137Y-39241416D01*
X50139478Y-39372608D01*
X50027908Y-39484178D01*
X49896716Y-39571837D01*
X49896715Y-39571838D01*
X49896714Y-39571838D01*
X49750942Y-39632219D01*
X49596193Y-39663000D01*
X49438407Y-39663000D01*
X49283658Y-39632219D01*
X49137886Y-39571838D01*
X49137885Y-39571838D01*
X49137884Y-39571837D01*
X49006692Y-39484178D01*
X48895122Y-39372608D01*
X48807463Y-39241416D01*
X48807462Y-39241414D01*
X48747081Y-39095642D01*
X48716300Y-38940893D01*
X48716300Y-38783107D01*
X48747081Y-38628358D01*
X48807462Y-38482586D01*
X48811262Y-38476899D01*
X48895122Y-38351392D01*
X49006692Y-38239822D01*
X49137884Y-38152163D01*
X49137886Y-38152162D01*
X49283658Y-38091781D01*
X49438407Y-38061000D01*
X49596193Y-38061000D01*
X49750942Y-38091781D01*
X49750942Y-38091781D01*
G37*
G36*
X47210942Y-38091781D02*
G01*
X47356714Y-38152162D01*
X47356716Y-38152163D01*
X47487908Y-38239822D01*
X47599478Y-38351392D01*
X47683338Y-38476899D01*
X47687138Y-38482586D01*
X47747519Y-38628358D01*
X47778300Y-38783107D01*
X47778300Y-38940893D01*
X47747519Y-39095642D01*
X47687138Y-39241414D01*
X47687137Y-39241416D01*
X47599478Y-39372608D01*
X47487908Y-39484178D01*
X47356716Y-39571837D01*
X47356715Y-39571838D01*
X47356714Y-39571838D01*
X47210942Y-39632219D01*
X47056193Y-39663000D01*
X46898407Y-39663000D01*
X46743658Y-39632219D01*
X46597886Y-39571838D01*
X46597885Y-39571838D01*
X46597884Y-39571837D01*
X46466692Y-39484178D01*
X46355122Y-39372608D01*
X46267463Y-39241416D01*
X46267462Y-39241414D01*
X46207081Y-39095642D01*
X46176300Y-38940893D01*
X46176300Y-38783107D01*
X46207081Y-38628358D01*
X46267462Y-38482586D01*
X46271262Y-38476899D01*
X46355122Y-38351392D01*
X46466692Y-38239822D01*
X46597884Y-38152163D01*
X46597886Y-38152162D01*
X46743658Y-38091781D01*
X46898407Y-38061000D01*
X47056193Y-38061000D01*
X47210942Y-38091781D01*
X47210942Y-38091781D01*
G37*
G36*
X44670942Y-38091781D02*
G01*
X44816714Y-38152162D01*
X44816716Y-38152163D01*
X44947908Y-38239822D01*
X45059478Y-38351392D01*
X45143338Y-38476899D01*
X45147138Y-38482586D01*
X45207519Y-38628358D01*
X45238300Y-38783107D01*
X45238300Y-38940893D01*
X45207519Y-39095642D01*
X45147138Y-39241414D01*
X45147137Y-39241416D01*
X45059478Y-39372608D01*
X44947908Y-39484178D01*
X44816716Y-39571837D01*
X44816715Y-39571838D01*
X44816714Y-39571838D01*
X44670942Y-39632219D01*
X44516193Y-39663000D01*
X44358407Y-39663000D01*
X44203658Y-39632219D01*
X44057886Y-39571838D01*
X44057885Y-39571838D01*
X44057884Y-39571837D01*
X43926692Y-39484178D01*
X43815122Y-39372608D01*
X43727463Y-39241416D01*
X43727462Y-39241414D01*
X43667081Y-39095642D01*
X43636300Y-38940893D01*
X43636300Y-38783107D01*
X43667081Y-38628358D01*
X43727462Y-38482586D01*
X43731262Y-38476899D01*
X43815122Y-38351392D01*
X43926692Y-38239822D01*
X44057884Y-38152163D01*
X44057886Y-38152162D01*
X44203658Y-38091781D01*
X44358407Y-38061000D01*
X44516193Y-38061000D01*
X44670942Y-38091781D01*
X44670942Y-38091781D01*
G37*
G36*
X27458300Y-39663000D02*
G01*
X25856300Y-39663000D01*
X25856300Y-38061000D01*
X27458300Y-38061000D01*
X27458300Y-39663000D01*
X27458300Y-39663000D01*
G37*
G36*
X29430942Y-38091781D02*
G01*
X29576714Y-38152162D01*
X29576716Y-38152163D01*
X29707908Y-38239822D01*
X29819478Y-38351392D01*
X29903338Y-38476899D01*
X29907138Y-38482586D01*
X29967519Y-38628358D01*
X29998300Y-38783107D01*
X29998300Y-38940893D01*
X29967519Y-39095642D01*
X29907138Y-39241414D01*
X29907137Y-39241416D01*
X29819478Y-39372608D01*
X29707908Y-39484178D01*
X29576716Y-39571837D01*
X29576715Y-39571838D01*
X29576714Y-39571838D01*
X29430942Y-39632219D01*
X29276193Y-39663000D01*
X29118407Y-39663000D01*
X28963658Y-39632219D01*
X28817886Y-39571838D01*
X28817885Y-39571838D01*
X28817884Y-39571837D01*
X28686692Y-39484178D01*
X28575122Y-39372608D01*
X28487463Y-39241416D01*
X28487462Y-39241414D01*
X28427081Y-39095642D01*
X28396300Y-38940893D01*
X28396300Y-38783107D01*
X28427081Y-38628358D01*
X28487462Y-38482586D01*
X28491262Y-38476899D01*
X28575122Y-38351392D01*
X28686692Y-38239822D01*
X28817884Y-38152163D01*
X28817886Y-38152162D01*
X28963658Y-38091781D01*
X29118407Y-38061000D01*
X29276193Y-38061000D01*
X29430942Y-38091781D01*
X29430942Y-38091781D01*
G37*
G36*
X34510942Y-38091781D02*
G01*
X34656714Y-38152162D01*
X34656716Y-38152163D01*
X34787908Y-38239822D01*
X34899478Y-38351392D01*
X34983338Y-38476899D01*
X34987138Y-38482586D01*
X35047519Y-38628358D01*
X35078300Y-38783107D01*
X35078300Y-38940893D01*
X35047519Y-39095642D01*
X34987138Y-39241414D01*
X34987137Y-39241416D01*
X34899478Y-39372608D01*
X34787908Y-39484178D01*
X34656716Y-39571837D01*
X34656715Y-39571838D01*
X34656714Y-39571838D01*
X34510942Y-39632219D01*
X34356193Y-39663000D01*
X34198407Y-39663000D01*
X34043658Y-39632219D01*
X33897886Y-39571838D01*
X33897885Y-39571838D01*
X33897884Y-39571837D01*
X33766692Y-39484178D01*
X33655122Y-39372608D01*
X33567463Y-39241416D01*
X33567462Y-39241414D01*
X33507081Y-39095642D01*
X33476300Y-38940893D01*
X33476300Y-38783107D01*
X33507081Y-38628358D01*
X33567462Y-38482586D01*
X33571262Y-38476899D01*
X33655122Y-38351392D01*
X33766692Y-38239822D01*
X33897884Y-38152163D01*
X33897886Y-38152162D01*
X34043658Y-38091781D01*
X34198407Y-38061000D01*
X34356193Y-38061000D01*
X34510942Y-38091781D01*
X34510942Y-38091781D01*
G37*
G36*
X37050942Y-38091781D02*
G01*
X37196714Y-38152162D01*
X37196716Y-38152163D01*
X37327908Y-38239822D01*
X37439478Y-38351392D01*
X37523338Y-38476899D01*
X37527138Y-38482586D01*
X37587519Y-38628358D01*
X37618300Y-38783107D01*
X37618300Y-38940893D01*
X37587519Y-39095642D01*
X37527138Y-39241414D01*
X37527137Y-39241416D01*
X37439478Y-39372608D01*
X37327908Y-39484178D01*
X37196716Y-39571837D01*
X37196715Y-39571838D01*
X37196714Y-39571838D01*
X37050942Y-39632219D01*
X36896193Y-39663000D01*
X36738407Y-39663000D01*
X36583658Y-39632219D01*
X36437886Y-39571838D01*
X36437885Y-39571838D01*
X36437884Y-39571837D01*
X36306692Y-39484178D01*
X36195122Y-39372608D01*
X36107463Y-39241416D01*
X36107462Y-39241414D01*
X36047081Y-39095642D01*
X36016300Y-38940893D01*
X36016300Y-38783107D01*
X36047081Y-38628358D01*
X36107462Y-38482586D01*
X36111262Y-38476899D01*
X36195122Y-38351392D01*
X36306692Y-38239822D01*
X36437884Y-38152163D01*
X36437886Y-38152162D01*
X36583658Y-38091781D01*
X36738407Y-38061000D01*
X36896193Y-38061000D01*
X37050942Y-38091781D01*
X37050942Y-38091781D01*
G37*
G36*
X39590942Y-38091781D02*
G01*
X39736714Y-38152162D01*
X39736716Y-38152163D01*
X39867908Y-38239822D01*
X39979478Y-38351392D01*
X40063338Y-38476899D01*
X40067138Y-38482586D01*
X40127519Y-38628358D01*
X40158300Y-38783107D01*
X40158300Y-38940893D01*
X40127519Y-39095642D01*
X40067138Y-39241414D01*
X40067137Y-39241416D01*
X39979478Y-39372608D01*
X39867908Y-39484178D01*
X39736716Y-39571837D01*
X39736715Y-39571838D01*
X39736714Y-39571838D01*
X39590942Y-39632219D01*
X39436193Y-39663000D01*
X39278407Y-39663000D01*
X39123658Y-39632219D01*
X38977886Y-39571838D01*
X38977885Y-39571838D01*
X38977884Y-39571837D01*
X38846692Y-39484178D01*
X38735122Y-39372608D01*
X38647463Y-39241416D01*
X38647462Y-39241414D01*
X38587081Y-39095642D01*
X38556300Y-38940893D01*
X38556300Y-38783107D01*
X38587081Y-38628358D01*
X38647462Y-38482586D01*
X38651262Y-38476899D01*
X38735122Y-38351392D01*
X38846692Y-38239822D01*
X38977884Y-38152163D01*
X38977886Y-38152162D01*
X39123658Y-38091781D01*
X39278407Y-38061000D01*
X39436193Y-38061000D01*
X39590942Y-38091781D01*
X39590942Y-38091781D01*
G37*
G36*
X42130942Y-38091781D02*
G01*
X42276714Y-38152162D01*
X42276716Y-38152163D01*
X42407908Y-38239822D01*
X42519478Y-38351392D01*
X42603338Y-38476899D01*
X42607138Y-38482586D01*
X42667519Y-38628358D01*
X42698300Y-38783107D01*
X42698300Y-38940893D01*
X42667519Y-39095642D01*
X42607138Y-39241414D01*
X42607137Y-39241416D01*
X42519478Y-39372608D01*
X42407908Y-39484178D01*
X42276716Y-39571837D01*
X42276715Y-39571838D01*
X42276714Y-39571838D01*
X42130942Y-39632219D01*
X41976193Y-39663000D01*
X41818407Y-39663000D01*
X41663658Y-39632219D01*
X41517886Y-39571838D01*
X41517885Y-39571838D01*
X41517884Y-39571837D01*
X41386692Y-39484178D01*
X41275122Y-39372608D01*
X41187463Y-39241416D01*
X41187462Y-39241414D01*
X41127081Y-39095642D01*
X41096300Y-38940893D01*
X41096300Y-38783107D01*
X41127081Y-38628358D01*
X41187462Y-38482586D01*
X41191262Y-38476899D01*
X41275122Y-38351392D01*
X41386692Y-38239822D01*
X41517884Y-38152163D01*
X41517886Y-38152162D01*
X41663658Y-38091781D01*
X41818407Y-38061000D01*
X41976193Y-38061000D01*
X42130942Y-38091781D01*
X42130942Y-38091781D01*
G37*
G36*
X67293142Y-30460242D02*
G01*
X67441101Y-30521529D01*
X67574255Y-30610499D01*
X67687501Y-30723745D01*
X67776471Y-30856899D01*
X67837758Y-31004858D01*
X67869000Y-31161925D01*
X67869000Y-31322075D01*
X67837758Y-31479142D01*
X67776471Y-31627101D01*
X67687501Y-31760255D01*
X67574255Y-31873501D01*
X67441101Y-31962471D01*
X67293142Y-32023758D01*
X67136075Y-32055000D01*
X66975925Y-32055000D01*
X66818858Y-32023758D01*
X66670899Y-31962471D01*
X66537745Y-31873501D01*
X66424499Y-31760255D01*
X66335529Y-31627101D01*
X66274242Y-31479142D01*
X66243000Y-31322075D01*
X66243000Y-31161925D01*
X66274242Y-31004858D01*
X66335529Y-30856899D01*
X66424499Y-30723745D01*
X66537745Y-30610499D01*
X66670899Y-30521529D01*
X66818858Y-30460242D01*
X66975925Y-30429000D01*
X67136075Y-30429000D01*
X67293142Y-30460242D01*
X67293142Y-30460242D01*
G37*
G36*
X64753142Y-30460242D02*
G01*
X64901101Y-30521529D01*
X65034255Y-30610499D01*
X65147501Y-30723745D01*
X65236471Y-30856899D01*
X65297758Y-31004858D01*
X65329000Y-31161925D01*
X65329000Y-31322075D01*
X65297758Y-31479142D01*
X65236471Y-31627101D01*
X65147501Y-31760255D01*
X65034255Y-31873501D01*
X64901101Y-31962471D01*
X64753142Y-32023758D01*
X64596075Y-32055000D01*
X64435925Y-32055000D01*
X64278858Y-32023758D01*
X64130899Y-31962471D01*
X63997745Y-31873501D01*
X63884499Y-31760255D01*
X63795529Y-31627101D01*
X63734242Y-31479142D01*
X63703000Y-31322075D01*
X63703000Y-31161925D01*
X63734242Y-31004858D01*
X63795529Y-30856899D01*
X63884499Y-30723745D01*
X63997745Y-30610499D01*
X64130899Y-30521529D01*
X64278858Y-30460242D01*
X64435925Y-30429000D01*
X64596075Y-30429000D01*
X64753142Y-30460242D01*
X64753142Y-30460242D01*
G37*
G36*
X82533142Y-30460242D02*
G01*
X82681101Y-30521529D01*
X82814255Y-30610499D01*
X82927501Y-30723745D01*
X83016471Y-30856899D01*
X83077758Y-31004858D01*
X83109000Y-31161925D01*
X83109000Y-31322075D01*
X83077758Y-31479142D01*
X83016471Y-31627101D01*
X82927501Y-31760255D01*
X82814255Y-31873501D01*
X82681101Y-31962471D01*
X82533142Y-32023758D01*
X82376075Y-32055000D01*
X82215925Y-32055000D01*
X82058858Y-32023758D01*
X81910899Y-31962471D01*
X81777745Y-31873501D01*
X81664499Y-31760255D01*
X81575529Y-31627101D01*
X81514242Y-31479142D01*
X81483000Y-31322075D01*
X81483000Y-31161925D01*
X81514242Y-31004858D01*
X81575529Y-30856899D01*
X81664499Y-30723745D01*
X81777745Y-30610499D01*
X81910899Y-30521529D01*
X82058858Y-30460242D01*
X82215925Y-30429000D01*
X82376075Y-30429000D01*
X82533142Y-30460242D01*
X82533142Y-30460242D01*
G37*
G36*
X79993142Y-30460242D02*
G01*
X80141101Y-30521529D01*
X80274255Y-30610499D01*
X80387501Y-30723745D01*
X80476471Y-30856899D01*
X80537758Y-31004858D01*
X80569000Y-31161925D01*
X80569000Y-31322075D01*
X80537758Y-31479142D01*
X80476471Y-31627101D01*
X80387501Y-31760255D01*
X80274255Y-31873501D01*
X80141101Y-31962471D01*
X79993142Y-32023758D01*
X79836075Y-32055000D01*
X79675925Y-32055000D01*
X79518858Y-32023758D01*
X79370899Y-31962471D01*
X79237745Y-31873501D01*
X79124499Y-31760255D01*
X79035529Y-31627101D01*
X78974242Y-31479142D01*
X78943000Y-31322075D01*
X78943000Y-31161925D01*
X78974242Y-31004858D01*
X79035529Y-30856899D01*
X79124499Y-30723745D01*
X79237745Y-30610499D01*
X79370899Y-30521529D01*
X79518858Y-30460242D01*
X79675925Y-30429000D01*
X79836075Y-30429000D01*
X79993142Y-30460242D01*
X79993142Y-30460242D01*
G37*
G36*
X77453142Y-30460242D02*
G01*
X77601101Y-30521529D01*
X77734255Y-30610499D01*
X77847501Y-30723745D01*
X77936471Y-30856899D01*
X77997758Y-31004858D01*
X78029000Y-31161925D01*
X78029000Y-31322075D01*
X77997758Y-31479142D01*
X77936471Y-31627101D01*
X77847501Y-31760255D01*
X77734255Y-31873501D01*
X77601101Y-31962471D01*
X77453142Y-32023758D01*
X77296075Y-32055000D01*
X77135925Y-32055000D01*
X76978858Y-32023758D01*
X76830899Y-31962471D01*
X76697745Y-31873501D01*
X76584499Y-31760255D01*
X76495529Y-31627101D01*
X76434242Y-31479142D01*
X76403000Y-31322075D01*
X76403000Y-31161925D01*
X76434242Y-31004858D01*
X76495529Y-30856899D01*
X76584499Y-30723745D01*
X76697745Y-30610499D01*
X76830899Y-30521529D01*
X76978858Y-30460242D01*
X77135925Y-30429000D01*
X77296075Y-30429000D01*
X77453142Y-30460242D01*
X77453142Y-30460242D01*
G37*
G36*
X74913142Y-30460242D02*
G01*
X75061101Y-30521529D01*
X75194255Y-30610499D01*
X75307501Y-30723745D01*
X75396471Y-30856899D01*
X75457758Y-31004858D01*
X75489000Y-31161925D01*
X75489000Y-31322075D01*
X75457758Y-31479142D01*
X75396471Y-31627101D01*
X75307501Y-31760255D01*
X75194255Y-31873501D01*
X75061101Y-31962471D01*
X74913142Y-32023758D01*
X74756075Y-32055000D01*
X74595925Y-32055000D01*
X74438858Y-32023758D01*
X74290899Y-31962471D01*
X74157745Y-31873501D01*
X74044499Y-31760255D01*
X73955529Y-31627101D01*
X73894242Y-31479142D01*
X73863000Y-31322075D01*
X73863000Y-31161925D01*
X73894242Y-31004858D01*
X73955529Y-30856899D01*
X74044499Y-30723745D01*
X74157745Y-30610499D01*
X74290899Y-30521529D01*
X74438858Y-30460242D01*
X74595925Y-30429000D01*
X74756075Y-30429000D01*
X74913142Y-30460242D01*
X74913142Y-30460242D01*
G37*
G36*
X72373142Y-30460242D02*
G01*
X72521101Y-30521529D01*
X72654255Y-30610499D01*
X72767501Y-30723745D01*
X72856471Y-30856899D01*
X72917758Y-31004858D01*
X72949000Y-31161925D01*
X72949000Y-31322075D01*
X72917758Y-31479142D01*
X72856471Y-31627101D01*
X72767501Y-31760255D01*
X72654255Y-31873501D01*
X72521101Y-31962471D01*
X72373142Y-32023758D01*
X72216075Y-32055000D01*
X72055925Y-32055000D01*
X71898858Y-32023758D01*
X71750899Y-31962471D01*
X71617745Y-31873501D01*
X71504499Y-31760255D01*
X71415529Y-31627101D01*
X71354242Y-31479142D01*
X71323000Y-31322075D01*
X71323000Y-31161925D01*
X71354242Y-31004858D01*
X71415529Y-30856899D01*
X71504499Y-30723745D01*
X71617745Y-30610499D01*
X71750899Y-30521529D01*
X71898858Y-30460242D01*
X72055925Y-30429000D01*
X72216075Y-30429000D01*
X72373142Y-30460242D01*
X72373142Y-30460242D01*
G37*
G36*
X69833142Y-30460242D02*
G01*
X69981101Y-30521529D01*
X70114255Y-30610499D01*
X70227501Y-30723745D01*
X70316471Y-30856899D01*
X70377758Y-31004858D01*
X70409000Y-31161925D01*
X70409000Y-31322075D01*
X70377758Y-31479142D01*
X70316471Y-31627101D01*
X70227501Y-31760255D01*
X70114255Y-31873501D01*
X69981101Y-31962471D01*
X69833142Y-32023758D01*
X69676075Y-32055000D01*
X69515925Y-32055000D01*
X69358858Y-32023758D01*
X69210899Y-31962471D01*
X69077745Y-31873501D01*
X68964499Y-31760255D01*
X68875529Y-31627101D01*
X68814242Y-31479142D01*
X68783000Y-31322075D01*
X68783000Y-31161925D01*
X68814242Y-31004858D01*
X68875529Y-30856899D01*
X68964499Y-30723745D01*
X69077745Y-30610499D01*
X69210899Y-30521529D01*
X69358858Y-30460242D01*
X69515925Y-30429000D01*
X69676075Y-30429000D01*
X69833142Y-30460242D01*
X69833142Y-30460242D01*
G37*
G36*
X64578890Y-26806017D02*
G01*
X64697364Y-26855091D01*
X64803988Y-26926335D01*
X64894665Y-27017012D01*
X64965909Y-27123636D01*
X65014983Y-27242110D01*
X65040000Y-27367882D01*
X65040000Y-27496118D01*
X65014983Y-27621890D01*
X64965909Y-27740364D01*
X64894665Y-27846988D01*
X64803988Y-27937665D01*
X64697364Y-28008909D01*
X64697363Y-28008910D01*
X64697362Y-28008910D01*
X64578890Y-28057983D01*
X64453119Y-28083000D01*
X64324881Y-28083000D01*
X64199110Y-28057983D01*
X64080638Y-28008910D01*
X64080637Y-28008910D01*
X64080636Y-28008909D01*
X63974012Y-27937665D01*
X63883335Y-27846988D01*
X63812091Y-27740364D01*
X63763017Y-27621890D01*
X63738000Y-27496118D01*
X63738000Y-27367882D01*
X63763017Y-27242110D01*
X63812091Y-27123636D01*
X63883335Y-27017012D01*
X63974012Y-26926335D01*
X64080636Y-26855091D01*
X64199110Y-26806017D01*
X64324881Y-26781000D01*
X64453119Y-26781000D01*
X64578890Y-26806017D01*
X64578890Y-26806017D01*
G37*
G36*
X64578890Y-24266017D02*
G01*
X64697364Y-24315091D01*
X64803988Y-24386335D01*
X64894665Y-24477012D01*
X64965909Y-24583636D01*
X65014983Y-24702110D01*
X65040000Y-24827882D01*
X65040000Y-24956118D01*
X65014983Y-25081890D01*
X64965909Y-25200364D01*
X64894665Y-25306988D01*
X64803988Y-25397665D01*
X64697364Y-25468909D01*
X64697363Y-25468910D01*
X64697362Y-25468910D01*
X64578890Y-25517983D01*
X64453119Y-25543000D01*
X64324881Y-25543000D01*
X64199110Y-25517983D01*
X64080638Y-25468910D01*
X64080637Y-25468910D01*
X64080636Y-25468909D01*
X63974012Y-25397665D01*
X63883335Y-25306988D01*
X63812091Y-25200364D01*
X63763017Y-25081890D01*
X63738000Y-24956118D01*
X63738000Y-24827882D01*
X63763017Y-24702110D01*
X63812091Y-24583636D01*
X63883335Y-24477012D01*
X63974012Y-24386335D01*
X64080636Y-24315091D01*
X64199110Y-24266017D01*
X64324881Y-24241000D01*
X64453119Y-24241000D01*
X64578890Y-24266017D01*
X64578890Y-24266017D01*
G37*
G36*
X44670942Y-22851781D02*
G01*
X44816714Y-22912162D01*
X44816716Y-22912163D01*
X44947908Y-22999822D01*
X45059478Y-23111392D01*
X45147137Y-23242584D01*
X45147138Y-23242586D01*
X45207519Y-23388358D01*
X45238300Y-23543107D01*
X45238300Y-23700893D01*
X45207519Y-23855642D01*
X45147138Y-24001414D01*
X45147137Y-24001416D01*
X45059478Y-24132608D01*
X44947908Y-24244178D01*
X44816716Y-24331837D01*
X44816715Y-24331838D01*
X44816714Y-24331838D01*
X44670942Y-24392219D01*
X44516193Y-24423000D01*
X44358407Y-24423000D01*
X44203658Y-24392219D01*
X44057886Y-24331838D01*
X44057885Y-24331838D01*
X44057884Y-24331837D01*
X43926692Y-24244178D01*
X43815122Y-24132608D01*
X43727463Y-24001416D01*
X43727462Y-24001414D01*
X43667081Y-23855642D01*
X43636300Y-23700893D01*
X43636300Y-23543107D01*
X43667081Y-23388358D01*
X43727462Y-23242586D01*
X43727463Y-23242584D01*
X43815122Y-23111392D01*
X43926692Y-22999822D01*
X44057884Y-22912163D01*
X44057886Y-22912162D01*
X44203658Y-22851781D01*
X44358407Y-22821000D01*
X44516193Y-22821000D01*
X44670942Y-22851781D01*
X44670942Y-22851781D01*
G37*
G36*
X42130942Y-22851781D02*
G01*
X42276714Y-22912162D01*
X42276716Y-22912163D01*
X42407908Y-22999822D01*
X42519478Y-23111392D01*
X42607137Y-23242584D01*
X42607138Y-23242586D01*
X42667519Y-23388358D01*
X42698300Y-23543107D01*
X42698300Y-23700893D01*
X42667519Y-23855642D01*
X42607138Y-24001414D01*
X42607137Y-24001416D01*
X42519478Y-24132608D01*
X42407908Y-24244178D01*
X42276716Y-24331837D01*
X42276715Y-24331838D01*
X42276714Y-24331838D01*
X42130942Y-24392219D01*
X41976193Y-24423000D01*
X41818407Y-24423000D01*
X41663658Y-24392219D01*
X41517886Y-24331838D01*
X41517885Y-24331838D01*
X41517884Y-24331837D01*
X41386692Y-24244178D01*
X41275122Y-24132608D01*
X41187463Y-24001416D01*
X41187462Y-24001414D01*
X41127081Y-23855642D01*
X41096300Y-23700893D01*
X41096300Y-23543107D01*
X41127081Y-23388358D01*
X41187462Y-23242586D01*
X41187463Y-23242584D01*
X41275122Y-23111392D01*
X41386692Y-22999822D01*
X41517884Y-22912163D01*
X41517886Y-22912162D01*
X41663658Y-22851781D01*
X41818407Y-22821000D01*
X41976193Y-22821000D01*
X42130942Y-22851781D01*
X42130942Y-22851781D01*
G37*
G36*
X39590942Y-22851781D02*
G01*
X39736714Y-22912162D01*
X39736716Y-22912163D01*
X39867908Y-22999822D01*
X39979478Y-23111392D01*
X40067137Y-23242584D01*
X40067138Y-23242586D01*
X40127519Y-23388358D01*
X40158300Y-23543107D01*
X40158300Y-23700893D01*
X40127519Y-23855642D01*
X40067138Y-24001414D01*
X40067137Y-24001416D01*
X39979478Y-24132608D01*
X39867908Y-24244178D01*
X39736716Y-24331837D01*
X39736715Y-24331838D01*
X39736714Y-24331838D01*
X39590942Y-24392219D01*
X39436193Y-24423000D01*
X39278407Y-24423000D01*
X39123658Y-24392219D01*
X38977886Y-24331838D01*
X38977885Y-24331838D01*
X38977884Y-24331837D01*
X38846692Y-24244178D01*
X38735122Y-24132608D01*
X38647463Y-24001416D01*
X38647462Y-24001414D01*
X38587081Y-23855642D01*
X38556300Y-23700893D01*
X38556300Y-23543107D01*
X38587081Y-23388358D01*
X38647462Y-23242586D01*
X38647463Y-23242584D01*
X38735122Y-23111392D01*
X38846692Y-22999822D01*
X38977884Y-22912163D01*
X38977886Y-22912162D01*
X39123658Y-22851781D01*
X39278407Y-22821000D01*
X39436193Y-22821000D01*
X39590942Y-22851781D01*
X39590942Y-22851781D01*
G37*
G36*
X37050942Y-22851781D02*
G01*
X37196714Y-22912162D01*
X37196716Y-22912163D01*
X37327908Y-22999822D01*
X37439478Y-23111392D01*
X37527137Y-23242584D01*
X37527138Y-23242586D01*
X37587519Y-23388358D01*
X37618300Y-23543107D01*
X37618300Y-23700893D01*
X37587519Y-23855642D01*
X37527138Y-24001414D01*
X37527137Y-24001416D01*
X37439478Y-24132608D01*
X37327908Y-24244178D01*
X37196716Y-24331837D01*
X37196715Y-24331838D01*
X37196714Y-24331838D01*
X37050942Y-24392219D01*
X36896193Y-24423000D01*
X36738407Y-24423000D01*
X36583658Y-24392219D01*
X36437886Y-24331838D01*
X36437885Y-24331838D01*
X36437884Y-24331837D01*
X36306692Y-24244178D01*
X36195122Y-24132608D01*
X36107463Y-24001416D01*
X36107462Y-24001414D01*
X36047081Y-23855642D01*
X36016300Y-23700893D01*
X36016300Y-23543107D01*
X36047081Y-23388358D01*
X36107462Y-23242586D01*
X36107463Y-23242584D01*
X36195122Y-23111392D01*
X36306692Y-22999822D01*
X36437884Y-22912163D01*
X36437886Y-22912162D01*
X36583658Y-22851781D01*
X36738407Y-22821000D01*
X36896193Y-22821000D01*
X37050942Y-22851781D01*
X37050942Y-22851781D01*
G37*
G36*
X31970942Y-22851781D02*
G01*
X32116714Y-22912162D01*
X32116716Y-22912163D01*
X32247908Y-22999822D01*
X32359478Y-23111392D01*
X32447137Y-23242584D01*
X32447138Y-23242586D01*
X32507519Y-23388358D01*
X32538300Y-23543107D01*
X32538300Y-23700893D01*
X32507519Y-23855642D01*
X32447138Y-24001414D01*
X32447137Y-24001416D01*
X32359478Y-24132608D01*
X32247908Y-24244178D01*
X32116716Y-24331837D01*
X32116715Y-24331838D01*
X32116714Y-24331838D01*
X31970942Y-24392219D01*
X31816193Y-24423000D01*
X31658407Y-24423000D01*
X31503658Y-24392219D01*
X31357886Y-24331838D01*
X31357885Y-24331838D01*
X31357884Y-24331837D01*
X31226692Y-24244178D01*
X31115122Y-24132608D01*
X31027463Y-24001416D01*
X31027462Y-24001414D01*
X30967081Y-23855642D01*
X30936300Y-23700893D01*
X30936300Y-23543107D01*
X30967081Y-23388358D01*
X31027462Y-23242586D01*
X31027463Y-23242584D01*
X31115122Y-23111392D01*
X31226692Y-22999822D01*
X31357884Y-22912163D01*
X31357886Y-22912162D01*
X31503658Y-22851781D01*
X31658407Y-22821000D01*
X31816193Y-22821000D01*
X31970942Y-22851781D01*
X31970942Y-22851781D01*
G37*
G36*
X29430942Y-22851781D02*
G01*
X29576714Y-22912162D01*
X29576716Y-22912163D01*
X29707908Y-22999822D01*
X29819478Y-23111392D01*
X29907137Y-23242584D01*
X29907138Y-23242586D01*
X29967519Y-23388358D01*
X29998300Y-23543107D01*
X29998300Y-23700893D01*
X29967519Y-23855642D01*
X29907138Y-24001414D01*
X29907137Y-24001416D01*
X29819478Y-24132608D01*
X29707908Y-24244178D01*
X29576716Y-24331837D01*
X29576715Y-24331838D01*
X29576714Y-24331838D01*
X29430942Y-24392219D01*
X29276193Y-24423000D01*
X29118407Y-24423000D01*
X28963658Y-24392219D01*
X28817886Y-24331838D01*
X28817885Y-24331838D01*
X28817884Y-24331837D01*
X28686692Y-24244178D01*
X28575122Y-24132608D01*
X28487463Y-24001416D01*
X28487462Y-24001414D01*
X28427081Y-23855642D01*
X28396300Y-23700893D01*
X28396300Y-23543107D01*
X28427081Y-23388358D01*
X28487462Y-23242586D01*
X28487463Y-23242584D01*
X28575122Y-23111392D01*
X28686692Y-22999822D01*
X28817884Y-22912163D01*
X28817886Y-22912162D01*
X28963658Y-22851781D01*
X29118407Y-22821000D01*
X29276193Y-22821000D01*
X29430942Y-22851781D01*
X29430942Y-22851781D01*
G37*
G36*
X26890942Y-22851781D02*
G01*
X27036714Y-22912162D01*
X27036716Y-22912163D01*
X27167908Y-22999822D01*
X27279478Y-23111392D01*
X27367137Y-23242584D01*
X27367138Y-23242586D01*
X27427519Y-23388358D01*
X27458300Y-23543107D01*
X27458300Y-23700893D01*
X27427519Y-23855642D01*
X27367138Y-24001414D01*
X27367137Y-24001416D01*
X27279478Y-24132608D01*
X27167908Y-24244178D01*
X27036716Y-24331837D01*
X27036715Y-24331838D01*
X27036714Y-24331838D01*
X26890942Y-24392219D01*
X26736193Y-24423000D01*
X26578407Y-24423000D01*
X26423658Y-24392219D01*
X26277886Y-24331838D01*
X26277885Y-24331838D01*
X26277884Y-24331837D01*
X26146692Y-24244178D01*
X26035122Y-24132608D01*
X25947463Y-24001416D01*
X25947462Y-24001414D01*
X25887081Y-23855642D01*
X25856300Y-23700893D01*
X25856300Y-23543107D01*
X25887081Y-23388358D01*
X25947462Y-23242586D01*
X25947463Y-23242584D01*
X26035122Y-23111392D01*
X26146692Y-22999822D01*
X26277884Y-22912163D01*
X26277886Y-22912162D01*
X26423658Y-22851781D01*
X26578407Y-22821000D01*
X26736193Y-22821000D01*
X26890942Y-22851781D01*
X26890942Y-22851781D01*
G37*
G36*
X47210942Y-22851781D02*
G01*
X47356714Y-22912162D01*
X47356716Y-22912163D01*
X47487908Y-22999822D01*
X47599478Y-23111392D01*
X47687137Y-23242584D01*
X47687138Y-23242586D01*
X47747519Y-23388358D01*
X47778300Y-23543107D01*
X47778300Y-23700893D01*
X47747519Y-23855642D01*
X47687138Y-24001414D01*
X47687137Y-24001416D01*
X47599478Y-24132608D01*
X47487908Y-24244178D01*
X47356716Y-24331837D01*
X47356715Y-24331838D01*
X47356714Y-24331838D01*
X47210942Y-24392219D01*
X47056193Y-24423000D01*
X46898407Y-24423000D01*
X46743658Y-24392219D01*
X46597886Y-24331838D01*
X46597885Y-24331838D01*
X46597884Y-24331837D01*
X46466692Y-24244178D01*
X46355122Y-24132608D01*
X46267463Y-24001416D01*
X46267462Y-24001414D01*
X46207081Y-23855642D01*
X46176300Y-23700893D01*
X46176300Y-23543107D01*
X46207081Y-23388358D01*
X46267462Y-23242586D01*
X46267463Y-23242584D01*
X46355122Y-23111392D01*
X46466692Y-22999822D01*
X46597884Y-22912163D01*
X46597886Y-22912162D01*
X46743658Y-22851781D01*
X46898407Y-22821000D01*
X47056193Y-22821000D01*
X47210942Y-22851781D01*
X47210942Y-22851781D01*
G37*
G36*
X49750942Y-22851781D02*
G01*
X49896714Y-22912162D01*
X49896716Y-22912163D01*
X50027908Y-22999822D01*
X50139478Y-23111392D01*
X50227137Y-23242584D01*
X50227138Y-23242586D01*
X50287519Y-23388358D01*
X50318300Y-23543107D01*
X50318300Y-23700893D01*
X50287519Y-23855642D01*
X50227138Y-24001414D01*
X50227137Y-24001416D01*
X50139478Y-24132608D01*
X50027908Y-24244178D01*
X49896716Y-24331837D01*
X49896715Y-24331838D01*
X49896714Y-24331838D01*
X49750942Y-24392219D01*
X49596193Y-24423000D01*
X49438407Y-24423000D01*
X49283658Y-24392219D01*
X49137886Y-24331838D01*
X49137885Y-24331838D01*
X49137884Y-24331837D01*
X49006692Y-24244178D01*
X48895122Y-24132608D01*
X48807463Y-24001416D01*
X48807462Y-24001414D01*
X48747081Y-23855642D01*
X48716300Y-23700893D01*
X48716300Y-23543107D01*
X48747081Y-23388358D01*
X48807462Y-23242586D01*
X48807463Y-23242584D01*
X48895122Y-23111392D01*
X49006692Y-22999822D01*
X49137884Y-22912163D01*
X49137886Y-22912162D01*
X49283658Y-22851781D01*
X49438407Y-22821000D01*
X49596193Y-22821000D01*
X49750942Y-22851781D01*
X49750942Y-22851781D01*
G37*
G36*
X52290942Y-22851781D02*
G01*
X52436714Y-22912162D01*
X52436716Y-22912163D01*
X52567908Y-22999822D01*
X52679478Y-23111392D01*
X52767137Y-23242584D01*
X52767138Y-23242586D01*
X52827519Y-23388358D01*
X52858300Y-23543107D01*
X52858300Y-23700893D01*
X52827519Y-23855642D01*
X52767138Y-24001414D01*
X52767137Y-24001416D01*
X52679478Y-24132608D01*
X52567908Y-24244178D01*
X52436716Y-24331837D01*
X52436715Y-24331838D01*
X52436714Y-24331838D01*
X52290942Y-24392219D01*
X52136193Y-24423000D01*
X51978407Y-24423000D01*
X51823658Y-24392219D01*
X51677886Y-24331838D01*
X51677885Y-24331838D01*
X51677884Y-24331837D01*
X51546692Y-24244178D01*
X51435122Y-24132608D01*
X51347463Y-24001416D01*
X51347462Y-24001414D01*
X51287081Y-23855642D01*
X51256300Y-23700893D01*
X51256300Y-23543107D01*
X51287081Y-23388358D01*
X51347462Y-23242586D01*
X51347463Y-23242584D01*
X51435122Y-23111392D01*
X51546692Y-22999822D01*
X51677884Y-22912163D01*
X51677886Y-22912162D01*
X51823658Y-22851781D01*
X51978407Y-22821000D01*
X52136193Y-22821000D01*
X52290942Y-22851781D01*
X52290942Y-22851781D01*
G37*
G36*
X54830942Y-22851781D02*
G01*
X54976714Y-22912162D01*
X54976716Y-22912163D01*
X55107908Y-22999822D01*
X55219478Y-23111392D01*
X55307137Y-23242584D01*
X55307138Y-23242586D01*
X55367519Y-23388358D01*
X55398300Y-23543107D01*
X55398300Y-23700893D01*
X55367519Y-23855642D01*
X55307138Y-24001414D01*
X55307137Y-24001416D01*
X55219478Y-24132608D01*
X55107908Y-24244178D01*
X54976716Y-24331837D01*
X54976715Y-24331838D01*
X54976714Y-24331838D01*
X54830942Y-24392219D01*
X54676193Y-24423000D01*
X54518407Y-24423000D01*
X54363658Y-24392219D01*
X54217886Y-24331838D01*
X54217885Y-24331838D01*
X54217884Y-24331837D01*
X54086692Y-24244178D01*
X53975122Y-24132608D01*
X53887463Y-24001416D01*
X53887462Y-24001414D01*
X53827081Y-23855642D01*
X53796300Y-23700893D01*
X53796300Y-23543107D01*
X53827081Y-23388358D01*
X53887462Y-23242586D01*
X53887463Y-23242584D01*
X53975122Y-23111392D01*
X54086692Y-22999822D01*
X54217884Y-22912163D01*
X54217886Y-22912162D01*
X54363658Y-22851781D01*
X54518407Y-22821000D01*
X54676193Y-22821000D01*
X54830942Y-22851781D01*
X54830942Y-22851781D01*
G37*
G36*
X57370942Y-22851781D02*
G01*
X57516714Y-22912162D01*
X57516716Y-22912163D01*
X57647908Y-22999822D01*
X57759478Y-23111392D01*
X57847137Y-23242584D01*
X57847138Y-23242586D01*
X57907519Y-23388358D01*
X57938300Y-23543107D01*
X57938300Y-23700893D01*
X57907519Y-23855642D01*
X57847138Y-24001414D01*
X57847137Y-24001416D01*
X57759478Y-24132608D01*
X57647908Y-24244178D01*
X57516716Y-24331837D01*
X57516715Y-24331838D01*
X57516714Y-24331838D01*
X57370942Y-24392219D01*
X57216193Y-24423000D01*
X57058407Y-24423000D01*
X56903658Y-24392219D01*
X56757886Y-24331838D01*
X56757885Y-24331838D01*
X56757884Y-24331837D01*
X56626692Y-24244178D01*
X56515122Y-24132608D01*
X56427463Y-24001416D01*
X56427462Y-24001414D01*
X56367081Y-23855642D01*
X56336300Y-23700893D01*
X56336300Y-23543107D01*
X56367081Y-23388358D01*
X56427462Y-23242586D01*
X56427463Y-23242584D01*
X56515122Y-23111392D01*
X56626692Y-22999822D01*
X56757884Y-22912163D01*
X56757886Y-22912162D01*
X56903658Y-22851781D01*
X57058407Y-22821000D01*
X57216193Y-22821000D01*
X57370942Y-22851781D01*
X57370942Y-22851781D01*
G37*
G36*
X59910942Y-22851781D02*
G01*
X60056714Y-22912162D01*
X60056716Y-22912163D01*
X60187908Y-22999822D01*
X60299478Y-23111392D01*
X60387137Y-23242584D01*
X60387138Y-23242586D01*
X60447519Y-23388358D01*
X60478300Y-23543107D01*
X60478300Y-23700893D01*
X60447519Y-23855642D01*
X60387138Y-24001414D01*
X60387137Y-24001416D01*
X60299478Y-24132608D01*
X60187908Y-24244178D01*
X60056716Y-24331837D01*
X60056715Y-24331838D01*
X60056714Y-24331838D01*
X59910942Y-24392219D01*
X59756193Y-24423000D01*
X59598407Y-24423000D01*
X59443658Y-24392219D01*
X59297886Y-24331838D01*
X59297885Y-24331838D01*
X59297884Y-24331837D01*
X59166692Y-24244178D01*
X59055122Y-24132608D01*
X58967463Y-24001416D01*
X58967462Y-24001414D01*
X58907081Y-23855642D01*
X58876300Y-23700893D01*
X58876300Y-23543107D01*
X58907081Y-23388358D01*
X58967462Y-23242586D01*
X58967463Y-23242584D01*
X59055122Y-23111392D01*
X59166692Y-22999822D01*
X59297884Y-22912163D01*
X59297886Y-22912162D01*
X59443658Y-22851781D01*
X59598407Y-22821000D01*
X59756193Y-22821000D01*
X59910942Y-22851781D01*
X59910942Y-22851781D01*
G37*
G36*
X34510942Y-22851781D02*
G01*
X34656714Y-22912162D01*
X34656716Y-22912163D01*
X34787908Y-22999822D01*
X34899478Y-23111392D01*
X34987137Y-23242584D01*
X34987138Y-23242586D01*
X35047519Y-23388358D01*
X35078300Y-23543107D01*
X35078300Y-23700893D01*
X35047519Y-23855642D01*
X34987138Y-24001414D01*
X34987137Y-24001416D01*
X34899478Y-24132608D01*
X34787908Y-24244178D01*
X34656716Y-24331837D01*
X34656715Y-24331838D01*
X34656714Y-24331838D01*
X34510942Y-24392219D01*
X34356193Y-24423000D01*
X34198407Y-24423000D01*
X34043658Y-24392219D01*
X33897886Y-24331838D01*
X33897885Y-24331838D01*
X33897884Y-24331837D01*
X33766692Y-24244178D01*
X33655122Y-24132608D01*
X33567463Y-24001416D01*
X33567462Y-24001414D01*
X33507081Y-23855642D01*
X33476300Y-23700893D01*
X33476300Y-23543107D01*
X33507081Y-23388358D01*
X33567462Y-23242586D01*
X33567463Y-23242584D01*
X33655122Y-23111392D01*
X33766692Y-22999822D01*
X33897884Y-22912163D01*
X33897886Y-22912162D01*
X34043658Y-22851781D01*
X34198407Y-22821000D01*
X34356193Y-22821000D01*
X34510942Y-22851781D01*
X34510942Y-22851781D01*
G37*
M02*
